<svg viewBox="0 0 1496 400" xmlns="http://www.w3.org/2000/svg"><g><g><g><g><g><line x1="50" y1="378" x2="45" y2="378" style="visibility: inherit;" fill="rgb(0, 0, 0)" stroke="rgb(204, 204, 204)" stroke-width="1px"></line><line x1="50" y1="346.5" x2="45" y2="346.5" style="visibility: inherit;" fill="rgb(0, 0, 0)" stroke="rgb(204, 204, 204)" stroke-width="1px"></line><line x1="50" y1="315" x2="45" y2="315" style="visibility: inherit;" fill="rgb(0, 0, 0)" stroke="rgb(204, 204, 204)" stroke-width="1px"></line><line x1="50" y1="283.5" x2="45" y2="283.5" style="visibility: inherit;" fill="rgb(0, 0, 0)" stroke="rgb(204, 204, 204)" stroke-width="1px"></line><line x1="50" y1="252" x2="45" y2="252" style="visibility: inherit;" fill="rgb(0, 0, 0)" stroke="rgb(204, 204, 204)" stroke-width="1px"></line><line x1="50" y1="220.5" x2="45" y2="220.5" style="visibility: inherit;" fill="rgb(0, 0, 0)" stroke="rgb(204, 204, 204)" stroke-width="1px"></line><line x1="50" y1="189.00000000000003" x2="45" y2="189.00000000000003" style="visibility: inherit;" fill="rgb(0, 0, 0)" stroke="rgb(204, 204, 204)" stroke-width="1px"></line><line x1="50" y1="157.50000000000003" x2="45" y2="157.50000000000003" style="visibility: inherit;" fill="rgb(0, 0, 0)" stroke="rgb(204, 204, 204)" stroke-width="1px"></line><line x1="50" y1="126.00000000000006" x2="45" y2="126.00000000000006" style="visibility: inherit;" fill="rgb(0, 0, 0)" stroke="rgb(204, 204, 204)" stroke-width="1px"></line><line x1="50" y1="94.50000000000006" x2="45" y2="94.50000000000006" style="visibility: inherit;" fill="rgb(0, 0, 0)" stroke="rgb(204, 204, 204)" stroke-width="1px"></line><line x1="50" y1="63" x2="45" y2="63" style="visibility: inherit;" fill="rgb(0, 0, 0)" stroke="rgb(204, 204, 204)" stroke-width="1px"></line><line x1="50" y1="31.5" x2="45" y2="31.5" style="visibility: inherit;" fill="rgb(0, 0, 0)" stroke="rgb(204, 204, 204)" stroke-width="1px"></line><line x1="50" y1="0" x2="45" y2="0" style="visibility: inherit;" fill="rgb(0, 0, 0)" stroke="rgb(204, 204, 204)" stroke-width="1px"></line></g><g transform="translate(40, 0)"><text x="0" y="378" dx="0em" dy="0.3em" style="text-anchor: end; visibility: hidden; font-family: &quot;Helvetica Neue&quot;, sans-serif; font-size: 12px; font-weight: 200;" fill="rgb(50, 49, 63)" stroke="none" stroke-width="1px">-0.1</text><text x="0" y="346.5" dx="0em" dy="0.3em" style="text-anchor: end; visibility: inherit; font-family: &quot;Helvetica Neue&quot;, sans-serif; font-size: 12px; font-weight: 200;" fill="rgb(50, 49, 63)" stroke="none" stroke-width="1px">0</text><text x="0" y="315" dx="0em" dy="0.3em" style="text-anchor: end; visibility: inherit; font-family: &quot;Helvetica Neue&quot;, sans-serif; font-size: 12px; font-weight: 200;" fill="rgb(50, 49, 63)" stroke="none" stroke-width="1px">0.1</text><text x="0" y="283.5" dx="0em" dy="0.3em" style="text-anchor: end; visibility: inherit; font-family: &quot;Helvetica Neue&quot;, sans-serif; font-size: 12px; font-weight: 200;" fill="rgb(50, 49, 63)" stroke="none" stroke-width="1px">0.2</text><text x="0" y="252" dx="0em" dy="0.3em" style="text-anchor: end; visibility: inherit; font-family: &quot;Helvetica Neue&quot;, sans-serif; font-size: 12px; font-weight: 200;" fill="rgb(50, 49, 63)" stroke="none" stroke-width="1px">0.3</text><text x="0" y="220.5" dx="0em" dy="0.3em" style="text-anchor: end; visibility: inherit; font-family: &quot;Helvetica Neue&quot;, sans-serif; font-size: 12px; font-weight: 200;" fill="rgb(50, 49, 63)" stroke="none" stroke-width="1px">0.4</text><text x="0" y="189.00000000000003" dx="0em" dy="0.3em" style="text-anchor: end; visibility: inherit; font-family: &quot;Helvetica Neue&quot;, sans-serif; font-size: 12px; font-weight: 200;" fill="rgb(50, 49, 63)" stroke="none" stroke-width="1px">0.5</text><text x="0" y="157.50000000000003" dx="0em" dy="0.3em" style="text-anchor: end; visibility: inherit; font-family: &quot;Helvetica Neue&quot;, sans-serif; font-size: 12px; font-weight: 200;" fill="rgb(50, 49, 63)" stroke="none" stroke-width="1px">0.6</text><text x="0" y="126.00000000000006" dx="0em" dy="0.3em" style="text-anchor: end; visibility: inherit; font-family: &quot;Helvetica Neue&quot;, sans-serif; font-size: 12px; font-weight: 200;" fill="rgb(50, 49, 63)" stroke="none" stroke-width="1px">0.7</text><text x="0" y="94.50000000000006" dx="0em" dy="0.3em" style="text-anchor: end; visibility: inherit; font-family: &quot;Helvetica Neue&quot;, sans-serif; font-size: 12px; font-weight: 200;" fill="rgb(50, 49, 63)" stroke="none" stroke-width="1px">0.8</text><text x="0" y="63" dx="0em" dy="0.3em" style="text-anchor: end; visibility: inherit; font-family: &quot;Helvetica Neue&quot;, sans-serif; font-size: 12px; font-weight: 200;" fill="rgb(50, 49, 63)" stroke="none" stroke-width="1px">0.9</text><text x="0" y="31.5" dx="0em" dy="0.3em" style="text-anchor: end; visibility: inherit; font-family: &quot;Helvetica Neue&quot;, sans-serif; font-size: 12px; font-weight: 200;" fill="rgb(50, 49, 63)" stroke="none" stroke-width="1px">1</text><text x="0" y="0" dx="0em" dy="0.3em" style="text-anchor: end; visibility: hidden; font-family: &quot;Helvetica Neue&quot;, sans-serif; font-size: 12px; font-weight: 200;" fill="rgb(50, 49, 63)" stroke="none" stroke-width="1px">1.1</text></g><line x1="50" y1="0" x2="50" y2="378" fill="rgb(0, 0, 0)" stroke="rgb(204, 204, 204)" stroke-width="1px"></line></g></g><g transform="translate(50, 0)" clip-path="url(#clip_0)"><clipPath id="clip_0"><rect width="1446" height="378"></rect></clipPath><g><g><g><line x1="0" y1="0" x2="0" y2="378" fill="rgb(0, 0, 0)" stroke="rgb(60, 60, 60)" stroke-width="1px" opacity="0.25"></line><line x1="131.45454545454547" y1="0" x2="131.45454545454547" y2="378" fill="rgb(0, 0, 0)" stroke="rgb(60, 60, 60)" stroke-width="1px" opacity="0.25"></line><line x1="262.90909090909093" y1="0" x2="262.90909090909093" y2="378" fill="rgb(0, 0, 0)" stroke="rgb(60, 60, 60)" stroke-width="1px" opacity="0.25"></line><line x1="394.3636363636363" y1="0" x2="394.3636363636363" y2="378" fill="rgb(0, 0, 0)" stroke="rgb(60, 60, 60)" stroke-width="1px" opacity="0.25"></line><line x1="525.8181818181819" y1="0" x2="525.8181818181819" y2="378" fill="rgb(0, 0, 0)" stroke="rgb(60, 60, 60)" stroke-width="1px" opacity="0.25"></line><line x1="657.2727272727273" y1="0" x2="657.2727272727273" y2="378" fill="rgb(0, 0, 0)" stroke="rgb(60, 60, 60)" stroke-width="1px" opacity="0.25"></line><line x1="788.7272727272726" y1="0" x2="788.7272727272726" y2="378" fill="rgb(0, 0, 0)" stroke="rgb(60, 60, 60)" stroke-width="1px" opacity="0.25"></line><line x1="920.1818181818181" y1="0" x2="920.1818181818181" y2="378" fill="rgb(0, 0, 0)" stroke="rgb(60, 60, 60)" stroke-width="1px" opacity="0.25"></line><line x1="1051.6363636363637" y1="0" x2="1051.6363636363637" y2="378" fill="rgb(0, 0, 0)" stroke="rgb(60, 60, 60)" stroke-width="1px" opacity="0.25"></line><line x1="1183.0909090909092" y1="0" x2="1183.0909090909092" y2="378" fill="rgb(0, 0, 0)" stroke="rgb(60, 60, 60)" stroke-width="1px" opacity="0.25"></line><line x1="1314.5454545454545" y1="0" x2="1314.5454545454545" y2="378" fill="rgb(0, 0, 0)" stroke="rgb(60, 60, 60)" stroke-width="1px" opacity="0.25"></line><line x1="1446" y1="0" x2="1446" y2="378" fill="rgb(0, 0, 0)" stroke="rgb(60, 60, 60)" stroke-width="1px" opacity="0.25"></line></g><g><line x1="0" y1="378" x2="1446" y2="378" fill="rgb(0, 0, 0)" stroke="rgb(60, 60, 60)" stroke-width="1px" opacity="0.25"></line><line x1="0" y1="346.5" x2="1446" y2="346.5" fill="rgb(0, 0, 0)" stroke="rgb(60, 60, 60)" stroke-width="1px" opacity="0.25"></line><line x1="0" y1="315" x2="1446" y2="315" fill="rgb(0, 0, 0)" stroke="rgb(60, 60, 60)" stroke-width="1px" opacity="0.25"></line><line x1="0" y1="283.5" x2="1446" y2="283.5" fill="rgb(0, 0, 0)" stroke="rgb(60, 60, 60)" stroke-width="1px" opacity="0.25"></line><line x1="0" y1="252" x2="1446" y2="252" fill="rgb(0, 0, 0)" stroke="rgb(60, 60, 60)" stroke-width="1px" opacity="0.25"></line><line x1="0" y1="220.5" x2="1446" y2="220.5" fill="rgb(0, 0, 0)" stroke="rgb(60, 60, 60)" stroke-width="1px" opacity="0.25"></line><line x1="0" y1="189.00000000000003" x2="1446" y2="189.00000000000003" fill="rgb(0, 0, 0)" stroke="rgb(60, 60, 60)" stroke-width="1px" opacity="0.25"></line><line x1="0" y1="157.50000000000003" x2="1446" y2="157.50000000000003" fill="rgb(0, 0, 0)" stroke="rgb(60, 60, 60)" stroke-width="1px" opacity="0.25"></line><line x1="0" y1="126.00000000000006" x2="1446" y2="126.00000000000006" fill="rgb(0, 0, 0)" stroke="rgb(60, 60, 60)" stroke-width="1px" opacity="0.25"></line><line x1="0" y1="94.50000000000006" x2="1446" y2="94.50000000000006" fill="rgb(0, 0, 0)" stroke="rgb(60, 60, 60)" stroke-width="1px" opacity="0.25"></line><line x1="0" y1="63" x2="1446" y2="63" fill="rgb(0, 0, 0)" stroke="rgb(60, 60, 60)" stroke-width="1px" opacity="0.25"></line><line x1="0" y1="31.5" x2="1446" y2="31.5" fill="rgb(0, 0, 0)" stroke="rgb(60, 60, 60)" stroke-width="1px" opacity="0.25"></line><line x1="0" y1="0" x2="1446" y2="0" fill="rgb(0, 0, 0)" stroke="rgb(60, 60, 60)" stroke-width="1px" opacity="0.25"></line></g></g></g><g><g><line x1="0" y1="346.5" x2="1446" y2="346.5" fill="rgb(0, 0, 0)" stroke="rgb(153, 153, 153)" stroke-width="1.5px"></line></g></g><g><g><line x1="131.45454545454547" y1="0" x2="131.45454545454547" y2="378" fill="rgb(0, 0, 0)" stroke="rgb(153, 153, 153)" stroke-width="1.5px"></line></g></g><g><g><g><g><g><path stroke="rgb(204, 51, 17)" stroke-width="2px" d="M131.45454545454547,311.85000018775463L138.02727272727273,307.2562487013638L144.6,309.59999945972646L151.17272727272726,309.6689334596398L157.74545454545455,310.1595065783681L164.3181818181818,278.70831846601254L170.89090909090908,261.23587524404763L177.46363636363637,251.07079152488672L184.0363636363636,245.0821236920866L190.6090909090909,241.527783228668L197.18181818181816,239.40898374607394L203.75454545454545,238.14263443184444L210.3272727272727,237.38459135325516L216.9,236.93039963943167L223.47272727272727,236.6581125093575L230.04545454545453,236.49482219063944L236.61818181818182,236.3968774866357L243.1909090909091,236.33812127572173L249.76363636363638,236.30287136846414L256.3363636363636,236.28172279887178L262.90909090909093,236.26903415199138L269.4818181818182,236.2614211420096L276.05454545454546,236.25685340015147L282.6272727272727,236.2541127781233L289.2,236.25246841321754L295.7727272727273,236.25148179726608L302.3454545454545,236.25088982877227L308.9181818181818,236.25053464806376L315.4909090909091,236.25032153977827L322.06363636363636,236.25019367485723L328.6363636363636,235.83011730075532L335.2090909090909,235.15807187907234L341.78181818181815,233.91484166617548L348.3545454545455,233.16890357643206L354.92727272727274,232.72134073626407L361.5,232.4528030370874L368.0727272727272,231.87168081729806L374.6454545454545,229.8430090836608L381.2181818181818,226.94580389163684L387.7909090909091,223.52748238048056L394.3636363636363,220.2164906773303L400.93636363636364,217.3898927027293L407.5090909090909,215.27393431926117L414.0818181818182,212.32436089145313L420.6545454545454,209.71461763609443L427.22727272727275,205.62877033106236L433.8,201.91726314978868L440.3727272727273,198.01035668815584L446.94545454545454,193.98621441338253L453.51818181818186,190.73172984963284L460.09090909090907,185.83903440500293L466.6636363636364,180.8034191409501L473.23636363636365,177.3620503830702L479.80909090909097,173.61723073051726L486.3818181818182,169.69034054115974L492.95454545454544,165.2342009200769L499.52727272727276,160.4605191501438L506.09999999999997,157.5963100881847L512.6727272727272,154.61778585263897L519.2454545454545,151.99067211239807L525.8181818181819,151.25440306716723L532.3909090909091,151.23264123948553L538.9636363636364,149.53958574504932L545.5363636363636,145.5837477420049L552.1090909090909,140.69024734343748L558.6818181818181,136.4941483059267L565.2545454545455,133.97648888342022L571.8272727272728,131.62589403100276L578.4,128.9555383211819L584.9727272727273,127.35332489528943L591.5454545454546,125.55199764084034L598.1181818181818,124.05120168871409L604.690909090909,121.89071780888275L611.2636363636364,118.91442908315685L617.8363636363636,116.70865624826445L624.4090909090909,114.12519374895868L630.9818181818182,112.57511624937518L637.5545454545455,111.22507015016834L644.1272727272727,109.99504289118744L650.7,107.99702773742854L657.2727272727273,105.95821944625965L663.8454545454546,104.3149348721015L670.4181818181818,102.48895741850782L676.9909090909091,101.39337094635164L683.5636363636363,101.15602617269991L690.1363636363636,100.59361219886688L696.709090909091,100.256163814567L703.2818181818183,100.05369478398711L709.8545454545455,99.9322133656392L716.4272727272728,99.85932451463043L723,99.81559120402517L729.5727272727272,99.78935121766204L736.1454545454544,100.61361393494292L742.7181818181818,100.26816485621265L749.290909090909,99.6408958095177L755.8636363636364,98.84453478204392L762.4363636363636,98.36671816555969L769.009090909091,96.40002979784197L775.5818181818182,94.38001757829784L782.1545454545454,94.42800904494169L788.7272727272726,94.45680392492801L795.3000000000001,94.89408045237656L801.8727272727273,95.1564463688457L808.4454545454545,95.31386591872712L815.0181818181818,95.82831724811285L821.5909090909091,96.13698804574426L828.1636363636364,95.90219092486632L834.7363636363636,95.76131265233954L841.3090909090909,95.67678568882349L847.8818181818181,95.62606951071382L854.4545454545455,96.01563940330487L861.0272727272727,96.24938133885945L867.6,95.96962690073548L874.1727272727272,95.38177463840424L880.7454545454545,95.0290632810055L887.3181818181819,93.9774372676527L893.8909090909091,93.34646165964097L900.4636363636363,92.96787629483401L907.0363636363637,92.7407250759498L913.6090909090909,92.60443434461928L920.1818181818181,92.52265990582094L926.7545454545455,92.47359524254199L933.3272727272728,92.44415644457462L939.9,92.42649316579417L946.4727272727273,92.41589519852585L953.0454545454545,92.40953641816492L959.6181818181819,92.8257207494051L966.1909090909091,93.07543134814921L972.7636363636364,93.22525770739577L979.3363636363636,93.3151535229436L985.9090909090909,93.36909101227235L992.4818181818182,93.4014535058696L999.0545454545455,93.00087140257119L1005.6272727272727,92.76052214059212L1012.1999999999999,92.61631258340464L1018.7727272727274,92.52978684909215L1025.3454545454545,92.8978710079615L1031.918181818182,92.69872190382631L1038.490909090909,92.5792324413452L1045.0636363636365,92.50753876385653L1051.6363636363637,92.4645225573633L1058.209090909091,92.43871283346743L1064.7818181818182,92.42322699912984L1071.3545454545456,92.41393549852728L1077.9272727272728,92.40836059816576L1084.5,91.56501645903529L1091.0727272727272,91.05900997555699L1097.6454545454544,90.3354064860132L1104.2181818181818,90.74124359120054L1110.790909090909,90.9847458543129L1117.3636363636363,90.71084761272357L1123.9363636363635,91.38650786668359L1130.509090909091,92.21190361851632L1137.081818181818,92.28714147015921L1143.6545454545455,91.49228498223135L1150.2272727272727,91.01537108947468L1156.8,90.30922315436385L1163.3727272727274,90.30553399275414L1169.9454545454546,90.72332009524513L1176.5181818181818,91.8139909556532L1183.0909090909092,92.46839347189814L1189.6636363636364,93.70103418055862L1196.2363636363636,93.60061940684136L1202.8090909090909,93.54037054261096L1209.381818181818,93.9242208235296L1215.9545454545455,94.15453099208071L1222.5272727272727,94.29271709321148L1229.1,93.95562915443304L1235.6727272727271,93.33337679170927L1242.2454545454545,92.96002537407497L1248.8181818181818,92.73601452349436L1255.390909090909,93.86160681151637L1261.9636363636364,94.53696218432958L1268.5363636363636,94.94217540801748L1275.109090909091,95.18530334223021L1281.6818181818182,94.91118050330113L1288.2545454545455,94.32670720048685L1294.8272727272729,93.97602321879828" style="fill: none;" fill="none"></path></g><g><path style="fill: none;" stroke="rgb(255, 112, 67)" stroke-width="2px" d="M131.45454545454547,312.7499996647239L138.02727272727273,315.5624994970858L144.6,311.83163237252404L151.17272727272726,313.28768345620483L157.74545454545455,304.2715119904607L164.3181818181818,300.27651601847737L170.89090909090908,281.3356879688618L177.46363636363637,271.231703024224L184.0363636363636,264.369870675991L190.6090909090909,258.4863474194752L197.18181818181816,256.78563865221145L203.75454545454545,256.67113232665463L210.3272727272727,254.80023437138283L216.9,250.97714522742118L223.47272727272727,251.38647809658448L230.04545454545453,248.93119473196992L236.61818181818182,251.95922777469758L243.1909090909091,252.87563005645967L249.76363636363638,253.42541185723042L256.3363636363636,251.95519378998972L262.90909090909093,251.9731151650971L269.4818181818182,251.08385782365508L276.05454545454546,250.5503109097653L282.6272727272727,251.13018779149994L289.2,252.37811654466242L295.7727272727273,250.42686520357051L302.3454545454545,249.25611652914364L308.9181818181818,248.55366809136797L315.4909090909091,249.93219986071279L322.06363636363636,246.25931974817985L328.6363636363636,243.15559025704377L335.2090909090909,239.4933527898776L341.78181818181815,238.19601236299454L348.3545454545455,233.81760825794552L354.92727272727274,224.89056426486334L361.5,224.03433962297015L368.0727272727272,221.72060493963517L374.6454545454545,215.8323625127635L381.2181818181818,209.59941910309703L387.7909090909091,208.55965103131487L394.3636363636363,207.93579018913513L400.93636363636364,198.56147046116564L407.5090909090909,199.23688388621983L414.0818181818182,198.74213011706948L420.6545454545454,195.7452798938323L427.22727272727275,195.7471696529133L433.8,192.14830372280377L440.3727272727273,184.58898073147554L446.94545454545454,183.65338672225897L453.51818181818186,185.79203203337272L460.09090909090907,178.97522158033448L466.6636363636364,172.18513359191112L473.23636363636365,161.8110792968217L479.80909090909097,160.08664457401716L486.3818181818182,152.7519897484798L492.95454545454544,150.15119299078003L499.52727272727276,152.1907147215849L506.09999999999997,147.1144262580296L512.6727272727272,145.86865682770124L519.2454545454545,148.72119495492782L525.8181818181819,143.2327182604169L532.3909090909091,136.33963245828713L538.9636363636364,136.70377883124212L545.5363636363636,136.92226665501514L552.1090909090909,134.35335763266517L558.6818181818181,132.81201221925517L565.2545454545455,131.8872049712092L571.8272727272728,127.73232083695834L578.4,118.9393888543708L584.9727272727273,119.06363309804578L591.5454545454546,112.83817814221368L598.1181818181818,119.90290452498431L604.690909090909,116.04174271499062L611.2636363636364,109.2250477747616L617.8363636363636,109.63502866485697L624.4090909090909,102.68101762806765L630.9818181818182,103.90860692903635L637.5545454545455,101.94516630318901L644.1272727272727,103.46709613410911L650.7,101.68025982623271L657.2727272727273,96.10815267708887L663.8454545454546,93.66489396659728L670.4181818181818,92.19893874030237L676.9909090909091,93.11936174214435L683.5636363636363,90.97161382663586L690.1363636363636,92.38296679394449L696.709090909091,90.52977685771594L703.2818181818183,89.41786289597877L709.8545454545455,86.0507203125079L716.4272727272728,85.83043090004446L723,87.49826090037067L729.5727272727272,84.89895911514304L736.1454545454544,89.63937203585834L742.7181818181818,87.08362386524516L749.290909090909,89.15017474830057L755.8636363636364,84.99010184490629L762.4363636363636,82.4940581028697L769.009090909091,82.796435505452L775.5818181818182,79.3778621615781L782.1545454545454,81.82671600948657L788.7272727272726,76.99602681619456L795.3000000000001,81.29761287106601L801.8727272727273,78.4785685809465L808.4454545454545,78.58713814449385L815.0181818181818,77.75228181381271L821.5909090909091,80.85136780082735L828.1636363636364,83.61081746184556L834.7363636363636,77.16648961880048L841.3090909090909,76.89989269839674L847.8818181818181,71.33993862311212L854.4545454545455,69.8039623155604L861.0272727272727,73.38237438526221L867.6,70.1294257040409L874.1727272727272,69.07765456411767L880.7454545454545,68.44659188016374L887.3181818181819,68.96795233860092L893.8909090909091,70.18077419265796L900.4636363636363,69.10846365728793L907.0363636363637,74.76507883810291L913.6090909090909,76.3590442987877L920.1818181818181,70.11542400435195L926.7545454545455,67.26925740668531L933.3272727272728,68.26155165451382L939.9,68.85692820321088L946.4727272727273,68.31415606361969L953.0454545454545,71.58849256528822L959.6181818181819,70.85309274967557L966.1909090909091,67.71185865387946L972.7636363636364,68.52711240283031L979.3363636363636,66.31627044577232L985.9090909090909,64.98976527153752L992.4818181818182,67.79386195241995L999.0545454545455,68.57631438195466L1005.6272727272727,67.24578970205641L1012.1999999999999,70.04747467954076L1018.7727272727274,63.628488026375294L1025.3454545454545,59.77709603447596L1031.918181818182,61.966258693569216L1038.490909090909,64.17975435783467L1045.0636363636365,63.70785561877494L1051.6363636363637,61.62471272753476L1058.209090909091,63.97482677821404L1064.7818181818182,63.584899071002496L1071.3545454545456,61.5509387988713L1077.9272727272728,63.93056242101596L1084.5,68.0583383109165L1091.0727272727272,62.43500620520069L1097.6454545454544,64.46100286481357L1104.2181818181818,65.67660086058129L1110.790909090909,62.80595987261859L1117.3636363636363,61.98357334865051L1123.9363636363635,64.19014315088344L1130.509090909091,62.814083315609366L1137.081818181818,59.288453208016506L1143.6545454545455,58.9730712810798L1150.2272727272727,58.78384212491767L1156.8,64.97030613325751L1163.3727272727274,63.282181105033885L1169.9454545454546,58.669306302676375L1176.5181818181818,58.60158313787571L1183.0909090909092,56.76095310137623L1189.6636363636364,54.75656950048182L1196.2363636363636,53.553939339945146L1202.8090909090909,54.632364891427414L1209.381818181818,52.579418505703075L1215.9545454545455,50.44765260545887L1222.5272727272727,50.96858920293141L1229.1,55.781156525832955L1235.6727272727271,53.26869348634631L1242.2454545454545,52.661213731463874L1248.8181818181818,50.496729740915384L1255.390909090909,52.79803913200959L1261.9636363636364,50.5788249812428L1268.5363636363636,52.847296276206066L1275.109090909091,56.008375190802894L1281.6818181818182,55.20502833313259L1288.2545454545455,54.72302021853034L1294.8272727272729,54.43381534976902" fill="none"></path></g></g></g></g><g opacity="0.2"><g><g><g><path stroke="rgb(204, 51, 17)" stroke-width="2px" d="M131.45454545454547,311.85000018775463L138.02727272727273,304.4999978095293L144.6,311.85000018775463L151.17272727272726,309.7499998435378L157.74545454545455,310.7999988421798L164.3181818181818,235.20000287890437L170.89090909090908,236.25000187754634L177.46363636363637,236.25000187754634L184.0363636363636,236.25000187754634L190.6090909090909,236.25000187754634L197.18181818181816,236.25000187754634L203.75454545454545,236.25000187754634L210.3272727272727,236.25000187754634L216.9,236.25000187754634L223.47272727272727,236.25000187754634L230.04545454545453,236.25000187754634L236.61818181818182,236.25000187754634L243.1909090909091,236.25000187754634L249.76363636363638,236.25000187754634L256.3363636363636,236.25000187754634L262.90909090909093,236.25000187754634L269.4818181818182,236.25000187754634L276.05454545454546,236.25000187754634L282.6272727272727,236.25000187754634L289.2,236.25000187754634L295.7727272727273,236.25000187754634L302.3454545454545,236.25000187754634L308.9181818181818,236.25000187754634L315.4909090909091,236.25000187754634L322.06363636363636,236.25000187754634L328.6363636363636,235.20000287890437L335.2090909090909,234.1500038802624L341.78181818181815,232.04999649524692L348.3545454545455,232.04999649524692L354.92727272727274,232.04999649524692L361.5,232.04999649524692L368.0727272727272,230.99999749660495L374.6454545454545,226.80000150203708L381.2181818181818,222.59999611973765L387.7909090909091,218.40000012516978L394.3636363636363,215.25000312924388L400.93636363636364,213.1499957442284L407.5090909090909,212.09999674558642L414.0818181818182,207.90000075101855L420.6545454545454,205.80000275373462L427.22727272727275,199.49999937415126L433.8,196.35000237822535L440.3727272727273,192.14999699592593L446.94545454545454,187.95000100135806L453.51818181818186,185.85000300407413L460.09090909090907,178.49999123811727L466.6636363636364,173.2499962449074L473.23636363636365,172.19999724626547L479.80909090909097,168.00000125169757L486.3818181818182,163.8000052571297L492.95454545454544,158.54999148845675L499.52727272727276,153.29999649524692L506.09999999999997,153.29999649524692L512.6727272727272,150.149999499321L519.2454545454545,148.0500015020371L525.8181818181819,150.149999499321L532.3909090909091,151.199998497963L538.9636363636364,147.0000025033951L545.5363636363636,139.64999073743826L552.1090909090909,133.34999674558645L558.6818181818181,130.19999974966055L565.2545454545455,130.19999974966055L571.8272727272728,128.10000175237658L578.4,124.95000475645068L584.9727272727273,124.95000475645068L591.5454545454546,122.85000675916675L598.1181818181818,121.80000776052475L604.690909090909,118.6499919891358L611.2636363636364,114.44999599456793L617.8363636363636,113.3999969959259L624.4090909090909,110.25L630.9818181818182,110.25L637.5545454545455,109.20000100135809L644.1272727272727,108.15000200271612L650.7,105.00000500679022L657.2727272727273,102.90000700950628L663.8454545454546,101.85000801086431L670.4181818181818,99.74999123811727L676.9909090909091,99.74999123811727L683.5636363636363,100.80000901222229L690.1363636363636,99.74999123811727L696.709090909091,99.74999123811727L703.2818181818183,99.74999123811727L709.8545454545455,99.74999123811727L716.4272727272728,99.74999123811727L723,99.74999123811727L729.5727272727272,99.74999123811727L736.1454545454544,101.85000801086431L742.7181818181818,99.74999123811727L749.290909090909,98.69999223947525L755.8636363636364,97.64999324083334L762.4363636363636,97.64999324083334L769.009090909091,93.44999724626547L775.5818181818182,91.34999924898153L782.1545454545454,94.49999624490744L788.7272727272726,94.49999624490744L795.3000000000001,95.54999524354935L801.8727272727273,95.54999524354935L808.4454545454545,95.54999524354935L815.0181818181818,96.59999424219137L821.5909090909091,96.59999424219137L828.1636363636364,95.54999524354935L834.7363636363636,95.54999524354935L841.3090909090909,95.54999524354935L847.8818181818181,95.54999524354935L854.4545454545455,96.59999424219137L861.0272727272727,96.59999424219137L867.6,95.54999524354935L874.1727272727272,94.49999624490744L880.7454545454545,94.49999624490744L887.3181818181819,92.3999982476235L893.8909090909091,92.3999982476235L900.4636363636363,92.3999982476235L907.0363636363637,92.3999982476235L913.6090909090909,92.3999982476235L920.1818181818181,92.3999982476235L926.7545454545455,92.3999982476235L933.3272727272728,92.3999982476235L939.9,92.3999982476235L946.4727272727273,92.3999982476235L953.0454545454545,92.3999982476235L959.6181818181819,93.44999724626547L966.1909090909091,93.44999724626547L972.7636363636364,93.44999724626547L979.3363636363636,93.44999724626547L985.9090909090909,93.44999724626547L992.4818181818182,93.44999724626547L999.0545454545455,92.3999982476235L1005.6272727272727,92.3999982476235L1012.1999999999999,92.3999982476235L1018.7727272727274,92.3999982476235L1025.3454545454545,93.44999724626547L1031.918181818182,92.3999982476235L1038.490909090909,92.3999982476235L1045.0636363636365,92.3999982476235L1051.6363636363637,92.3999982476235L1058.209090909091,92.3999982476235L1064.7818181818182,92.3999982476235L1071.3545454545456,92.3999982476235L1077.9272727272728,92.3999982476235L1084.5,90.30000025033956L1091.0727272727272,90.30000025033956L1097.6454545454544,89.2500012516976L1104.2181818181818,91.34999924898153L1110.790909090909,91.34999924898153L1117.3636363636363,90.30000025033956L1123.9363636363635,92.3999982476235L1130.509090909091,93.44999724626547L1137.081818181818,92.3999982476235L1143.6545454545455,90.30000025033956L1150.2272727272727,90.30000025033956L1156.8,89.2500012516976L1163.3727272727274,90.30000025033956L1169.9454545454546,91.34999924898153L1176.5181818181818,93.44999724626547L1183.0909090909092,93.44999724626547L1189.6636363636364,95.54999524354935L1196.2363636363636,93.44999724626547L1202.8090909090909,93.44999724626547L1209.381818181818,94.49999624490744L1215.9545454545455,94.49999624490744L1222.5272727272727,94.49999624490744L1229.1,93.44999724626547L1235.6727272727271,92.3999982476235L1242.2454545454545,92.3999982476235L1248.8181818181818,92.3999982476235L1255.390909090909,95.54999524354935L1261.9636363636364,95.54999524354935L1268.5363636363636,95.54999524354935L1275.109090909091,95.54999524354935L1281.6818181818182,94.49999624490744L1288.2545454545455,93.44999724626547L1294.8272727272729,93.44999724626547" style="fill: none;" fill="none"></path></g><g><path style="fill: none;" stroke="rgb(255, 112, 67)" stroke-width="2px" d="M131.45454545454547,312.7499996647239L138.02727272727273,317.249999396503L144.6,308.2499999329448L151.17272727272726,314.9999995306134L157.74545454545455,292.49999852478504L164.3181818181818,294.7499983906746L170.89090909090908,254.25000080466273L177.46363636363637,256.4999959766865L184.0363636363636,254.25000080466273L190.6090909090909,249.75000107288363L197.18181818181816,254.25000080466273L203.75454545454545,256.4999959766865L210.3272727272727,251.99999624490738L216.9,245.25000134110454L223.47272727272727,251.99999624490738L230.04545454545453,245.25000134110454L236.61818181818182,256.4999959766865L243.1909090909091,254.25000080466273L249.76363636363638,254.25000080466273L256.3363636363636,249.75000107288363L262.90909090909093,251.99999624490738L269.4818181818182,249.75000107288363L276.05454545454546,249.75000107288363L282.6272727272727,251.99999624490738L289.2,254.25000080466273L295.7727272727273,247.4999965131283L302.3454545454545,247.4999965131283L308.9181818181818,247.4999965131283L315.4909090909091,251.99999624490738L322.06363636363636,240.75000160932544L328.6363636363636,238.4999970495701L335.2090909090909,233.999997317791L341.78181818181815,236.25000187754634L348.3545454545455,227.25000241398814L354.92727272727274,211.49999865889552L361.5,222.75000268220904L368.0727272727272,218.25000295042994L374.6454545454545,206.99999892711642L381.2181818181818,200.25000402331355L387.7909090909091,206.99999892711642L394.3636363636363,206.99999892711642L400.93636363636364,184.4999908804894L407.5090909090909,200.25000402331355L414.0818181818182,197.99999946355823L420.6545454545454,191.25000455975535L427.22727272727275,195.75000429153445L433.8,186.75000482797628L440.3727272727273,173.2499962449074L446.94545454545454,182.2499957084656L453.51818181818186,189.00000000000003L460.09090909090907,168.7500059008599L466.6636363636364,162.00000160932544L473.23636363636365,146.24999785423282L479.80909090909097,157.49999248981482L486.3818181818182,141.7500075101853L492.95454545454544,146.24999785423282L499.52727272727276,155.249997317791L506.09999999999997,139.49999356269842L512.6727272727272,144.00000268220904L519.2454545454545,153.00000214576724L525.8181818181819,135.00000321865085L532.3909090909091,126.00000375509265L538.9636363636364,137.24999839067462L545.5363636363636,137.24999839067462L552.1090909090909,130.49999409914022L558.6818181818181,130.49999409914022L565.2545454545455,130.49999409914022L571.8272727272728,121.49999463558203L578.4,105.7499908804894L584.9727272727273,119.2499994635582L591.5454545454546,103.49999570846563L598.1181818181818,130.49999409914022L604.690909090909,110.25L611.2636363636364,99.00000536441809L617.8363636363636,110.25L624.4090909090909,92.25000107288366L630.9818181818182,105.7499908804894L637.5545454545455,99.00000536441809L644.1272727272727,105.7499908804894L650.7,99.00000536441809L657.2727272727273,87.74999195337301L663.8454545454546,90.00000590085989L670.4181818181818,90.00000590085989L676.9909090909091,94.49999624490744L683.5636363636363,87.74999195337301L690.1363636363636,94.49999624490744L696.709090909091,87.74999195337301L703.2818181818183,87.74999195337301L709.8545454545455,81.00000643730169L716.4272727272728,85.49999678134924L723,90.00000590085989L729.5727272727272,81.00000643730169L736.1454545454544,96.74999141693121L742.7181818181818,83.25000160932547L749.290909090909,92.25000107288366L755.8636363636364,78.74999248981482L762.4363636363636,78.74999248981482L769.009090909091,83.25000160932547L775.5818181818182,74.25000214576727L782.1545454545454,85.49999678134924L788.7272727272726,69.74999302625662L795.3000000000001,87.74999195337301L801.8727272727273,74.25000214576727L808.4454545454545,78.74999248981482L815.0181818181818,76.49999731779104L821.5909090909091,85.49999678134924L828.1636363636364,87.74999195337301L834.7363636363636,67.49999785423284L841.3090909090909,76.49999731779104L847.8818181818181,63.0000075101853L854.4545454545455,67.49999785423284L861.0272727272727,78.74999248981482L867.6,65.25000268220907L874.1727272727272,67.49999785423284L880.7454545454545,67.49999785423284L887.3181818181819,69.74999302625662L893.8909090909091,72.0000069737435L900.4636363636363,67.49999785423284L907.0363636363637,83.25000160932547L913.6090909090909,78.74999248981482L920.1818181818181,60.749993562698364L926.7545454545455,63.0000075101853L933.3272727272728,69.74999302625662L939.9,69.74999302625662L946.4727272727273,67.49999785423284L953.0454545454545,76.49999731779104L959.6181818181819,69.74999302625662L966.1909090909091,63.0000075101853L972.7636363636364,69.74999302625662L979.3363636363636,63.0000075101853L985.9090909090909,63.0000075101853L992.4818181818182,72.0000069737435L999.0545454545455,69.74999302625662L1005.6272727272727,65.25000268220907L1012.1999999999999,74.25000214576727L1018.7727272727274,54.000008046627045L1025.3454545454545,54.000008046627045L1031.918181818182,65.25000268220907L1038.490909090909,67.49999785423284L1045.0636363636365,63.0000075101853L1051.6363636363637,58.49999839067459L1058.209090909091,67.49999785423284L1064.7818181818182,63.0000075101853L1071.3545454545456,58.49999839067459L1077.9272727272728,67.49999785423284L1084.5,74.25000214576727L1091.0727272727272,54.000008046627045L1097.6454545454544,67.49999785423284L1104.2181818181818,67.49999785423284L1110.790909090909,58.49999839067459L1117.3636363636363,60.749993562698364L1123.9363636363635,67.49999785423284L1130.509090909091,60.749993562698364L1137.081818181818,54.000008046627045L1143.6545454545455,58.49999839067459L1150.2272727272727,58.49999839067459L1156.8,74.25000214576727L1163.3727272727274,60.749993562698364L1169.9454545454546,51.74999409914017L1176.5181818181818,58.49999839067459L1183.0909090909092,54.000008046627045L1189.6636363636364,51.74999409914017L1196.2363636363636,51.74999409914017L1202.8090909090909,56.25000321865082L1209.381818181818,49.499998927116394L1215.9545454545455,47.25000375509262L1222.5272727272727,51.74999409914017L1229.1,63.0000075101853L1235.6727272727271,49.499998927116394L1242.2454545454545,51.74999409914017L1248.8181818181818,47.25000375509262L1255.390909090909,56.25000321865082L1261.9636363636364,47.25000375509262L1268.5363636363636,56.25000321865082L1275.109090909091,60.749993562698364L1281.6818181818182,54.000008046627045L1288.2545454545455,54.000008046627045L1294.8272727272729,54.000008046627045" fill="none"></path></g></g></g></g></g></g><g transform="translate(50, 378)" clip-path="url(#clip_1)"><clipPath id="clip_1"><rect width="1446" height="22"></rect></clipPath><g><g><line x1="0" y1="0" x2="0" y2="5" style="visibility: inherit;" fill="rgb(0, 0, 0)" stroke="rgb(204, 204, 204)" stroke-width="1px"></line><line x1="131.45454545454547" y1="0" x2="131.45454545454547" y2="5" style="visibility: inherit;" fill="rgb(0, 0, 0)" stroke="rgb(204, 204, 204)" stroke-width="1px"></line><line x1="262.90909090909093" y1="0" x2="262.90909090909093" y2="5" style="visibility: inherit;" fill="rgb(0, 0, 0)" stroke="rgb(204, 204, 204)" stroke-width="1px"></line><line x1="394.3636363636363" y1="0" x2="394.3636363636363" y2="5" style="visibility: inherit;" fill="rgb(0, 0, 0)" stroke="rgb(204, 204, 204)" stroke-width="1px"></line><line x1="525.8181818181819" y1="0" x2="525.8181818181819" y2="5" style="visibility: inherit;" fill="rgb(0, 0, 0)" stroke="rgb(204, 204, 204)" stroke-width="1px"></line><line x1="657.2727272727273" y1="0" x2="657.2727272727273" y2="5" style="visibility: inherit;" fill="rgb(0, 0, 0)" stroke="rgb(204, 204, 204)" stroke-width="1px"></line><line x1="788.7272727272726" y1="0" x2="788.7272727272726" y2="5" style="visibility: inherit;" fill="rgb(0, 0, 0)" stroke="rgb(204, 204, 204)" stroke-width="1px"></line><line x1="920.1818181818181" y1="0" x2="920.1818181818181" y2="5" style="visibility: inherit;" fill="rgb(0, 0, 0)" stroke="rgb(204, 204, 204)" stroke-width="1px"></line><line x1="1051.6363636363637" y1="0" x2="1051.6363636363637" y2="5" style="visibility: inherit;" fill="rgb(0, 0, 0)" stroke="rgb(204, 204, 204)" stroke-width="1px"></line><line x1="1183.0909090909092" y1="0" x2="1183.0909090909092" y2="5" style="visibility: inherit;" fill="rgb(0, 0, 0)" stroke="rgb(204, 204, 204)" stroke-width="1px"></line><line x1="1314.5454545454545" y1="0" x2="1314.5454545454545" y2="5" style="visibility: inherit;" fill="rgb(0, 0, 0)" stroke="rgb(204, 204, 204)" stroke-width="1px"></line><line x1="1446" y1="0" x2="1446" y2="5" style="visibility: inherit;" fill="rgb(0, 0, 0)" stroke="rgb(204, 204, 204)" stroke-width="1px"></line></g><g transform="translate(0, 8)"><text x="0" y="0" dx="0em" dy="0.95em" style="text-anchor: middle; visibility: hidden; font-family: &quot;Helvetica Neue&quot;, sans-serif; font-size: 12px; font-weight: 200;" fill="rgb(50, 49, 63)" stroke="none" stroke-width="1px">-20</text><text x="131.45454545454547" y="0" dx="0em" dy="0.95em" style="text-anchor: middle; visibility: inherit; font-family: &quot;Helvetica Neue&quot;, sans-serif; font-size: 12px; font-weight: 200;" fill="rgb(50, 49, 63)" stroke="none" stroke-width="1px">0</text><text x="262.90909090909093" y="0" dx="0em" dy="0.95em" style="text-anchor: middle; visibility: inherit; font-family: &quot;Helvetica Neue&quot;, sans-serif; font-size: 12px; font-weight: 200;" fill="rgb(50, 49, 63)" stroke="none" stroke-width="1px">20</text><text x="394.3636363636363" y="0" dx="0em" dy="0.95em" style="text-anchor: middle; visibility: inherit; font-family: &quot;Helvetica Neue&quot;, sans-serif; font-size: 12px; font-weight: 200;" fill="rgb(50, 49, 63)" stroke="none" stroke-width="1px">40</text><text x="525.8181818181819" y="0" dx="0em" dy="0.95em" style="text-anchor: middle; visibility: inherit; font-family: &quot;Helvetica Neue&quot;, sans-serif; font-size: 12px; font-weight: 200;" fill="rgb(50, 49, 63)" stroke="none" stroke-width="1px">60</text><text x="657.2727272727273" y="0" dx="0em" dy="0.95em" style="text-anchor: middle; visibility: inherit; font-family: &quot;Helvetica Neue&quot;, sans-serif; font-size: 12px; font-weight: 200;" fill="rgb(50, 49, 63)" stroke="none" stroke-width="1px">80</text><text x="788.7272727272726" y="0" dx="0em" dy="0.95em" style="text-anchor: middle; visibility: inherit; font-family: &quot;Helvetica Neue&quot;, sans-serif; font-size: 12px; font-weight: 200;" fill="rgb(50, 49, 63)" stroke="none" stroke-width="1px">100</text><text x="920.1818181818181" y="0" dx="0em" dy="0.95em" style="text-anchor: middle; visibility: inherit; font-family: &quot;Helvetica Neue&quot;, sans-serif; font-size: 12px; font-weight: 200;" fill="rgb(50, 49, 63)" stroke="none" stroke-width="1px">120</text><text x="1051.6363636363637" y="0" dx="0em" dy="0.95em" style="text-anchor: middle; visibility: inherit; font-family: &quot;Helvetica Neue&quot;, sans-serif; font-size: 12px; font-weight: 200;" fill="rgb(50, 49, 63)" stroke="none" stroke-width="1px">140</text><text x="1183.0909090909092" y="0" dx="0em" dy="0.95em" style="text-anchor: middle; visibility: inherit; font-family: &quot;Helvetica Neue&quot;, sans-serif; font-size: 12px; font-weight: 200;" fill="rgb(50, 49, 63)" stroke="none" stroke-width="1px">160</text><text x="1314.5454545454545" y="0" dx="0em" dy="0.95em" style="text-anchor: middle; visibility: inherit; font-family: &quot;Helvetica Neue&quot;, sans-serif; font-size: 12px; font-weight: 200;" fill="rgb(50, 49, 63)" stroke="none" stroke-width="1px">180</text><text x="1446" y="0" dx="0em" dy="0.95em" style="text-anchor: middle; visibility: hidden; font-family: &quot;Helvetica Neue&quot;, sans-serif; font-size: 12px; font-weight: 200;" fill="rgb(50, 49, 63)" stroke="none" stroke-width="1px">200</text></g><line x1="0" y1="0" x2="1446" y2="0" fill="rgb(0, 0, 0)" stroke="rgb(204, 204, 204)" stroke-width="1px"></line></g></g></g></g></svg>