<svg viewBox="0 0 1496 400" xmlns="http://www.w3.org/2000/svg"><g><g><g><g><g><line x1="50" y1="378" x2="45" y2="378" style="visibility: inherit;" fill="rgb(0, 0, 0)" stroke="rgb(204, 204, 204)" stroke-width="1px"></line><line x1="50" y1="348.9230769230769" x2="45" y2="348.9230769230769" style="visibility: inherit;" fill="rgb(0, 0, 0)" stroke="rgb(204, 204, 204)" stroke-width="1px"></line><line x1="50" y1="319.8461538461538" x2="45" y2="319.8461538461538" style="visibility: inherit;" fill="rgb(0, 0, 0)" stroke="rgb(204, 204, 204)" stroke-width="1px"></line><line x1="50" y1="290.7692307692308" x2="45" y2="290.7692307692308" style="visibility: inherit;" fill="rgb(0, 0, 0)" stroke="rgb(204, 204, 204)" stroke-width="1px"></line><line x1="50" y1="261.6923076923077" x2="45" y2="261.6923076923077" style="visibility: inherit;" fill="rgb(0, 0, 0)" stroke="rgb(204, 204, 204)" stroke-width="1px"></line><line x1="50" y1="232.61538461538464" x2="45" y2="232.61538461538464" style="visibility: inherit;" fill="rgb(0, 0, 0)" stroke="rgb(204, 204, 204)" stroke-width="1px"></line><line x1="50" y1="203.53846153846155" x2="45" y2="203.53846153846155" style="visibility: inherit;" fill="rgb(0, 0, 0)" stroke="rgb(204, 204, 204)" stroke-width="1px"></line><line x1="50" y1="174.46153846153848" x2="45" y2="174.46153846153848" style="visibility: inherit;" fill="rgb(0, 0, 0)" stroke="rgb(204, 204, 204)" stroke-width="1px"></line><line x1="50" y1="145.38461538461542" x2="45" y2="145.38461538461542" style="visibility: inherit;" fill="rgb(0, 0, 0)" stroke="rgb(204, 204, 204)" stroke-width="1px"></line><line x1="50" y1="116.30769230769232" x2="45" y2="116.30769230769232" style="visibility: inherit;" fill="rgb(0, 0, 0)" stroke="rgb(204, 204, 204)" stroke-width="1px"></line><line x1="50" y1="87.23076923076928" x2="45" y2="87.23076923076928" style="visibility: inherit;" fill="rgb(0, 0, 0)" stroke="rgb(204, 204, 204)" stroke-width="1px"></line><line x1="50" y1="58.15384615384613" x2="45" y2="58.15384615384613" style="visibility: inherit;" fill="rgb(0, 0, 0)" stroke="rgb(204, 204, 204)" stroke-width="1px"></line><line x1="50" y1="29.076923076923038" x2="45" y2="29.076923076923038" style="visibility: inherit;" fill="rgb(0, 0, 0)" stroke="rgb(204, 204, 204)" stroke-width="1px"></line><line x1="50" y1="0" x2="45" y2="0" style="visibility: inherit;" fill="rgb(0, 0, 0)" stroke="rgb(204, 204, 204)" stroke-width="1px"></line></g><g transform="translate(40, 0)"><text x="0" y="378" dx="0em" dy="0.3em" style="text-anchor: end; visibility: hidden; font-family: &quot;Helvetica Neue&quot;, sans-serif; font-size: 12px; font-weight: 200;" fill="rgb(50, 49, 63)" stroke="none" stroke-width="1px">-0.1</text><text x="0" y="348.9230769230769" dx="0em" dy="0.3em" style="text-anchor: end; visibility: inherit; font-family: &quot;Helvetica Neue&quot;, sans-serif; font-size: 12px; font-weight: 200;" fill="rgb(50, 49, 63)" stroke="none" stroke-width="1px">0</text><text x="0" y="319.8461538461538" dx="0em" dy="0.3em" style="text-anchor: end; visibility: inherit; font-family: &quot;Helvetica Neue&quot;, sans-serif; font-size: 12px; font-weight: 200;" fill="rgb(50, 49, 63)" stroke="none" stroke-width="1px">0.1</text><text x="0" y="290.7692307692308" dx="0em" dy="0.3em" style="text-anchor: end; visibility: inherit; font-family: &quot;Helvetica Neue&quot;, sans-serif; font-size: 12px; font-weight: 200;" fill="rgb(50, 49, 63)" stroke="none" stroke-width="1px">0.2</text><text x="0" y="261.6923076923077" dx="0em" dy="0.3em" style="text-anchor: end; visibility: inherit; font-family: &quot;Helvetica Neue&quot;, sans-serif; font-size: 12px; font-weight: 200;" fill="rgb(50, 49, 63)" stroke="none" stroke-width="1px">0.3</text><text x="0" y="232.61538461538464" dx="0em" dy="0.3em" style="text-anchor: end; visibility: inherit; font-family: &quot;Helvetica Neue&quot;, sans-serif; font-size: 12px; font-weight: 200;" fill="rgb(50, 49, 63)" stroke="none" stroke-width="1px">0.4</text><text x="0" y="203.53846153846155" dx="0em" dy="0.3em" style="text-anchor: end; visibility: inherit; font-family: &quot;Helvetica Neue&quot;, sans-serif; font-size: 12px; font-weight: 200;" fill="rgb(50, 49, 63)" stroke="none" stroke-width="1px">0.5</text><text x="0" y="174.46153846153848" dx="0em" dy="0.3em" style="text-anchor: end; visibility: inherit; font-family: &quot;Helvetica Neue&quot;, sans-serif; font-size: 12px; font-weight: 200;" fill="rgb(50, 49, 63)" stroke="none" stroke-width="1px">0.6</text><text x="0" y="145.38461538461542" dx="0em" dy="0.3em" style="text-anchor: end; visibility: inherit; font-family: &quot;Helvetica Neue&quot;, sans-serif; font-size: 12px; font-weight: 200;" fill="rgb(50, 49, 63)" stroke="none" stroke-width="1px">0.7</text><text x="0" y="116.30769230769232" dx="0em" dy="0.3em" style="text-anchor: end; visibility: inherit; font-family: &quot;Helvetica Neue&quot;, sans-serif; font-size: 12px; font-weight: 200;" fill="rgb(50, 49, 63)" stroke="none" stroke-width="1px">0.8</text><text x="0" y="87.23076923076928" dx="0em" dy="0.3em" style="text-anchor: end; visibility: inherit; font-family: &quot;Helvetica Neue&quot;, sans-serif; font-size: 12px; font-weight: 200;" fill="rgb(50, 49, 63)" stroke="none" stroke-width="1px">0.9</text><text x="0" y="58.15384615384613" dx="0em" dy="0.3em" style="text-anchor: end; visibility: inherit; font-family: &quot;Helvetica Neue&quot;, sans-serif; font-size: 12px; font-weight: 200;" fill="rgb(50, 49, 63)" stroke="none" stroke-width="1px">1</text><text x="0" y="29.076923076923038" dx="0em" dy="0.3em" style="text-anchor: end; visibility: inherit; font-family: &quot;Helvetica Neue&quot;, sans-serif; font-size: 12px; font-weight: 200;" fill="rgb(50, 49, 63)" stroke="none" stroke-width="1px">1.1</text><text x="0" y="0" dx="0em" dy="0.3em" style="text-anchor: end; visibility: hidden; font-family: &quot;Helvetica Neue&quot;, sans-serif; font-size: 12px; font-weight: 200;" fill="rgb(50, 49, 63)" stroke="none" stroke-width="1px">1.2</text></g><line x1="50" y1="0" x2="50" y2="378" fill="rgb(0, 0, 0)" stroke="rgb(204, 204, 204)" stroke-width="1px"></line></g></g><g transform="translate(50, 0)" clip-path="url(#clip_0)"><clipPath id="clip_0"><rect width="1446" height="378"></rect></clipPath><g><g><g><line x1="0" y1="0" x2="0" y2="378" fill="rgb(0, 0, 0)" stroke="rgb(60, 60, 60)" stroke-width="1px" opacity="0.25"></line><line x1="131.45454545454547" y1="0" x2="131.45454545454547" y2="378" fill="rgb(0, 0, 0)" stroke="rgb(60, 60, 60)" stroke-width="1px" opacity="0.25"></line><line x1="262.90909090909093" y1="0" x2="262.90909090909093" y2="378" fill="rgb(0, 0, 0)" stroke="rgb(60, 60, 60)" stroke-width="1px" opacity="0.25"></line><line x1="394.3636363636363" y1="0" x2="394.3636363636363" y2="378" fill="rgb(0, 0, 0)" stroke="rgb(60, 60, 60)" stroke-width="1px" opacity="0.25"></line><line x1="525.8181818181819" y1="0" x2="525.8181818181819" y2="378" fill="rgb(0, 0, 0)" stroke="rgb(60, 60, 60)" stroke-width="1px" opacity="0.25"></line><line x1="657.2727272727273" y1="0" x2="657.2727272727273" y2="378" fill="rgb(0, 0, 0)" stroke="rgb(60, 60, 60)" stroke-width="1px" opacity="0.25"></line><line x1="788.7272727272726" y1="0" x2="788.7272727272726" y2="378" fill="rgb(0, 0, 0)" stroke="rgb(60, 60, 60)" stroke-width="1px" opacity="0.25"></line><line x1="920.1818181818181" y1="0" x2="920.1818181818181" y2="378" fill="rgb(0, 0, 0)" stroke="rgb(60, 60, 60)" stroke-width="1px" opacity="0.25"></line><line x1="1051.6363636363637" y1="0" x2="1051.6363636363637" y2="378" fill="rgb(0, 0, 0)" stroke="rgb(60, 60, 60)" stroke-width="1px" opacity="0.25"></line><line x1="1183.0909090909092" y1="0" x2="1183.0909090909092" y2="378" fill="rgb(0, 0, 0)" stroke="rgb(60, 60, 60)" stroke-width="1px" opacity="0.25"></line><line x1="1314.5454545454545" y1="0" x2="1314.5454545454545" y2="378" fill="rgb(0, 0, 0)" stroke="rgb(60, 60, 60)" stroke-width="1px" opacity="0.25"></line><line x1="1446" y1="0" x2="1446" y2="378" fill="rgb(0, 0, 0)" stroke="rgb(60, 60, 60)" stroke-width="1px" opacity="0.25"></line></g><g><line x1="0" y1="378" x2="1446" y2="378" fill="rgb(0, 0, 0)" stroke="rgb(60, 60, 60)" stroke-width="1px" opacity="0.25"></line><line x1="0" y1="348.9230769230769" x2="1446" y2="348.9230769230769" fill="rgb(0, 0, 0)" stroke="rgb(60, 60, 60)" stroke-width="1px" opacity="0.25"></line><line x1="0" y1="319.8461538461538" x2="1446" y2="319.8461538461538" fill="rgb(0, 0, 0)" stroke="rgb(60, 60, 60)" stroke-width="1px" opacity="0.25"></line><line x1="0" y1="290.7692307692308" x2="1446" y2="290.7692307692308" fill="rgb(0, 0, 0)" stroke="rgb(60, 60, 60)" stroke-width="1px" opacity="0.25"></line><line x1="0" y1="261.6923076923077" x2="1446" y2="261.6923076923077" fill="rgb(0, 0, 0)" stroke="rgb(60, 60, 60)" stroke-width="1px" opacity="0.25"></line><line x1="0" y1="232.61538461538464" x2="1446" y2="232.61538461538464" fill="rgb(0, 0, 0)" stroke="rgb(60, 60, 60)" stroke-width="1px" opacity="0.25"></line><line x1="0" y1="203.53846153846155" x2="1446" y2="203.53846153846155" fill="rgb(0, 0, 0)" stroke="rgb(60, 60, 60)" stroke-width="1px" opacity="0.25"></line><line x1="0" y1="174.46153846153848" x2="1446" y2="174.46153846153848" fill="rgb(0, 0, 0)" stroke="rgb(60, 60, 60)" stroke-width="1px" opacity="0.25"></line><line x1="0" y1="145.38461538461542" x2="1446" y2="145.38461538461542" fill="rgb(0, 0, 0)" stroke="rgb(60, 60, 60)" stroke-width="1px" opacity="0.25"></line><line x1="0" y1="116.30769230769232" x2="1446" y2="116.30769230769232" fill="rgb(0, 0, 0)" stroke="rgb(60, 60, 60)" stroke-width="1px" opacity="0.25"></line><line x1="0" y1="87.23076923076928" x2="1446" y2="87.23076923076928" fill="rgb(0, 0, 0)" stroke="rgb(60, 60, 60)" stroke-width="1px" opacity="0.25"></line><line x1="0" y1="58.15384615384613" x2="1446" y2="58.15384615384613" fill="rgb(0, 0, 0)" stroke="rgb(60, 60, 60)" stroke-width="1px" opacity="0.25"></line><line x1="0" y1="29.076923076923038" x2="1446" y2="29.076923076923038" fill="rgb(0, 0, 0)" stroke="rgb(60, 60, 60)" stroke-width="1px" opacity="0.25"></line><line x1="0" y1="0" x2="1446" y2="0" fill="rgb(0, 0, 0)" stroke="rgb(60, 60, 60)" stroke-width="1px" opacity="0.25"></line></g></g></g><g><g><line x1="0" y1="348.9230769230769" x2="1446" y2="348.9230769230769" fill="rgb(0, 0, 0)" stroke="rgb(153, 153, 153)" stroke-width="1.5px"></line></g></g><g><g><line x1="131.45454545454547" y1="0" x2="131.45454545454547" y2="378" fill="rgb(0, 0, 0)" stroke="rgb(153, 153, 153)" stroke-width="1.5px"></line></g></g><g><g><g><g><g><path stroke="rgb(204, 51, 17)" stroke-width="2px" d="M131.45454545454547,303.3692308847721L138.02727272727273,303.3692308847721L144.6,303.3692308847721L151.17272727272726,303.3692308847721L157.74545454545455,303.3692308847721L164.3181818181818,303.3692308847721L170.89090909090908,303.3692308847721L177.46363636363637,303.3692308847721L184.0363636363636,303.3692308847721L190.6090909090909,303.3692308847721L197.18181818181816,288.58328038421286L203.75454545454545,261.8733649274708L210.3272727272727,242.39088094150634L216.9,236.53763518089642L223.47272727272727,238.45886850438478L230.04545454545453,241.16223903203488L236.61818181818182,243.17153074201212L243.1909090909091,244.7646193940081L249.76363636363638,245.72036903072618L256.3363636363636,246.29378153809182L262.90909090909093,246.63781562470018L269.4818181818182,246.84423124648401L276.05454545454546,246.96807888073894L282.6272727272727,247.04238683532915L289.2,247.08697138273897L295.7727272727273,247.11372203006144L302.3454545454545,247.12977238925055L308.9181818181818,247.13940259425053L315.4909090909091,247.14518071346563L322.06363636363636,246.76095555996343L328.6363636363636,246.14272853283984L335.2090909090909,244.99640496517844L341.78181818181815,244.30861088297007L348.3545454545455,243.89593445466494L354.92727272727274,242.87294471599938L361.5,242.25915088405503L368.0727272727272,241.8908745889402L374.6454545454545,241.66990881332995L381.2181818181818,241.53732934848892L387.7909090909091,240.6823977928166L394.3636363636363,238.6186711070604L400.93636363636364,235.05428000154657L407.5090909090909,230.97718218273647L414.0818181818182,228.14323155417657L420.6545454545454,226.05516923935443L427.22727272727275,223.2515640986629L433.8,219.63093785824742L440.3727272727273,215.52010242424078L446.94545454545454,211.89052188376053L453.51818181818186,208.93738968357718L460.09090909090907,206.00243454959647L466.6636363636364,201.52761790348848L473.23636363636365,196.5165693555886L479.80909090909097,191.95917247501222L486.3818181818182,187.67396659482802L492.95454545454544,183.16438337691793L499.52727272727276,180.0709345757341L506.09999999999997,177.05178948114371L512.6727272727272,174.46491854846948L519.2454545454545,172.52510405090496L525.8181818181819,171.36121535236632L532.3909090909091,169.11211438140265L538.9636363636364,166.98726992290426L545.5363636363636,163.38620468756588L552.1090909090909,160.45018167044265L558.6818181818181,157.52549204628835L565.2545454545455,153.4445266440351L571.8272727272728,151.3836393406433L578.4,149.37172308268796L584.9727272727273,147.7768813899547L591.5454545454546,146.43228443635456L598.1181818181818,144.8501423882743L604.690909090909,143.513165221466L611.2636363636364,141.93558811298217L617.8363636363636,140.98904184789183L624.4090909090909,139.6457302129174L630.9818181818182,136.90128354213223L637.5545454545455,134.47923166374085L644.1272727272727,132.25061666078585L650.7,130.91344765901283L657.2727272727273,129.72345431998892L663.8454545454546,128.62176637861447L670.4181818181818,127.18536973786954L676.9909090909091,125.93583981546246L683.5636363636363,124.79842992405813L690.1363636363636,123.72829205125544L696.709090909091,123.4739012655339L703.2818181818183,122.93357485614086L709.8545454545455,122.2216801400663L716.4272727272728,121.79454331042155L723,121.53826121263467L729.5727272727272,121.38449195396254L736.1454545454544,120.90453846079919L742.7181818181818,120.61656636490113L749.290909090909,120.05609116940224L755.8636363636364,119.33211411414271L762.4363636363636,118.89772788098702L769.009090909091,118.63709614109365L775.5818181818182,118.4807170971576L782.1545454545454,117.99919773283585L788.7272727272726,117.32259417628273L795.3000000000001,117.30432398031093L801.8727272727273,117.2933618627278L808.4454545454545,117.28678459217804L815.0181818181818,116.89514629188801L821.5909090909091,116.27247137375389L828.1636363636364,115.89886642287337L834.7363636363636,115.28701151438503L841.3090909090909,114.91989856929195L847.8818181818181,114.31193886427604L854.4545454545455,113.55947110330641L861.0272727272727,113.10799044672456L867.6,112.83710205277544L874.1727272727272,112.674569016406L880.7454545454545,112.57704919458433L887.3181818181819,112.51853730149134L893.8909090909091,112.09573822767544L900.4636363636363,111.84205878338588L907.0363636363637,111.68985111681218L913.6090909090909,111.59852651686793L920.1818181818181,111.54373175690142L926.7545454545455,111.51085490092146L933.3272727272728,111.49112878733354L939.9,111.47929311918074L946.4727272727273,112.24757559420931L953.0454545454545,112.70854507922644L959.6181818181819,112.98512677023672L966.1909090909091,113.15107578484293L972.7636363636364,113.63833713156669L979.3363636363636,113.93069393960099L985.9090909090909,114.10610802442159L992.4818181818182,114.21135647531389L999.0545454545455,114.27450554584931L1005.6272727272727,114.31239498817058L1012.1999999999999,114.33512865356334L1018.7727272727274,114.34876885279897L1025.3454545454545,114.35695297234037L1031.918181818182,114.3618634440652L1038.490909090909,113.97711778913998L1045.0636363636365,113.74627039618485L1051.6363636363637,113.60776196041178L1058.209090909091,113.91234883690805L1064.7818181818182,114.09510096280582L1071.3545454545456,114.2047522383445L1077.9272727272728,114.27054300366763L1084.5,113.92232552490145L1091.0727272727272,112.93801116172153L1097.6454545454544,112.3474225438136L1104.2181818181818,111.99306937306875L1110.790909090909,111.78045747062191L1117.3636363636363,111.65289032915376L1123.9363636363635,111.96404198223303L1130.509090909091,112.15073297408054L1137.081818181818,112.26274756918912L1143.6545454545455,111.94226438829412L1150.2272727272727,111.7499744797571L1156.8,112.02229247259504L1163.3727272727274,111.79799133033765L1169.9454545454546,111.66341064498317L1176.5181818181818,111.58266223377058L1183.0909090909092,111.53421318704295L1189.6636363636364,111.50514375900644L1196.2363636363636,111.10001016422439L1202.8090909090909,110.85693000735517L1209.381818181818,110.71108191323356L1215.9545454545455,110.62357305676068L1222.5272727272727,110.57106774287695L1229.1,110.53956455454664L1235.6727272727271,110.52066264154854L1242.2454545454545,110.50932149374961L1248.8181818181818,110.50251680507034L1255.390909090909,110.49843399186273L1261.9636363636364,110.49598430393814L1268.5363636363636,110.88220642914354L1275.109090909091,110.72624776630664L1281.6818181818182,110.6326725686045L1288.2545454545455,110.96421938794333L1294.8272727272729,111.55083941750672" style="fill: none;" fill="none"></path></g><g><path stroke="rgb(255, 112, 67)" stroke-width="2px" d="M131.45454545454547,290.76922990267093L138.02727272727273,290.76922990267093L144.6,290.76922990267093L151.17272727272726,290.76922990267093L157.74545454545455,290.76922990267093L164.3181818181818,290.76922990267093L170.89090909090908,290.76922990267093L177.46363636363637,290.76922990267093L184.0363636363636,290.76922990267093L190.6090909090909,290.76922990267093L197.18181818181816,287.43405325497463L203.75454545454545,267.9564959801407L210.3272727272727,243.81929570725535L216.9,231.02000871047866L223.47272727272727,227.5026604016949L230.04545454545453,228.71732461591594L236.61818181818182,233.60045119766843L243.1909090909091,241.5149194770778L249.76363636363638,249.58636521808182L256.3363636363636,254.42891787267405L262.90909090909093,257.3343361500491L269.4818181818182,259.9083281741496L276.05454545454546,261.45270170567284L282.6272727272727,262.3793180188637L289.2,262.9352849967469L295.7727272727273,263.26886417187177L302.3454545454545,263.46901131277025L308.9181818181818,262.758328041663L315.4909090909091,262.3319183583117L322.06363636363636,261.2453050170607L328.6363636363636,258.9317985831553L335.2090909090909,253.38984694924315L341.78181818181815,248.4031378093328L348.3545454545455,243.74957406767862L354.92727272727274,239.2958975169513L361.5,234.9621532558736L368.0727272727272,232.36190672783505L374.6454545454545,229.97099137009417L381.2181818181818,227.7056712449094L387.7909090909091,224.68494080830453L394.3636363636363,222.87250254892587L400.93636363636364,221.78503959422903L407.5090909090909,219.47102345876303L414.0818181818182,216.42107541512016L420.6545454545454,212.92956822659684L427.22727272727275,210.00389646553145L433.8,207.41772249460675L440.3727272727273,202.54294138703312L446.94545454545454,198.78730527441593L453.51818181818186,194.87238177812216L460.09090909090907,190.03111840347987L466.6636363636364,186.2955929305752L473.23636363636365,181.56196836996077L479.80909090909097,176.22949128919922L486.3818181818182,171.36846321200238L492.95454545454544,165.9595370888111L499.52727272727276,162.71418141489764L506.09999999999997,156.61312383741154L512.6727272727272,152.95248929092037L519.2454545454545,149.09457366676207L525.8181818181819,146.77982429226722L532.3909090909091,144.56020028695983L538.9636363636364,139.07458171063735L545.5363636363636,134.95244311671206L552.1090909090909,129.15608323535076L558.6818181818181,124.84749292592349L565.2545454545455,121.43157129213535L571.8272727272728,118.5512508637305L578.4,114.33074932981339L584.9727272727273,110.96768096133127L591.5454545454546,108.94983994024199L598.1181818181818,107.73913532758837L604.690909090909,107.01271255999626L611.2636363636364,106.57685889944105L617.8363636363636,106.31534670310788L624.4090909090909,105.32767193717609L630.9818181818182,103.9042926970065L637.5545454545455,100.55796280850916L644.1272727272727,98.55016487541076L650.7,97.34548611555181L657.2727272727273,96.62267885963632L663.8454545454546,96.18899450608706L670.4181818181818,95.098009513347L676.9909090909091,94.44341851770292L683.5636363636363,94.05066392031648L690.1363636363636,93.81501116188463L696.709090909091,91.18131716242988L703.2818181818183,88.77032638214655L709.8545454545455,87.32373191397653L716.4272727272728,85.62500778494268L723,84.60577330752233L729.5727272727272,83.99423262107024L736.1454545454544,83.62730820919887L742.7181818181818,83.40715356207613L749.290909090909,83.27506077380247L755.8636363636364,83.19580510083824L762.4363636363636,83.14825169705978L769.009090909091,83.11971965479256L775.5818181818182,83.1026004294323L782.1545454545454,83.09232889421617L788.7272727272726,82.25539852495461L795.3000000000001,81.75324030339766L801.8727272727273,81.45194537046348L808.4454545454545,79.60962658196064L815.0181818181818,78.50423530885894L821.5909090909091,77.84100054499788L828.1636363636364,77.44305968668124L834.7363636363636,76.37352772355939L841.3090909090909,75.7318085456863L847.8818181818181,74.5160095908306L854.4545454545455,73.78653021791717L861.0272727272727,73.34884259416913L867.6,73.08623001992032L874.1727272727272,72.92866247537097L880.7454545454545,72.83412194864138L887.3181818181819,71.94663018447181L893.8909090909091,71.41413512597L900.4636363636363,70.26386371025848L907.0363636363637,69.57370086083142L913.6090909090909,69.1596031511753L920.1818181818181,68.91114452538159L926.7545454545455,68.76206934990535L933.3272727272728,68.67262424461967L939.9,67.78818973331636L946.4727272727273,67.25752902653437L953.0454545454545,66.93913260246518L959.6181818181819,66.74809474802368L966.1909090909091,66.63347203535875L972.7636363636364,66.5646984077598L979.3363636363636,66.5234342312005L985.9090909090909,66.49867572526483L992.4818181818182,66.48382062170344L999.0545454545455,66.47490755956665L1005.6272727272727,66.46955972228454L1012.1999999999999,66.4663510199153L1018.7727272727274,66.46442579849366L1025.3454545454545,66.46327066564078L1031.918181818182,66.46257758592907L1038.490909090909,66.462161738102L1045.0636363636365,66.46191222940575L1051.6363636363637,66.46176252418798L1058.209090909091,66.46167270105735L1064.7818181818182,66.46161880717898L1071.3545454545456,66.4615864708519L1077.9272727272728,66.46156706905572L1084.5,66.461555427978L1091.0727272727272,66.46154844333137L1097.6454545454544,66.46154425254338L1104.2181818181818,66.46154173807054L1110.790909090909,66.46154022938691L1117.3636363636363,66.46153932417673L1123.9363636363635,66.46153878105059L1130.509090909091,66.46153845517489L1137.081818181818,66.4615382596495L1143.6545454545455,65.6307706942024L1150.2272727272727,65.13231015493415L1156.8,64.8332338313732L1163.3727272727274,64.65378803723661L1169.9454545454546,64.54612056075467L1176.5181818181818,64.4815200748655L1183.0909090909092,64.44275978333206L1189.6636363636364,64.4195036084119L1196.2363636363636,64.40554990345987L1202.8090909090909,64.3971776804886L1209.381818181818,64.39215434670587L1215.9545454545455,64.38914034643619L1222.5272727272727,64.3873319462744L1229.1,64.38624690617735L1235.6727272727271,64.3855958821191L1242.2454545454545,64.38520526768417L1248.8181818181818,64.38497089902319L1255.390909090909,64.38483027782661L1261.9636363636364,64.38474590510867L1268.5363636363636,64.38469528147795L1275.109090909091,64.38466490729945L1281.6818181818182,64.38464668279244L1288.2545454545455,64.38463574808816L1294.8272727272729,64.3846291872656" style="fill: none;" fill="none"></path></g></g></g></g><g opacity="0.2"><g><g><g><path stroke="rgb(204, 51, 17)" stroke-width="2px" d="M131.45454545454547,303.3692308847721L138.02727272727273,303.3692308847721L144.6,303.3692308847721L151.17272727272726,303.3692308847721L157.74545454545455,303.3692308847721L164.3181818181818,303.3692308847721L170.89090909090908,303.3692308847721L177.46363636363637,303.3692308847721L184.0363636363636,303.3692308847721L190.6090909090909,303.3692308847721L197.18181818181816,266.5384621161681L203.75454545454545,221.95384592276352L210.3272727272727,213.23076865306268L216.9,227.76923365776355L223.47272727272727,241.3384601519658L230.04545454545453,245.21538819716528L236.61818181818182,246.18461804206555L243.1909090909091,247.15384788696582L249.76363636363638,247.15384788696582L256.3363636363636,247.15384788696582L262.90909090909093,247.15384788696582L269.4818181818182,247.15384788696582L276.05454545454546,247.15384788696582L282.6272727272727,247.15384788696582L289.2,247.15384788696582L295.7727272727273,247.15384788696582L302.3454545454545,247.15384788696582L308.9181818181818,247.15384788696582L315.4909090909091,247.15384788696582L322.06363636363636,246.18461804206555L328.6363636363636,245.21538819716528L335.2090909090909,243.2769198417664L341.78181818181815,243.2769198417664L348.3545454545455,243.2769198417664L354.92727272727274,241.3384601519658L361.5,241.3384601519658L368.0727272727272,241.3384601519658L374.6454545454545,241.3384601519658L381.2181818181818,241.3384601519658L387.7909090909091,239.40000046216525L394.3636363636363,235.52308108256415L400.93636363636364,229.70769334756412L407.5090909090909,224.86153545746438L414.0818181818182,223.89230561256412L420.6545454545454,222.92307576766382L427.22727272727275,219.0461563880627L433.8,214.19999849796298L440.3727272727273,209.35384927346158L446.94545454545454,206.44615107316238L453.51818181818186,204.50769138336184L460.09090909090907,201.600001848661L466.6636363636364,194.81539293435904L473.23636363636365,188.99999653376065L479.80909090909097,185.12307715415955L486.3818181818182,181.24615777455844L492.95454545454544,176.40000855005704L499.52727272727276,175.43076137396008L506.09999999999997,172.52307183925925L512.6727272727272,170.58461214945868L519.2454545454545,169.61538230455838L525.8181818181819,169.61538230455838L532.3909090909091,165.73846292495728L538.9636363636364,163.80000323515674L545.5363636363636,157.98460683455838L552.1090909090909,156.0461471447578L558.6818181818181,153.13845761005697L565.2545454545455,147.3230785406553L571.8272727272728,148.29230838555557L578.4,146.353848695755L584.9727272727273,145.38461885085476L591.5454545454546,144.41538900595447L598.1181818181818,142.4769293161539L604.690909090909,141.50769947125366L611.2636363636364,139.56922245025635L617.8363636363636,139.56922245025635L624.4090909090909,137.6307627604558L630.9818181818182,132.7846135359544L637.5545454545455,130.84615384615384L644.1272727272727,128.9076941563533L650.7,128.9076941563533L657.2727272727273,127.93846431145303L663.8454545454546,126.96923446655273L670.4181818181818,125.0307747767522L676.9909090909091,124.06154493185193L683.5636363636363,123.09231508695163L690.1363636363636,122.12308524205139L696.709090909091,123.09231508695163L703.2818181818183,122.12308524205139L709.8545454545455,121.15383806595435L716.4272727272728,121.15383806595435L723,121.15383806595435L729.5727272727272,121.15383806595435L736.1454545454544,120.18460822105408L742.7181818181818,120.18460822105408L749.290909090909,119.21537837615381L755.8636363636364,118.24614853125354L762.4363636363636,118.24614853125354L769.009090909091,118.24614853125354L775.5818181818182,118.24614853125354L782.1545454545454,117.27691868635327L788.7272727272726,116.30768884145294L795.3000000000001,117.27691868635327L801.8727272727273,117.27691868635327L808.4454545454545,117.27691868635327L815.0181818181818,116.30768884145294L821.5909090909091,115.33845899655273L828.1636363636364,115.33845899655273L834.7363636363636,114.36922915165246L841.3090909090909,114.36922915165246L847.8818181818181,113.39999930675214L854.4545454545455,112.43076946185187L861.0272727272727,112.43076946185187L867.6,112.43076946185187L874.1727272727272,112.43076946185187L880.7454545454545,112.43076946185187L887.3181818181819,112.43076946185187L893.8909090909091,111.4615396169516L900.4636363636363,111.4615396169516L907.0363636363637,111.4615396169516L913.6090909090909,111.4615396169516L920.1818181818181,111.4615396169516L926.7545454545455,111.4615396169516L933.3272727272728,111.4615396169516L939.9,111.4615396169516L946.4727272727273,113.39999930675214L953.0454545454545,113.39999930675214L959.6181818181819,113.39999930675214L966.1909090909091,113.39999930675214L972.7636363636364,114.36922915165246L979.3363636363636,114.36922915165246L985.9090909090909,114.36922915165246L992.4818181818182,114.36922915165246L999.0545454545455,114.36922915165246L1005.6272727272727,114.36922915165246L1012.1999999999999,114.36922915165246L1018.7727272727274,114.36922915165246L1025.3454545454545,114.36922915165246L1031.918181818182,114.36922915165246L1038.490909090909,113.39999930675214L1045.0636363636365,113.39999930675214L1051.6363636363637,113.39999930675214L1058.209090909091,114.36922915165246L1064.7818181818182,114.36922915165246L1071.3545454545456,114.36922915165246L1077.9272727272728,114.36922915165246L1084.5,113.39999930675214L1091.0727272727272,111.4615396169516L1097.6454545454544,111.4615396169516L1104.2181818181818,111.4615396169516L1110.790909090909,111.4615396169516L1117.3636363636363,111.4615396169516L1123.9363636363635,112.43076946185187L1130.509090909091,112.43076946185187L1137.081818181818,112.43076946185187L1143.6545454545455,111.4615396169516L1150.2272727272727,111.4615396169516L1156.8,112.43076946185187L1163.3727272727274,111.4615396169516L1169.9454545454546,111.4615396169516L1176.5181818181818,111.4615396169516L1183.0909090909092,111.4615396169516L1189.6636363636364,111.4615396169516L1196.2363636363636,110.49230977205133L1202.8090909090909,110.49230977205133L1209.381818181818,110.49230977205133L1215.9545454545455,110.49230977205133L1222.5272727272727,110.49230977205133L1229.1,110.49230977205133L1235.6727272727271,110.49230977205133L1242.2454545454545,110.49230977205133L1248.8181818181818,110.49230977205133L1255.390909090909,110.49230977205133L1261.9636363636364,110.49230977205133L1268.5363636363636,111.4615396169516L1275.109090909091,110.49230977205133L1281.6818181818182,110.49230977205133L1288.2545454545455,111.4615396169516L1294.8272727272729,112.43076946185187" style="fill: none;" fill="none"></path></g><g><path stroke="rgb(255, 112, 67)" stroke-width="2px" d="M131.45454545454547,290.76922990267093L138.02727272727273,290.76922990267093L144.6,290.76922990267093L151.17272727272726,290.76922990267093L157.74545454545455,290.76922990267093L164.3181818181818,290.76922990267093L170.89090909090908,290.76922990267093L177.46363636363637,290.76922990267093L184.0363636363636,290.76922990267093L190.6090909090909,290.76922990267093L197.18181818181816,282.46153809015567L203.75454545454545,238.84615607445056L210.3272727272727,207.69230744471918L216.9,211.8461533509768L223.47272727272727,222.23077244942004L230.04545454545453,230.5384642619353L236.61818181818182,240.9230746947802L243.1909090909091,253.3846124135531L249.76363636363638,261.69230422606836L256.3363636363636,261.69230422606836L262.90909090909093,261.69230422606836L269.4818181818182,263.76923151199634L276.05454545454546,263.76923151199634L282.6272727272727,263.76923151199634L289.2,263.76923151199634L295.7727272727273,263.76923151199634L302.3454545454545,263.76923151199634L308.9181818181818,261.69230422606836L315.4909090909091,261.69230422606836L322.06363636363636,259.6153856057387L328.6363636363636,255.46153969948108L335.2090909090909,245.07692060103784L341.78181818181815,240.9230746947802L348.3545454545455,236.76922878852258L354.92727272727274,232.61538288226495L361.5,228.46153697600732L368.0727272727272,228.46153697600732L374.6454545454545,226.38461835567767L381.2181818181818,224.3076910697497L387.7909090909091,220.15384516349206L394.3636363636363,220.15384516349206L400.93636363636364,220.15384516349206L407.5090909090909,215.99999925723444L414.0818181818182,211.8461533509768L420.6545454545454,207.69230744471918L427.22727272727275,205.61538882438953L433.8,203.53846153846155L440.3727272727273,195.2307697259463L446.94545454545454,193.15385110561664L453.51818181818186,188.99999653376065L460.09090909090907,182.76922334157504L466.6636363636364,180.6923047212454L473.23636363636365,174.46153152905978L479.80909090909097,168.2307756680709L486.3818181818182,164.07692109621487L492.95454545454544,157.84614790402927L499.52727272727276,157.84614790402927L506.09999999999997,147.46153747118436L512.6727272727272,147.46153747118436L519.2454545454545,143.3077002305251L525.8181818181819,143.3077002305251L532.3909090909091,141.23076427899875L538.9636363636364,130.84615384615384L545.5363636363636,128.76923522582425L552.1090909090909,120.46154341330896L558.6818181818181,118.3846074617826L565.2545454545455,116.30768884145294L571.8272727272728,114.23077022112335L578.4,107.99999702893768L584.9727272727273,105.92307840860809L591.5454545454546,105.92307840860809L598.1181818181818,105.92307840860809L604.690909090909,105.92307840860809L611.2636363636364,105.92307840860809L617.8363636363636,105.92307840860809L624.4090909090909,103.84615978827844L630.9818181818182,101.76922383675208L637.5545454545455,95.53846797576318L644.1272727272727,95.53846797576318L650.7,95.53846797576318L657.2727272727273,95.53846797576318L663.8454545454546,95.53846797576318L670.4181818181818,93.46153202423682L676.9909090909091,93.46153202423682L683.5636363636363,93.46153202423682L690.1363636363636,93.46153202423682L696.709090909091,87.23077616324792L703.2818181818183,85.15384021172156L709.8545454545455,85.15384021172156L716.4272727272728,83.07692159139191L723,83.07692159139191L729.5727272727272,83.07692159139191L736.1454545454544,83.07692159139191L742.7181818181818,83.07692159139191L749.290909090909,83.07692159139191L755.8636363636364,83.07692159139191L762.4363636363636,83.07692159139191L769.009090909091,83.07692159139191L775.5818181818182,83.07692159139191L782.1545454545454,83.07692159139191L788.7272727272726,81.00000297106232L795.3000000000001,81.00000297106232L801.8727272727273,81.00000297106232L808.4454545454545,76.8461483992063L815.0181818181818,76.8461483992063L821.5909090909091,76.8461483992063L828.1636363636364,76.8461483992063L834.7363636363636,74.76922977887665L841.3090909090909,74.76922977887665L847.8818181818181,72.69231115854706L854.4545454545455,72.69231115854706L861.0272727272727,72.69231115854706L867.6,72.69231115854706L874.1727272727272,72.69231115854706L880.7454545454545,72.69231115854706L887.3181818181819,70.6153925382174L893.8909090909091,70.6153925382174L900.4636363636363,68.53845658669104L907.0363636363637,68.53845658669104L913.6090909090909,68.53845658669104L920.1818181818181,68.53845658669104L926.7545454545455,68.53845658669104L933.3272727272728,68.53845658669104L939.9,66.46153796636139L946.4727272727273,66.46153796636139L953.0454545454545,66.46153796636139L959.6181818181819,66.46153796636139L966.1909090909091,66.46153796636139L972.7636363636364,66.46153796636139L979.3363636363636,66.46153796636139L985.9090909090909,66.46153796636139L992.4818181818182,66.46153796636139L999.0545454545455,66.46153796636139L1005.6272727272727,66.46153796636139L1012.1999999999999,66.46153796636139L1018.7727272727274,66.46153796636139L1025.3454545454545,66.46153796636139L1031.918181818182,66.46153796636139L1038.490909090909,66.46153796636139L1045.0636363636365,66.46153796636139L1051.6363636363637,66.46153796636139L1058.209090909091,66.46153796636139L1064.7818181818182,66.46153796636139L1071.3545454545456,66.46153796636139L1077.9272727272728,66.46153796636139L1084.5,66.46153796636139L1091.0727272727272,66.46153796636139L1097.6454545454544,66.46153796636139L1104.2181818181818,66.46153796636139L1110.790909090909,66.46153796636139L1117.3636363636363,66.46153796636139L1123.9363636363635,66.46153796636139L1130.509090909091,66.46153796636139L1137.081818181818,66.46153796636139L1143.6545454545455,64.3846193460318L1150.2272727272727,64.3846193460318L1156.8,64.3846193460318L1163.3727272727274,64.3846193460318L1169.9454545454546,64.3846193460318L1176.5181818181818,64.3846193460318L1183.0909090909092,64.3846193460318L1189.6636363636364,64.3846193460318L1196.2363636363636,64.3846193460318L1202.8090909090909,64.3846193460318L1209.381818181818,64.3846193460318L1215.9545454545455,64.3846193460318L1222.5272727272727,64.3846193460318L1229.1,64.3846193460318L1235.6727272727271,64.3846193460318L1242.2454545454545,64.3846193460318L1248.8181818181818,64.3846193460318L1255.390909090909,64.3846193460318L1261.9636363636364,64.3846193460318L1268.5363636363636,64.3846193460318L1275.109090909091,64.3846193460318L1281.6818181818182,64.3846193460318L1288.2545454545455,64.3846193460318L1294.8272727272729,64.3846193460318" style="fill: none;" fill="none"></path></g></g></g></g></g></g><g transform="translate(50, 378)" clip-path="url(#clip_1)"><clipPath id="clip_1"><rect width="1446" height="22"></rect></clipPath><g><g><line x1="0" y1="0" x2="0" y2="5" style="visibility: inherit;" fill="rgb(0, 0, 0)" stroke="rgb(204, 204, 204)" stroke-width="1px"></line><line x1="131.45454545454547" y1="0" x2="131.45454545454547" y2="5" style="visibility: inherit;" fill="rgb(0, 0, 0)" stroke="rgb(204, 204, 204)" stroke-width="1px"></line><line x1="262.90909090909093" y1="0" x2="262.90909090909093" y2="5" style="visibility: inherit;" fill="rgb(0, 0, 0)" stroke="rgb(204, 204, 204)" stroke-width="1px"></line><line x1="394.3636363636363" y1="0" x2="394.3636363636363" y2="5" style="visibility: inherit;" fill="rgb(0, 0, 0)" stroke="rgb(204, 204, 204)" stroke-width="1px"></line><line x1="525.8181818181819" y1="0" x2="525.8181818181819" y2="5" style="visibility: inherit;" fill="rgb(0, 0, 0)" stroke="rgb(204, 204, 204)" stroke-width="1px"></line><line x1="657.2727272727273" y1="0" x2="657.2727272727273" y2="5" style="visibility: inherit;" fill="rgb(0, 0, 0)" stroke="rgb(204, 204, 204)" stroke-width="1px"></line><line x1="788.7272727272726" y1="0" x2="788.7272727272726" y2="5" style="visibility: inherit;" fill="rgb(0, 0, 0)" stroke="rgb(204, 204, 204)" stroke-width="1px"></line><line x1="920.1818181818181" y1="0" x2="920.1818181818181" y2="5" style="visibility: inherit;" fill="rgb(0, 0, 0)" stroke="rgb(204, 204, 204)" stroke-width="1px"></line><line x1="1051.6363636363637" y1="0" x2="1051.6363636363637" y2="5" style="visibility: inherit;" fill="rgb(0, 0, 0)" stroke="rgb(204, 204, 204)" stroke-width="1px"></line><line x1="1183.0909090909092" y1="0" x2="1183.0909090909092" y2="5" style="visibility: inherit;" fill="rgb(0, 0, 0)" stroke="rgb(204, 204, 204)" stroke-width="1px"></line><line x1="1314.5454545454545" y1="0" x2="1314.5454545454545" y2="5" style="visibility: inherit;" fill="rgb(0, 0, 0)" stroke="rgb(204, 204, 204)" stroke-width="1px"></line><line x1="1446" y1="0" x2="1446" y2="5" style="visibility: inherit;" fill="rgb(0, 0, 0)" stroke="rgb(204, 204, 204)" stroke-width="1px"></line></g><g transform="translate(0, 8)"><text x="0" y="0" dx="0em" dy="0.95em" style="text-anchor: middle; visibility: hidden; font-family: &quot;Helvetica Neue&quot;, sans-serif; font-size: 12px; font-weight: 200;" fill="rgb(50, 49, 63)" stroke="none" stroke-width="1px">-20</text><text x="131.45454545454547" y="0" dx="0em" dy="0.95em" style="text-anchor: middle; visibility: inherit; font-family: &quot;Helvetica Neue&quot;, sans-serif; font-size: 12px; font-weight: 200;" fill="rgb(50, 49, 63)" stroke="none" stroke-width="1px">0</text><text x="262.90909090909093" y="0" dx="0em" dy="0.95em" style="text-anchor: middle; visibility: inherit; font-family: &quot;Helvetica Neue&quot;, sans-serif; font-size: 12px; font-weight: 200;" fill="rgb(50, 49, 63)" stroke="none" stroke-width="1px">20</text><text x="394.3636363636363" y="0" dx="0em" dy="0.95em" style="text-anchor: middle; visibility: inherit; font-family: &quot;Helvetica Neue&quot;, sans-serif; font-size: 12px; font-weight: 200;" fill="rgb(50, 49, 63)" stroke="none" stroke-width="1px">40</text><text x="525.8181818181819" y="0" dx="0em" dy="0.95em" style="text-anchor: middle; visibility: inherit; font-family: &quot;Helvetica Neue&quot;, sans-serif; font-size: 12px; font-weight: 200;" fill="rgb(50, 49, 63)" stroke="none" stroke-width="1px">60</text><text x="657.2727272727273" y="0" dx="0em" dy="0.95em" style="text-anchor: middle; visibility: inherit; font-family: &quot;Helvetica Neue&quot;, sans-serif; font-size: 12px; font-weight: 200;" fill="rgb(50, 49, 63)" stroke="none" stroke-width="1px">80</text><text x="788.7272727272726" y="0" dx="0em" dy="0.95em" style="text-anchor: middle; visibility: inherit; font-family: &quot;Helvetica Neue&quot;, sans-serif; font-size: 12px; font-weight: 200;" fill="rgb(50, 49, 63)" stroke="none" stroke-width="1px">100</text><text x="920.1818181818181" y="0" dx="0em" dy="0.95em" style="text-anchor: middle; visibility: inherit; font-family: &quot;Helvetica Neue&quot;, sans-serif; font-size: 12px; font-weight: 200;" fill="rgb(50, 49, 63)" stroke="none" stroke-width="1px">120</text><text x="1051.6363636363637" y="0" dx="0em" dy="0.95em" style="text-anchor: middle; visibility: inherit; font-family: &quot;Helvetica Neue&quot;, sans-serif; font-size: 12px; font-weight: 200;" fill="rgb(50, 49, 63)" stroke="none" stroke-width="1px">140</text><text x="1183.0909090909092" y="0" dx="0em" dy="0.95em" style="text-anchor: middle; visibility: inherit; font-family: &quot;Helvetica Neue&quot;, sans-serif; font-size: 12px; font-weight: 200;" fill="rgb(50, 49, 63)" stroke="none" stroke-width="1px">160</text><text x="1314.5454545454545" y="0" dx="0em" dy="0.95em" style="text-anchor: middle; visibility: inherit; font-family: &quot;Helvetica Neue&quot;, sans-serif; font-size: 12px; font-weight: 200;" fill="rgb(50, 49, 63)" stroke="none" stroke-width="1px">180</text><text x="1446" y="0" dx="0em" dy="0.95em" style="text-anchor: middle; visibility: hidden; font-family: &quot;Helvetica Neue&quot;, sans-serif; font-size: 12px; font-weight: 200;" fill="rgb(50, 49, 63)" stroke="none" stroke-width="1px">200</text></g><line x1="0" y1="0" x2="1446" y2="0" fill="rgb(0, 0, 0)" stroke="rgb(204, 204, 204)" stroke-width="1px"></line></g></g></g></g></svg>