<svg viewBox="0 0 1496 400" xmlns="http://www.w3.org/2000/svg"><g><g><g><g><g><line x1="50" y1="378" x2="45" y2="378" style="visibility: inherit;" fill="rgb(0, 0, 0)" stroke="rgb(204, 204, 204)" stroke-width="1px"></line><line x1="50" y1="346.5" x2="45" y2="346.5" style="visibility: inherit;" fill="rgb(0, 0, 0)" stroke="rgb(204, 204, 204)" stroke-width="1px"></line><line x1="50" y1="315" x2="45" y2="315" style="visibility: inherit;" fill="rgb(0, 0, 0)" stroke="rgb(204, 204, 204)" stroke-width="1px"></line><line x1="50" y1="283.5" x2="45" y2="283.5" style="visibility: inherit;" fill="rgb(0, 0, 0)" stroke="rgb(204, 204, 204)" stroke-width="1px"></line><line x1="50" y1="252" x2="45" y2="252" style="visibility: inherit;" fill="rgb(0, 0, 0)" stroke="rgb(204, 204, 204)" stroke-width="1px"></line><line x1="50" y1="220.5" x2="45" y2="220.5" style="visibility: inherit;" fill="rgb(0, 0, 0)" stroke="rgb(204, 204, 204)" stroke-width="1px"></line><line x1="50" y1="189.00000000000003" x2="45" y2="189.00000000000003" style="visibility: inherit;" fill="rgb(0, 0, 0)" stroke="rgb(204, 204, 204)" stroke-width="1px"></line><line x1="50" y1="157.50000000000003" x2="45" y2="157.50000000000003" style="visibility: inherit;" fill="rgb(0, 0, 0)" stroke="rgb(204, 204, 204)" stroke-width="1px"></line><line x1="50" y1="126.00000000000006" x2="45" y2="126.00000000000006" style="visibility: inherit;" fill="rgb(0, 0, 0)" stroke="rgb(204, 204, 204)" stroke-width="1px"></line><line x1="50" y1="94.50000000000006" x2="45" y2="94.50000000000006" style="visibility: inherit;" fill="rgb(0, 0, 0)" stroke="rgb(204, 204, 204)" stroke-width="1px"></line><line x1="50" y1="63" x2="45" y2="63" style="visibility: inherit;" fill="rgb(0, 0, 0)" stroke="rgb(204, 204, 204)" stroke-width="1px"></line><line x1="50" y1="31.5" x2="45" y2="31.5" style="visibility: inherit;" fill="rgb(0, 0, 0)" stroke="rgb(204, 204, 204)" stroke-width="1px"></line><line x1="50" y1="0" x2="45" y2="0" style="visibility: inherit;" fill="rgb(0, 0, 0)" stroke="rgb(204, 204, 204)" stroke-width="1px"></line></g><g transform="translate(40, 0)"><text x="0" y="378" dx="0em" dy="0.3em" style="text-anchor: end; visibility: hidden; font-family: &quot;Helvetica Neue&quot;, sans-serif; font-size: 12px; font-weight: 200;" fill="rgb(50, 49, 63)" stroke="none" stroke-width="1px">-0.2</text><text x="0" y="346.5" dx="0em" dy="0.3em" style="text-anchor: end; visibility: inherit; font-family: &quot;Helvetica Neue&quot;, sans-serif; font-size: 12px; font-weight: 200;" fill="rgb(50, 49, 63)" stroke="none" stroke-width="1px">0</text><text x="0" y="315" dx="0em" dy="0.3em" style="text-anchor: end; visibility: inherit; font-family: &quot;Helvetica Neue&quot;, sans-serif; font-size: 12px; font-weight: 200;" fill="rgb(50, 49, 63)" stroke="none" stroke-width="1px">0.2</text><text x="0" y="283.5" dx="0em" dy="0.3em" style="text-anchor: end; visibility: inherit; font-family: &quot;Helvetica Neue&quot;, sans-serif; font-size: 12px; font-weight: 200;" fill="rgb(50, 49, 63)" stroke="none" stroke-width="1px">0.4</text><text x="0" y="252" dx="0em" dy="0.3em" style="text-anchor: end; visibility: inherit; font-family: &quot;Helvetica Neue&quot;, sans-serif; font-size: 12px; font-weight: 200;" fill="rgb(50, 49, 63)" stroke="none" stroke-width="1px">0.6</text><text x="0" y="220.5" dx="0em" dy="0.3em" style="text-anchor: end; visibility: inherit; font-family: &quot;Helvetica Neue&quot;, sans-serif; font-size: 12px; font-weight: 200;" fill="rgb(50, 49, 63)" stroke="none" stroke-width="1px">0.8</text><text x="0" y="189.00000000000003" dx="0em" dy="0.3em" style="text-anchor: end; visibility: inherit; font-family: &quot;Helvetica Neue&quot;, sans-serif; font-size: 12px; font-weight: 200;" fill="rgb(50, 49, 63)" stroke="none" stroke-width="1px">1</text><text x="0" y="157.50000000000003" dx="0em" dy="0.3em" style="text-anchor: end; visibility: inherit; font-family: &quot;Helvetica Neue&quot;, sans-serif; font-size: 12px; font-weight: 200;" fill="rgb(50, 49, 63)" stroke="none" stroke-width="1px">1.2</text><text x="0" y="126.00000000000006" dx="0em" dy="0.3em" style="text-anchor: end; visibility: inherit; font-family: &quot;Helvetica Neue&quot;, sans-serif; font-size: 12px; font-weight: 200;" fill="rgb(50, 49, 63)" stroke="none" stroke-width="1px">1.4</text><text x="0" y="94.50000000000006" dx="0em" dy="0.3em" style="text-anchor: end; visibility: inherit; font-family: &quot;Helvetica Neue&quot;, sans-serif; font-size: 12px; font-weight: 200;" fill="rgb(50, 49, 63)" stroke="none" stroke-width="1px">1.6</text><text x="0" y="63" dx="0em" dy="0.3em" style="text-anchor: end; visibility: inherit; font-family: &quot;Helvetica Neue&quot;, sans-serif; font-size: 12px; font-weight: 200;" fill="rgb(50, 49, 63)" stroke="none" stroke-width="1px">1.8</text><text x="0" y="31.5" dx="0em" dy="0.3em" style="text-anchor: end; visibility: inherit; font-family: &quot;Helvetica Neue&quot;, sans-serif; font-size: 12px; font-weight: 200;" fill="rgb(50, 49, 63)" stroke="none" stroke-width="1px">2</text><text x="0" y="0" dx="0em" dy="0.3em" style="text-anchor: end; visibility: hidden; font-family: &quot;Helvetica Neue&quot;, sans-serif; font-size: 12px; font-weight: 200;" fill="rgb(50, 49, 63)" stroke="none" stroke-width="1px">2.2</text></g><line x1="50" y1="0" x2="50" y2="378" fill="rgb(0, 0, 0)" stroke="rgb(204, 204, 204)" stroke-width="1px"></line></g></g><g transform="translate(50, 0)" clip-path="url(#clip_0)"><clipPath id="clip_0"><rect width="1446" height="378"></rect></clipPath><g><g><g><line x1="0" y1="0" x2="0" y2="378" fill="rgb(0, 0, 0)" stroke="rgb(60, 60, 60)" stroke-width="1px" opacity="0.25"></line><line x1="131.45454545454547" y1="0" x2="131.45454545454547" y2="378" fill="rgb(0, 0, 0)" stroke="rgb(60, 60, 60)" stroke-width="1px" opacity="0.25"></line><line x1="262.90909090909093" y1="0" x2="262.90909090909093" y2="378" fill="rgb(0, 0, 0)" stroke="rgb(60, 60, 60)" stroke-width="1px" opacity="0.25"></line><line x1="394.3636363636363" y1="0" x2="394.3636363636363" y2="378" fill="rgb(0, 0, 0)" stroke="rgb(60, 60, 60)" stroke-width="1px" opacity="0.25"></line><line x1="525.8181818181819" y1="0" x2="525.8181818181819" y2="378" fill="rgb(0, 0, 0)" stroke="rgb(60, 60, 60)" stroke-width="1px" opacity="0.25"></line><line x1="657.2727272727273" y1="0" x2="657.2727272727273" y2="378" fill="rgb(0, 0, 0)" stroke="rgb(60, 60, 60)" stroke-width="1px" opacity="0.25"></line><line x1="788.7272727272726" y1="0" x2="788.7272727272726" y2="378" fill="rgb(0, 0, 0)" stroke="rgb(60, 60, 60)" stroke-width="1px" opacity="0.25"></line><line x1="920.1818181818181" y1="0" x2="920.1818181818181" y2="378" fill="rgb(0, 0, 0)" stroke="rgb(60, 60, 60)" stroke-width="1px" opacity="0.25"></line><line x1="1051.6363636363637" y1="0" x2="1051.6363636363637" y2="378" fill="rgb(0, 0, 0)" stroke="rgb(60, 60, 60)" stroke-width="1px" opacity="0.25"></line><line x1="1183.0909090909092" y1="0" x2="1183.0909090909092" y2="378" fill="rgb(0, 0, 0)" stroke="rgb(60, 60, 60)" stroke-width="1px" opacity="0.25"></line><line x1="1314.5454545454545" y1="0" x2="1314.5454545454545" y2="378" fill="rgb(0, 0, 0)" stroke="rgb(60, 60, 60)" stroke-width="1px" opacity="0.25"></line><line x1="1446" y1="0" x2="1446" y2="378" fill="rgb(0, 0, 0)" stroke="rgb(60, 60, 60)" stroke-width="1px" opacity="0.25"></line></g><g><line x1="0" y1="378" x2="1446" y2="378" fill="rgb(0, 0, 0)" stroke="rgb(60, 60, 60)" stroke-width="1px" opacity="0.25"></line><line x1="0" y1="346.5" x2="1446" y2="346.5" fill="rgb(0, 0, 0)" stroke="rgb(60, 60, 60)" stroke-width="1px" opacity="0.25"></line><line x1="0" y1="315" x2="1446" y2="315" fill="rgb(0, 0, 0)" stroke="rgb(60, 60, 60)" stroke-width="1px" opacity="0.25"></line><line x1="0" y1="283.5" x2="1446" y2="283.5" fill="rgb(0, 0, 0)" stroke="rgb(60, 60, 60)" stroke-width="1px" opacity="0.25"></line><line x1="0" y1="252" x2="1446" y2="252" fill="rgb(0, 0, 0)" stroke="rgb(60, 60, 60)" stroke-width="1px" opacity="0.25"></line><line x1="0" y1="220.5" x2="1446" y2="220.5" fill="rgb(0, 0, 0)" stroke="rgb(60, 60, 60)" stroke-width="1px" opacity="0.25"></line><line x1="0" y1="189.00000000000003" x2="1446" y2="189.00000000000003" fill="rgb(0, 0, 0)" stroke="rgb(60, 60, 60)" stroke-width="1px" opacity="0.25"></line><line x1="0" y1="157.50000000000003" x2="1446" y2="157.50000000000003" fill="rgb(0, 0, 0)" stroke="rgb(60, 60, 60)" stroke-width="1px" opacity="0.25"></line><line x1="0" y1="126.00000000000006" x2="1446" y2="126.00000000000006" fill="rgb(0, 0, 0)" stroke="rgb(60, 60, 60)" stroke-width="1px" opacity="0.25"></line><line x1="0" y1="94.50000000000006" x2="1446" y2="94.50000000000006" fill="rgb(0, 0, 0)" stroke="rgb(60, 60, 60)" stroke-width="1px" opacity="0.25"></line><line x1="0" y1="63" x2="1446" y2="63" fill="rgb(0, 0, 0)" stroke="rgb(60, 60, 60)" stroke-width="1px" opacity="0.25"></line><line x1="0" y1="31.5" x2="1446" y2="31.5" fill="rgb(0, 0, 0)" stroke="rgb(60, 60, 60)" stroke-width="1px" opacity="0.25"></line><line x1="0" y1="0" x2="1446" y2="0" fill="rgb(0, 0, 0)" stroke="rgb(60, 60, 60)" stroke-width="1px" opacity="0.25"></line></g></g></g><g><g><line x1="0" y1="346.5" x2="1446" y2="346.5" fill="rgb(0, 0, 0)" stroke="rgb(153, 153, 153)" stroke-width="1.5px"></line></g></g><g><g><line x1="131.45454545454547" y1="0" x2="131.45454545454547" y2="378" fill="rgb(0, 0, 0)" stroke="rgb(153, 153, 153)" stroke-width="1.5px"></line></g></g><g><g><g><g><g><path stroke="rgb(51, 187, 238)" stroke-width="2px" d="M131.45454545454547,39.70630431175232L138.02727272727273,40.87732994556427L144.6,42.19413172347208L151.17272727272726,43.630263240679255L157.74545454545455,45.16026487410858L164.3181818181818,46.76072460205711L170.89090909090908,48.41132031502201L177.46363636363637,50.09480452530278L184.0363636363636,51.79644303872709L190.6090909090909,53.50339086993097L197.18181818181816,55.204591525356875L203.75454545454545,56.890427628028306L210.3272727272727,58.552013409298354L216.9,60.180729065883895L223.47272727272727,61.770162941682315L230.04545454545453,63.3166741676078L236.61818181818182,64.81246070353876L243.1909090909091,66.25209106239294L249.76363636363638,67.63104335521638L256.3363636363636,68.94678868566683L262.90909090909093,70.19971385593743L269.4818181818182,71.39278570170023L276.05454545454546,72.53984949084565L282.6272727272727,73.64490673290561L289.2,74.71379680149084L295.7727272727273,75.75658653466053L302.3454545454545,76.78505341344766L308.9181818181818,77.81045437919272L315.4909090909091,78.84199929734427L322.06363636363636,79.88693384681363L328.6363636363636,80.95016114720892L335.2090909090909,82.0377848346925L341.78181818181815,83.15557743879617L348.3545454545455,84.31190661985153L354.92727272727274,85.52057988574768L361.5,86.78964141205995L368.0727272727272,88.11833763465648L374.6454545454545,89.50022328618917L381.2181818181818,90.92977145468052L387.7909090909091,92.40320787123028L394.3636363636363,93.92208314833385L400.93636363636364,95.48725255145854L407.5090909090909,97.09693863327624L414.0818181818182,98.74963933457946L420.6545454545454,100.44521194851154L427.22727272727275,102.1885951648593L433.8,103.98259448358812L440.3727272727273,105.82543851945604L446.94545454545454,107.71282755147263L453.51818181818186,109.63877212294022L460.09090909090907,111.59966353946731L466.6636363636364,113.59181952699885L473.23636363636365,115.60470192566788L479.80909090909097,117.63401558956889L486.3818181818182,119.67785934782984L492.95454545454544,121.73785624609644L499.52727272727276,123.82242270533044L506.09999999999997,125.94297721519382L512.6727272727272,128.10642344078033L519.2454545454545,130.29770003748317L525.8181818181819,132.50451828832863L532.3909090909091,134.73776973364025L538.9636363636364,136.97532292054458L545.5363636363636,139.20247204212168L552.1090909090909,141.427839774536L558.6818181818181,143.65092202344354L565.2545454545455,145.85879922103175L571.8272727272728,148.0445908081013L578.4,150.2311750752615L584.9727272727273,152.42510676997225L591.5454545454546,154.62287614713506L598.1181818181818,156.8027532456541L604.690909090909,158.96250724543472L611.2636363636364,161.106507395204L617.8363636363636,163.2374503460503L624.4090909090909,165.35081826728444L630.9818181818182,167.4332284872643L637.5545454545455,169.4751493659563L644.1272727272727,171.48926938336774L650.7,173.47591674781853L657.2727272727273,175.4195094851078L663.8454545454546,177.29345502540002L670.4181818181818,179.1167952900203L676.9909090909091,180.91356503278445L683.5636363636363,182.69430234021206L690.1363636363636,184.45991522065557L696.709090909091,186.17524505848743L703.2818181818183,187.84700314518847L709.8545454545455,189.4892536182227L716.4272727272728,191.09042782658472L723,192.63685920878729L729.5727272727272,194.1444442572861L736.1454545454544,195.6268139185112L742.7181818181818,197.07996899495134L749.290909090909,198.48322266703613L755.8636363636364,199.8519805691586L762.4363636363636,201.1733685864178L769.009090909091,202.44591072399425L775.5818181818182,203.7071697783411L782.1545454545454,204.94999190997726L788.7272727272726,206.15564272899417L795.3000000000001,207.30426366388195L801.8727272727273,208.39810753619312L808.4454545454545,209.44559312317156L815.0181818181818,210.48172606500023L821.5909090909091,211.49628239555383L828.1636363636364,212.46851291467678L834.7363636363636,213.39888937598428L841.3090909090909,214.28852846220707L847.8818181818181,215.15589556691393L854.4545454545455,215.9837039565882L861.0272727272727,216.7882878098393L867.6,217.60683727940943L874.1727272727272,218.3581310432019L880.7454545454545,219.07323953633676L887.3181818181819,219.78849526122315L893.8909090909091,220.47204495593968L900.4636363636363,221.11262856200375L907.0363636363637,221.74781891271496L913.6090909090909,222.38024645188466L920.1818181818181,222.9837205358685L926.7545454545455,223.55031108548292L933.3272727272728,224.08924777323037L939.9,224.62810704120417L946.4727272727273,225.15351793174997L953.0454545454545,225.62455574873124L959.6181818181819,226.1017523181619L966.1909090909091,226.58972624374522L972.7636363636364,227.03994661231692L979.3363636363636,227.4930006602994L985.9090909090909,227.94530659553953L992.4818181818182,228.31953463338346L999.0545454545455,228.68952496875843L1005.6272727272727,229.10699051636172L1012.1999999999999,229.4641257406337L1018.7727272727274,229.80895267016072L1025.3454545454545,230.17194427303303L1031.918181818182,230.55218829662698L1038.490909090909,230.89558601350248L1045.0636363636365,231.22108165008223L1051.6363636363637,231.56131809700963L1058.209090909091,231.8653491839733L1064.7818181818182,232.1599099221806L1071.3545454545456,232.43839435475948L1077.9272727272728,232.74548237739734L1084.5,233.0194781495257L1091.0727272727272,233.3063742442801L1097.6454545454544,233.59154769920556L1104.2181818181818,233.84636405195744L1110.790909090909,234.10829048804018L1117.3636363636363,234.38112573296766L1123.9363636363635,234.5804664639887L1130.509090909091,234.80414704968075L1137.081818181818,235.08593429618801L1143.6545454545455,235.30157354768352L1150.2272727272727,235.4990707236304L1156.8,235.7385731338128L1163.3727272727274,235.95330966703088L1169.9454545454546,236.12420111412996L1176.5181818181818,236.32138684699058L1183.0909090909092,236.52819079940986L1189.6636363636364,236.70583581200526L1196.2363636363636,236.89492220444257L1202.8090909090909,237.0875802085565L1209.381818181818,237.2401063469509L1215.9545454545455,237.42469951078058L1222.5272727272727,237.60083532669995L1229.1,237.74121387206827L1235.6727272727271,237.89123397709915L1242.2454545454545,238.04960750128026L1248.8181818181818,238.18344800821063L1255.390909090909,238.34776875466775L1261.9636363636364,238.51387776786493L1268.5363636363636,238.63238623055463L1275.109090909091,238.75936333127407L1281.6818181818182,238.89956265561335L1288.2545454545455,238.99638948364588L1294.8272727272729,239.1240974874707L1301.4,239.27388651439026L1307.9727272727273,239.40704112808987L1314.5454545454545,239.53474749065091L1321.118181818182,239.6242512758771L1327.6909090909091,239.70565111018416L1334.2636363636364,239.83166567431212L1340.8363636363636,239.94570403067064L1347.4090909090908,240.06028839807388L1353.9818181818182,240.1722638896744L1360.5545454545454,240.22919027159458L1367.1272727272726,240.33434363692908L1373.7,240.42048441463655L1380.2727272727273,240.5465910619137L1386.8454545454545,240.63697876844628L1393.418181818182,240.7218003768553L1399.990909090909,240.8146414815682" style="fill: none;" fill="none"></path></g><g><path stroke="rgb(0, 119, 187)" stroke-width="2px" d="M131.45454545454547,38.280458092689514L138.02727272727273,39.54742634296417L144.6,40.953047556536546L151.17272727272726,42.484526568037666L157.74545454545455,44.114391617358024L164.3181818181818,45.819934405498486L170.89090909090908,47.580373037310096L177.46363636363637,49.37854971486905L184.0363636363636,51.199506744900305L190.6090909090909,53.030298547494056L197.18181818181816,54.85964757216465L203.75454545454545,56.67794422069767L210.3272727272727,58.47692864523458L216.9,60.248510533666604L223.47272727272727,61.98603146031087L230.04545454545453,63.68457389710579L236.61818181818182,65.3407923131989L243.1909090909091,66.94952812576463L249.76363636363638,68.50819359768855L256.3363636363636,70.0161473534219L262.90909090909093,71.47575648889898L269.4818181818182,72.89244470990724L276.05454545454546,74.27536515172693L282.6272727272727,75.63762263493612L289.2,76.99131439758679L295.7727272727273,78.35317585696367L302.3454545454545,79.73894052376545L308.9181818181818,81.16422912785237L315.4909090909091,82.64280741637788L322.06363636363636,84.18367074952448L328.6363636363636,85.78787540630066L335.2090909090909,87.4544629662546L341.78181818181815,89.18104840472682L348.3545454545455,90.96524690229757L354.92727272727274,92.80059573610089L361.5,94.69421217940044L368.0727272727272,96.65795939052532L374.6454545454545,98.6914525875523L381.2181818181818,100.7892938928299L387.7909090909091,102.94272459297105L394.3636363636363,105.14642186787881L400.93636363636364,107.40531053548773L407.5090909090909,109.72716702531693L414.0818181818182,112.11494487273887L420.6545454545454,114.5678402053772L427.22727272727275,117.08105985343985L433.8,119.64789772055536L440.3727272727273,122.26445782203584L446.94545454545454,124.92756142631254L453.51818181818186,127.63488072406503L460.09090909090907,130.38288613708906L466.6636363636364,133.1687539610473L473.23636363636365,135.9904670353705L479.80909090909097,138.84284217572358L486.3818181818182,141.72339281688008L492.95454545454544,144.62572286874087L499.52727272727276,147.54378668278542L506.09999999999997,150.47364144212102L512.6727272727272,153.4138076584705L519.2454545454545,156.36372057683292L525.8181818181819,159.32097604326634L532.3909090909091,162.2828623440995L538.9636363636364,165.2476698390922L545.5363636363636,168.2111884255577L552.1090909090909,171.17015604373034L558.6818181818181,174.12190199015274L565.2545454545455,177.0634720094069L571.8272727272728,179.99224489730977L578.4,182.9048980581903L584.9727272727273,185.79964821983236L591.5454545454546,188.67379570870912L598.1181818181818,191.52436888736082L604.690909090909,194.34803392005912L611.2636363636364,197.14137859054185L617.8363636363636,199.90145059172974L624.4090909090909,202.624086545376L630.9818181818182,205.30458794025662L637.5545454545455,207.93972636454154L644.1272727272727,210.52730566974196L650.7,213.065527514909L657.2727272727273,215.55304628389734L663.8454545454546,217.98896072970425L670.4181818181818,220.37225320736525L676.9909090909091,222.70287263870216L683.5636363636363,224.9822415976523L690.1363636363636,227.21122113876336L696.709090909091,229.39045932300564L703.2818181818183,231.5201609874229L709.8545454545455,233.60022372868423L716.4272727272728,235.63311703721743L723,237.61953403782883L729.5727272727272,239.55998448271777L736.1454545454544,241.45525111996665L742.7181818181818,243.3060664549085L749.290909090909,245.1125207671292L755.8636363636364,246.8744203882675L762.4363636363636,248.59282446129683L769.009090909091,250.2677714122746L775.5818181818182,251.89849197229228L782.1545454545454,253.48627069807344L788.7272727272726,255.03117236623942L795.3000000000001,256.5348129816638L801.8727272727273,257.9988906352393L808.4454545454545,259.4228883486195L815.0181818181818,260.80792286999247L821.5909090909091,262.1549008191062L828.1636363636364,263.4656541645785L834.7363636363636,264.74138723017336L841.3090909090909,265.9828451407049L847.8818181818181,267.1906420726832L854.4545454545455,268.3649775528464L861.0272727272727,269.5065983977052L867.6,270.6150251892884L874.1727272727272,271.69104423330305L880.7454545454545,272.7378497553234L887.3181818181819,273.7552817244747L893.8909090909091,274.74506909724585L900.4636363636363,275.7089570824892L907.0363636363637,276.64717419532485L913.6090909090909,277.5592586075517L920.1818181818181,278.4462362393888L926.7545454545455,279.3077876249046L933.3272727272728,280.14459977621385L939.9,280.95754677697744L946.4727272727273,281.7471155264659L953.0454545454545,282.515173425596L959.6181818181819,283.26279773135246L966.1909090909091,283.98979928981817L972.7636363636364,284.69657717878556L979.3363636363636,285.3845368011888L985.9090909090909,286.054446296936L992.4818181818182,286.7064698976551L999.0545454545455,287.34266066803184L1005.6272727272727,287.96331355126887L1012.1999999999999,288.56908428759687L1018.7727272727274,289.1622851734836L1025.3454545454545,289.74278465184443L1031.918181818182,290.31022027893584L1038.490909090909,290.8650918112023L1045.0636363636365,291.40798636709593L1051.6363636363637,291.93843009731137L1058.209090909091,292.45700799620727L1064.7818181818182,292.96685546157704L1071.3545454545456,293.46726084064215L1077.9272727272728,293.95683020538553L1084.5,294.43667233697454L1091.0727272727272,294.9059880179875L1097.6454545454544,295.3657565714546L1104.2181818181818,295.81541465530563L1110.790909090909,296.2565825451003L1117.3636363636363,296.68845812491094L1123.9363636363635,297.11100885874936L1130.509090909091,297.5256947315151L1137.081818181818,297.9326745114574L1143.6545454545455,298.33084746252587L1150.2272727272727,298.72355794937073L1156.8,299.1083233775536L1163.3727272727274,299.4841498626375L1169.9454545454546,299.8528987820806L1176.5181818181818,300.21344892715587L1183.0909090909092,300.56570773443684L1189.6636363636364,300.9106448061532L1196.2363636363636,301.24877994461457L1202.8090909090909,301.57985988976714L1209.381818181818,301.90414011312816L1215.9545454545455,302.2222564270097L1222.5272727272727,302.5339951366185L1229.1,302.8388318628072L1235.6727272727271,303.1380967086553L1242.2454545454545,303.4310913316011L1248.8181818181818,303.7186039883852L1255.390909090909,304.0008410214758L1261.9636363636364,304.27799382802107L1268.5363636363636,304.5500683486239L1275.109090909091,304.8181721448765L1281.6818181818182,305.08046322940976L1288.2545454545455,305.3375731401395L1294.8272727272729,305.5890603120775L1301.4,305.83522494767016L1307.9727272727273,306.0758303531045L1314.5454545454545,306.31194928455557L1321.118181818182,306.5439738045228L1327.6909090909091,306.77246959865647L1334.2636363636364,306.9975667319331L1340.8363636363636,307.2194098962327L1347.4090909090908,307.4386792113173L1353.9818181818182,307.653531571018L1360.5545454545454,307.8634018449708L1367.1272727272726,308.0680908321574L1373.7,308.2683595811864L1380.2727272727273,308.46651973697783L1386.8454545454545,308.66132502778316L1393.418181818182,308.8525130362746L1399.990909090909,309.0402426786087" style="fill: none;" fill="none"></path></g></g></g></g><g opacity="0.2"><g><g><g><path stroke="rgb(51, 187, 238)" stroke-width="2px" d="M131.45454545454547,39.70630431175232L138.02727272727273,41.57994532585144L144.6,43.45826143026352L151.17272727272726,45.31915390491491L157.74545454545455,47.15783500671387L164.3181818181818,48.97473657131195L170.89090909090908,50.77169859409332L177.46363636363637,52.549340665340424L184.0363636363636,54.306029319763184L190.6090909090909,56.03800946474075L197.18181818181816,57.740962743759155L203.75454545454545,59.410007536411285L210.3272727272727,61.038966715335846L216.9,62.6206117272377L223.47272727272727,64.15244543552404L230.04545454545453,65.63535028696066L236.61818181818182,67.05550754070288L243.1909090909091,68.411171078682L249.76363636363638,69.69926172494894L256.3363636363636,70.9202864170075L262.90909090909093,72.07903289794928L269.4818181818182,73.18235421180731L276.05454545454546,74.26042252779013L282.6272727272727,75.302479505539L289.2,76.31712430715567L295.7727272727273,77.32076668739325L302.3454545454545,78.32775110006338L308.9181818181818,79.34855425357824L315.4909090909091,80.38931572437292L322.06363636363636,81.45433509349829L328.6363636363636,82.54500174522406L335.2090909090909,83.66922014951712L341.78181818181815,84.83226621150976L348.3545454545455,86.04640030860907L354.92727272727274,87.333589732647L361.5,88.69323366880423L368.0727272727272,90.11138194799429L374.6454545454545,91.57305175066L381.2181818181818,93.07409369945532L387.7909090909091,94.61336249113089L394.3636363636363,96.2003960609436L400.93636363636364,97.8350066542626L407.5090909090909,99.51146775484091L414.0818181818182,101.22869038581854L420.6545454545454,102.98857086896896L427.22727272727275,104.8036699891091L433.8,106.67359346151358L440.3727272727273,108.5897045731545L446.94545454545454,110.5439110994339L453.51818181818186,112.5276889801026L460.09090909090907,114.54100066423416L466.6636363636364,116.58005350828176L473.23636363636365,118.62402552366262L479.80909090909097,120.67798608541489L486.3818181818182,122.7436249852181L492.95454545454544,124.82785159349444L499.52727272727276,126.94927239418033L506.09999999999997,129.12380897998813L512.6727272727272,131.3515927791596L519.2454545454545,133.5846149325371L525.8181818181819,135.8147456645966L532.3909090909091,138.08764690160754L538.9636363636364,140.3316527009011L545.5363636363636,142.54319572448736L552.1090909090909,144.76589137315756L558.6818181818181,146.98554539680487L565.2545454545455,149.17061501741415L571.8272727272728,151.32327818870547L578.4,153.51105147600177L584.9727272727273,155.71600431203845L591.5454545454546,157.9195302128792L598.1181818181818,160.07256889343265L604.690909090909,162.20213824510577L611.2636363636364,164.32250761985782L617.8363636363636,166.43386477231985L624.4090909090909,168.52087014913565L630.9818181818182,170.5568438172341L637.5545454545455,172.53803068399432L644.1272727272727,174.51044940948492L650.7,176.45588779449466L657.2727272727273,178.33489859104162L663.8454545454546,180.10437333583835L670.4181818181818,181.85180568695074L676.9909090909091,183.60871964693072L683.5636363636363,185.36540830135348L690.1363636363636,187.10833454132083L696.709090909091,188.7482398152352L703.2818181818183,190.35464027523997L709.8545454545455,191.95262932777408L716.4272727272728,193.49218913912776L723,194.95650628209117L729.5727272727272,196.40582183003428L736.1454545454544,197.85036841034892L742.7181818181818,199.25970160961154L749.290909090909,200.5881031751633L755.8636363636364,201.90511742234233L762.4363636363636,203.15545061230662L769.009090909091,204.35472393035892L775.5818181818182,205.5990583598614L782.1545454545454,206.81422510743144L788.7272727272726,207.96411895751956L795.3000000000001,209.02719506621364L801.8727272727273,210.03887334465983L808.4454545454545,211.01682150363925L815.0181818181818,212.03592547774318L821.5909090909091,213.01811689138415L828.1636363636364,213.9268586933613L834.7363636363636,214.7944540679455L841.3090909090909,215.62298709154132L847.8818181818181,216.45694622397426L854.4545454545455,217.22541654109958L861.0272727272727,217.995163589716L867.6,218.83466148376468L874.1727272727272,219.48507168889049L880.7454545454545,220.14590227603915L887.3181818181819,220.86137884855273L893.8909090909091,221.49736949801448L900.4636363636363,222.07350397109988L907.0363636363637,222.70060443878177L913.6090909090909,223.32888776063922L920.1818181818181,223.88893166184428L926.7545454545455,224.4001969099045L933.3272727272728,224.89765280485156L939.9,225.43639594316485L946.4727272727273,225.94163426756862L953.0454545454545,226.33111247420314L959.6181818181819,226.817547172308L966.1909090909091,227.32168713212016L972.7636363636364,227.7152771651745L979.3363636363636,228.17258173227313L985.9090909090909,228.62376549839976L992.4818181818182,228.88087669014934L999.0545454545455,229.24451047182086L1005.6272727272727,229.73318883776668L1012.1999999999999,229.99982857704165L1018.7727272727274,230.32619306445125L1025.3454545454545,230.7164316773415L1031.918181818182,231.12255433201793L1038.490909090909,231.41068258881572L1045.0636363636365,231.7093251049519L1051.6363636363637,232.07167276740077L1058.209090909091,232.32139581441882L1064.7818181818182,232.60175102949145L1071.3545454545456,232.8561210036278L1077.9272727272728,233.2061144113541L1084.5,233.4304718077183L1091.0727272727272,233.7367183864117L1097.6454545454544,234.01930788159373L1104.2181818181818,234.22858858108523L1110.790909090909,234.50118014216426L1117.3636363636363,234.790378600359L1123.9363636363635,234.8794775605202L1130.509090909091,235.13966792821887L1137.081818181818,235.5086151659489L1143.6545454545455,235.6250324249268L1150.2272727272727,235.79531648755076L1156.8,236.0978267490864L1163.3727272727274,236.27541446685794L1169.9454545454546,236.38053828477862L1176.5181818181818,236.61716544628146L1183.0909090909092,236.83839672803882L1189.6636363636364,236.9723033308983L1196.2363636363636,237.17855179309848L1202.8090909090909,237.37656721472743L1209.381818181818,237.46889555454257L1215.9545454545455,237.70158925652507L1222.5272727272727,237.8650390505791L1229.1,237.95178169012073L1235.6727272727271,238.1162641346455L1242.2454545454545,238.2871677875519L1248.8181818181818,238.38420876860621L1255.390909090909,238.59424987435344L1261.9636363636364,238.76304128766063L1268.5363636363636,238.81014892458919L1275.109090909091,238.94982898235324L1281.6818181818182,239.1098616421223L1288.2545454545455,239.14162972569468L1294.8272727272729,239.31565949320796L1301.4,239.49857005476954L1307.9727272727273,239.60677304863933L1314.5454545454545,239.72630703449252L1321.118181818182,239.7585069537163L1327.6909090909091,239.82775086164477L1334.2636363636364,240.02068752050403L1340.8363636363636,240.11676156520846L1347.4090909090908,240.23216494917872L1353.9818181818182,240.34022712707522L1360.5545454545454,240.31457984447482L1367.1272727272726,240.49207368493083L1373.7,240.54969558119777L1380.2727272727273,240.7357510328293L1386.8454545454545,240.7725603282452L1393.418181818182,240.8490327894688L1399.990909090909,240.95390313863757" style="fill: none;" fill="none"></path></g><g><path stroke="rgb(0, 119, 187)" stroke-width="2px" d="M131.45454545454547,38.280458092689514L138.02727272727273,40.30760729312897L144.6,42.30244392156601L151.17272727272726,44.2855458855629L157.74545454545455,46.24234342575079L164.3181818181818,48.17931407690048L170.89090909090908,50.097828447818756L177.46363636363637,52.000308573246L184.0363636363636,53.88506466150284L190.6090909090909,55.74881100654602L197.18181818181816,57.58707904815674L203.75454545454545,59.3954941034317L210.3272727272727,61.16953128576279L216.9,62.90241265296936L223.47272727272727,64.590270459652L230.04545454545453,66.23118960857397L236.61818181818182,67.82441908121115L243.1909090909091,69.36222338676458L249.76363636363638,70.84595435857779L256.3363636363636,72.27794015407568L262.90909090909093,73.66509014368063L269.4818181818182,75.0174304246903L276.05454545454546,76.34971851110464L282.6272727272727,77.68099272251135L289.2,79.02184242010122L295.7727272727273,80.39596223831182L302.3454545454545,81.81758397817617L308.9181818181818,83.30215984582907L315.4909090909091,84.86067348718649L322.06363636363636,86.49496489763266L328.6363636363636,88.19418185949331L335.2090909090909,89.95434397459036L341.78181818181815,91.77092635631567L348.3545454545455,93.641544520855L354.92727272727274,95.55361890792852L361.5,97.53463679552084L368.0727272727272,99.60358017683029L374.6454545454545,101.74169236421591L381.2181818181818,103.9360558390618L387.7909090909091,106.17287063598633L394.3636363636363,108.45196777582174L400.93636363636364,110.79364353418356L407.5090909090909,113.2099517583847L414.0818181818182,115.69661164283758L420.6545454545454,118.24718320369726L427.22727272727275,120.85088932514196L433.8,123.49815452098849L440.3727272727273,126.18929797410968L446.94545454545454,128.92221683263782L453.51818181818186,131.6958596706391L460.09090909090907,134.50489425659183L466.6636363636364,137.3475556969643L473.23636363636365,140.22303664684298L479.80909090909097,143.12140488624576L486.3818181818182,146.0442187786103L492.95454545454544,148.97921794652945L499.52727272727276,151.92088240385058L506.09999999999997,154.8684235811234L512.6727272727272,157.8240569829941L519.2454545454545,160.78858995437625L525.8181818181819,163.75685924291614L532.3909090909091,166.72569179534918L538.9636363636364,169.69488108158117L545.5363636363636,172.65646630525595L552.1090909090909,175.60860747098926L558.6818181818181,178.54952090978625L565.2545454545455,181.47582703828817L571.8272727272728,184.38540422916415L578.4,187.27387779951098L584.9727272727273,190.14177346229556L591.5454545454546,192.98501694202426L598.1181818181818,195.80022865533832L604.690909090909,198.5835314691067L611.2636363636364,201.33139559626582L617.8363636363636,204.0415585935116L624.4090909090909,206.70804047584537L630.9818181818182,209.32534003257754L637.5545454545455,211.89243400096896L644.1272727272727,214.40867462754252L650.7,216.87286028265956L657.2727272727273,219.28432443737987L663.8454545454546,221.64283239841464L670.4181818181818,223.94719192385676L676.9909090909091,226.1988017857075L683.5636363636363,228.40129503607753L690.1363636363636,230.55469045042994L696.709090909091,232.65931659936908L703.2818181818183,234.71471348404887L709.8545454545455,236.7203178405762L716.4272727272728,238.6824570000172L723,240.5991595387459L729.5727272727272,242.47066015005115L736.1454545454544,244.29815107584002L742.7181818181818,246.0822894573212L749.290909090909,247.8222022354603L755.8636363636364,249.51726981997493L762.4363636363636,251.17043057084086L769.009090909091,252.78019183874133L775.5818181818182,254.34457281231883L782.1545454545454,255.8679387867451L788.7272727272726,257.3485248684883L795.3000000000001,258.7902739048004L801.8727272727273,260.1950071156025L808.4454545454545,261.5588849186897L815.0181818181818,262.8854746520519L821.5909090909091,264.17536774277687L828.1636363636364,265.43178418278694L834.7363636363636,266.6549868285656L841.3090909090909,267.84503200650215L847.8818181818181,269.0023374706507L854.4545454545455,270.1264807730913L861.0272727272727,271.2190296649933L867.6,272.2776653766632L874.1727272727272,273.305072799325L880.7454545454545,274.3080580383539L887.3181818181819,275.2814296782017L893.8909090909091,276.2297501564026L900.4636363636363,277.15478906035423L907.0363636363637,278.05449986457825L913.6090909090909,278.92738522589207L920.1818181818181,279.7767026871443L926.7545454545455,280.6001147031784L933.3272727272728,281.39981800317764L939.9,282.1769672781229L946.4727272727273,282.93146865069866L953.0454545454545,283.66726027429104L959.6181818181819,284.3842341899872L966.1909090909091,285.08030162751675L972.7636363636364,285.7567440122366L979.3363636363636,286.41647623479366L985.9090909090909,287.0593105405569L992.4818181818182,287.6845052987337L999.0545454545455,288.29694682359695L1005.6272727272727,288.8942928761244L1012.1999999999999,289.4777403920889L1018.7727272727274,290.0520865023136L1025.3454545454545,290.6135338693857L1031.918181818182,291.161373719573L1038.490909090909,291.697399109602L1045.0636363636365,292.2223282009363L1051.6363636363637,292.7340956926346L1058.209090909091,293.2348748445511L1064.7818181818182,293.73162665963173L1071.3545454545456,294.21786890923977L1077.9272727272728,294.69118425250053L1084.5,295.156435534358L1091.0727272727272,295.6099615395069L1097.6454545454544,296.0554094016552L1104.2181818181818,296.48990178108215L1110.790909090909,296.9183343797922L1117.3636363636363,297.336271494627L1123.9363636363635,297.744834959507L1130.509090909091,298.1477235406637L1137.081818181818,298.54314418137074L1143.6545454545455,298.9281068891287L1150.2272727272727,299.3126236796379L1156.8,299.68547151982784L1163.3727272727274,300.04788959026337L1169.9454545454546,300.40602216124535L1176.5181818181818,300.7542741447687L1183.0909090909092,301.0940959453583L1189.6636363636364,301.42805041372776L1196.2363636363636,301.75598265230656L1202.8090909090909,302.07647980749607L1209.381818181818,302.3905604481697L1215.9545454545455,302.6994308978319L1222.5272727272727,303.0016032010317L1229.1,303.29608695209026L1235.6727272727271,303.5869939774275L1242.2454545454545,303.8705832660198L1248.8181818181818,304.1498729735613L1255.390909090909,304.4241965711117L1261.9636363636364,304.69372303783894L1268.5363636363636,304.95818012952805L1275.109090909091,305.22032783925533L1281.6818181818182,305.47389985620975L1288.2545454545455,305.72323800623417L1294.8272727272729,305.96629106998444L1301.4,306.20447190105915L1307.9727272727273,306.436738461256L1314.5454545454545,306.6661276817322L1321.118181818182,306.8920105844736L1327.6909090909091,307.1152132898569L1334.2636363636364,307.33521243184805L1340.8363636363636,307.5521746426821L1347.4090909090908,307.7675831839442L1353.9818181818182,307.975810110569L1360.5545454545454,308.1782072558999L1367.1272727272726,308.37512431293726L1373.7,308.56876270473003L1380.2727272727273,308.763759970665L1386.8454545454545,308.95353296399117L1393.418181818182,309.1392950490117L1399.990909090909,309.32183714210987" style="fill: none;" fill="none"></path></g></g></g></g></g></g><g transform="translate(50, 378)" clip-path="url(#clip_1)"><clipPath id="clip_1"><rect width="1446" height="22"></rect></clipPath><g><g><line x1="0" y1="0" x2="0" y2="5" style="visibility: inherit;" fill="rgb(0, 0, 0)" stroke="rgb(204, 204, 204)" stroke-width="1px"></line><line x1="131.45454545454547" y1="0" x2="131.45454545454547" y2="5" style="visibility: inherit;" fill="rgb(0, 0, 0)" stroke="rgb(204, 204, 204)" stroke-width="1px"></line><line x1="262.90909090909093" y1="0" x2="262.90909090909093" y2="5" style="visibility: inherit;" fill="rgb(0, 0, 0)" stroke="rgb(204, 204, 204)" stroke-width="1px"></line><line x1="394.3636363636363" y1="0" x2="394.3636363636363" y2="5" style="visibility: inherit;" fill="rgb(0, 0, 0)" stroke="rgb(204, 204, 204)" stroke-width="1px"></line><line x1="525.8181818181819" y1="0" x2="525.8181818181819" y2="5" style="visibility: inherit;" fill="rgb(0, 0, 0)" stroke="rgb(204, 204, 204)" stroke-width="1px"></line><line x1="657.2727272727273" y1="0" x2="657.2727272727273" y2="5" style="visibility: inherit;" fill="rgb(0, 0, 0)" stroke="rgb(204, 204, 204)" stroke-width="1px"></line><line x1="788.7272727272726" y1="0" x2="788.7272727272726" y2="5" style="visibility: inherit;" fill="rgb(0, 0, 0)" stroke="rgb(204, 204, 204)" stroke-width="1px"></line><line x1="920.1818181818181" y1="0" x2="920.1818181818181" y2="5" style="visibility: inherit;" fill="rgb(0, 0, 0)" stroke="rgb(204, 204, 204)" stroke-width="1px"></line><line x1="1051.6363636363637" y1="0" x2="1051.6363636363637" y2="5" style="visibility: inherit;" fill="rgb(0, 0, 0)" stroke="rgb(204, 204, 204)" stroke-width="1px"></line><line x1="1183.0909090909092" y1="0" x2="1183.0909090909092" y2="5" style="visibility: inherit;" fill="rgb(0, 0, 0)" stroke="rgb(204, 204, 204)" stroke-width="1px"></line><line x1="1314.5454545454545" y1="0" x2="1314.5454545454545" y2="5" style="visibility: inherit;" fill="rgb(0, 0, 0)" stroke="rgb(204, 204, 204)" stroke-width="1px"></line><line x1="1446" y1="0" x2="1446" y2="5" style="visibility: inherit;" fill="rgb(0, 0, 0)" stroke="rgb(204, 204, 204)" stroke-width="1px"></line></g><g transform="translate(0, 8)"><text x="0" y="0" dx="0em" dy="0.95em" style="text-anchor: middle; visibility: hidden; font-family: &quot;Helvetica Neue&quot;, sans-serif; font-size: 12px; font-weight: 200;" fill="rgb(50, 49, 63)" stroke="none" stroke-width="1px">-20</text><text x="131.45454545454547" y="0" dx="0em" dy="0.95em" style="text-anchor: middle; visibility: inherit; font-family: &quot;Helvetica Neue&quot;, sans-serif; font-size: 12px; font-weight: 200;" fill="rgb(50, 49, 63)" stroke="none" stroke-width="1px">0</text><text x="262.90909090909093" y="0" dx="0em" dy="0.95em" style="text-anchor: middle; visibility: inherit; font-family: &quot;Helvetica Neue&quot;, sans-serif; font-size: 12px; font-weight: 200;" fill="rgb(50, 49, 63)" stroke="none" stroke-width="1px">20</text><text x="394.3636363636363" y="0" dx="0em" dy="0.95em" style="text-anchor: middle; visibility: inherit; font-family: &quot;Helvetica Neue&quot;, sans-serif; font-size: 12px; font-weight: 200;" fill="rgb(50, 49, 63)" stroke="none" stroke-width="1px">40</text><text x="525.8181818181819" y="0" dx="0em" dy="0.95em" style="text-anchor: middle; visibility: inherit; font-family: &quot;Helvetica Neue&quot;, sans-serif; font-size: 12px; font-weight: 200;" fill="rgb(50, 49, 63)" stroke="none" stroke-width="1px">60</text><text x="657.2727272727273" y="0" dx="0em" dy="0.95em" style="text-anchor: middle; visibility: inherit; font-family: &quot;Helvetica Neue&quot;, sans-serif; font-size: 12px; font-weight: 200;" fill="rgb(50, 49, 63)" stroke="none" stroke-width="1px">80</text><text x="788.7272727272726" y="0" dx="0em" dy="0.95em" style="text-anchor: middle; visibility: inherit; font-family: &quot;Helvetica Neue&quot;, sans-serif; font-size: 12px; font-weight: 200;" fill="rgb(50, 49, 63)" stroke="none" stroke-width="1px">100</text><text x="920.1818181818181" y="0" dx="0em" dy="0.95em" style="text-anchor: middle; visibility: inherit; font-family: &quot;Helvetica Neue&quot;, sans-serif; font-size: 12px; font-weight: 200;" fill="rgb(50, 49, 63)" stroke="none" stroke-width="1px">120</text><text x="1051.6363636363637" y="0" dx="0em" dy="0.95em" style="text-anchor: middle; visibility: inherit; font-family: &quot;Helvetica Neue&quot;, sans-serif; font-size: 12px; font-weight: 200;" fill="rgb(50, 49, 63)" stroke="none" stroke-width="1px">140</text><text x="1183.0909090909092" y="0" dx="0em" dy="0.95em" style="text-anchor: middle; visibility: inherit; font-family: &quot;Helvetica Neue&quot;, sans-serif; font-size: 12px; font-weight: 200;" fill="rgb(50, 49, 63)" stroke="none" stroke-width="1px">160</text><text x="1314.5454545454545" y="0" dx="0em" dy="0.95em" style="text-anchor: middle; visibility: inherit; font-family: &quot;Helvetica Neue&quot;, sans-serif; font-size: 12px; font-weight: 200;" fill="rgb(50, 49, 63)" stroke="none" stroke-width="1px">180</text><text x="1446" y="0" dx="0em" dy="0.95em" style="text-anchor: middle; visibility: hidden; font-family: &quot;Helvetica Neue&quot;, sans-serif; font-size: 12px; font-weight: 200;" fill="rgb(50, 49, 63)" stroke="none" stroke-width="1px">200</text></g><line x1="0" y1="0" x2="1446" y2="0" fill="rgb(0, 0, 0)" stroke="rgb(204, 204, 204)" stroke-width="1px"></line></g></g></g></g></svg>