<svg viewBox="0 0 1496 400" xmlns="http://www.w3.org/2000/svg"><g><g><g><g><g><line x1="50" y1="378" x2="45" y2="378" style="visibility: inherit;" fill="rgb(0, 0, 0)" stroke="rgb(204, 204, 204)" stroke-width="1px"></line><line x1="50" y1="346.5" x2="45" y2="346.5" style="visibility: inherit;" fill="rgb(0, 0, 0)" stroke="rgb(204, 204, 204)" stroke-width="1px"></line><line x1="50" y1="315" x2="45" y2="315" style="visibility: inherit;" fill="rgb(0, 0, 0)" stroke="rgb(204, 204, 204)" stroke-width="1px"></line><line x1="50" y1="283.5" x2="45" y2="283.5" style="visibility: inherit;" fill="rgb(0, 0, 0)" stroke="rgb(204, 204, 204)" stroke-width="1px"></line><line x1="50" y1="252" x2="45" y2="252" style="visibility: inherit;" fill="rgb(0, 0, 0)" stroke="rgb(204, 204, 204)" stroke-width="1px"></line><line x1="50" y1="220.5" x2="45" y2="220.5" style="visibility: inherit;" fill="rgb(0, 0, 0)" stroke="rgb(204, 204, 204)" stroke-width="1px"></line><line x1="50" y1="189.00000000000003" x2="45" y2="189.00000000000003" style="visibility: inherit;" fill="rgb(0, 0, 0)" stroke="rgb(204, 204, 204)" stroke-width="1px"></line><line x1="50" y1="157.50000000000003" x2="45" y2="157.50000000000003" style="visibility: inherit;" fill="rgb(0, 0, 0)" stroke="rgb(204, 204, 204)" stroke-width="1px"></line><line x1="50" y1="126.00000000000006" x2="45" y2="126.00000000000006" style="visibility: inherit;" fill="rgb(0, 0, 0)" stroke="rgb(204, 204, 204)" stroke-width="1px"></line><line x1="50" y1="94.50000000000006" x2="45" y2="94.50000000000006" style="visibility: inherit;" fill="rgb(0, 0, 0)" stroke="rgb(204, 204, 204)" stroke-width="1px"></line><line x1="50" y1="63" x2="45" y2="63" style="visibility: inherit;" fill="rgb(0, 0, 0)" stroke="rgb(204, 204, 204)" stroke-width="1px"></line><line x1="50" y1="31.5" x2="45" y2="31.5" style="visibility: inherit;" fill="rgb(0, 0, 0)" stroke="rgb(204, 204, 204)" stroke-width="1px"></line><line x1="50" y1="0" x2="45" y2="0" style="visibility: inherit;" fill="rgb(0, 0, 0)" stroke="rgb(204, 204, 204)" stroke-width="1px"></line></g><g transform="translate(40, 0)"><text x="0" y="378" dx="0em" dy="0.3em" style="text-anchor: end; visibility: hidden; font-family: &quot;Helvetica Neue&quot;, sans-serif; font-size: 12px; font-weight: 200;" fill="rgb(50, 49, 63)" stroke="none" stroke-width="1px">-0.2</text><text x="0" y="346.5" dx="0em" dy="0.3em" style="text-anchor: end; visibility: inherit; font-family: &quot;Helvetica Neue&quot;, sans-serif; font-size: 12px; font-weight: 200;" fill="rgb(50, 49, 63)" stroke="none" stroke-width="1px">0</text><text x="0" y="315" dx="0em" dy="0.3em" style="text-anchor: end; visibility: inherit; font-family: &quot;Helvetica Neue&quot;, sans-serif; font-size: 12px; font-weight: 200;" fill="rgb(50, 49, 63)" stroke="none" stroke-width="1px">0.2</text><text x="0" y="283.5" dx="0em" dy="0.3em" style="text-anchor: end; visibility: inherit; font-family: &quot;Helvetica Neue&quot;, sans-serif; font-size: 12px; font-weight: 200;" fill="rgb(50, 49, 63)" stroke="none" stroke-width="1px">0.4</text><text x="0" y="252" dx="0em" dy="0.3em" style="text-anchor: end; visibility: inherit; font-family: &quot;Helvetica Neue&quot;, sans-serif; font-size: 12px; font-weight: 200;" fill="rgb(50, 49, 63)" stroke="none" stroke-width="1px">0.6</text><text x="0" y="220.5" dx="0em" dy="0.3em" style="text-anchor: end; visibility: inherit; font-family: &quot;Helvetica Neue&quot;, sans-serif; font-size: 12px; font-weight: 200;" fill="rgb(50, 49, 63)" stroke="none" stroke-width="1px">0.8</text><text x="0" y="189.00000000000003" dx="0em" dy="0.3em" style="text-anchor: end; visibility: inherit; font-family: &quot;Helvetica Neue&quot;, sans-serif; font-size: 12px; font-weight: 200;" fill="rgb(50, 49, 63)" stroke="none" stroke-width="1px">1</text><text x="0" y="157.50000000000003" dx="0em" dy="0.3em" style="text-anchor: end; visibility: inherit; font-family: &quot;Helvetica Neue&quot;, sans-serif; font-size: 12px; font-weight: 200;" fill="rgb(50, 49, 63)" stroke="none" stroke-width="1px">1.2</text><text x="0" y="126.00000000000006" dx="0em" dy="0.3em" style="text-anchor: end; visibility: inherit; font-family: &quot;Helvetica Neue&quot;, sans-serif; font-size: 12px; font-weight: 200;" fill="rgb(50, 49, 63)" stroke="none" stroke-width="1px">1.4</text><text x="0" y="94.50000000000006" dx="0em" dy="0.3em" style="text-anchor: end; visibility: inherit; font-family: &quot;Helvetica Neue&quot;, sans-serif; font-size: 12px; font-weight: 200;" fill="rgb(50, 49, 63)" stroke="none" stroke-width="1px">1.6</text><text x="0" y="63" dx="0em" dy="0.3em" style="text-anchor: end; visibility: inherit; font-family: &quot;Helvetica Neue&quot;, sans-serif; font-size: 12px; font-weight: 200;" fill="rgb(50, 49, 63)" stroke="none" stroke-width="1px">1.8</text><text x="0" y="31.5" dx="0em" dy="0.3em" style="text-anchor: end; visibility: inherit; font-family: &quot;Helvetica Neue&quot;, sans-serif; font-size: 12px; font-weight: 200;" fill="rgb(50, 49, 63)" stroke="none" stroke-width="1px">2</text><text x="0" y="0" dx="0em" dy="0.3em" style="text-anchor: end; visibility: hidden; font-family: &quot;Helvetica Neue&quot;, sans-serif; font-size: 12px; font-weight: 200;" fill="rgb(50, 49, 63)" stroke="none" stroke-width="1px">2.2</text></g><line x1="50" y1="0" x2="50" y2="378" fill="rgb(0, 0, 0)" stroke="rgb(204, 204, 204)" stroke-width="1px"></line></g></g><g transform="translate(50, 0)" clip-path="url(#clip_0)"><clipPath id="clip_0"><rect width="1446" height="378"></rect></clipPath><g><g><g><line x1="0" y1="0" x2="0" y2="378" fill="rgb(0, 0, 0)" stroke="rgb(60, 60, 60)" stroke-width="1px" opacity="0.25"></line><line x1="131.45454545454547" y1="0" x2="131.45454545454547" y2="378" fill="rgb(0, 0, 0)" stroke="rgb(60, 60, 60)" stroke-width="1px" opacity="0.25"></line><line x1="262.90909090909093" y1="0" x2="262.90909090909093" y2="378" fill="rgb(0, 0, 0)" stroke="rgb(60, 60, 60)" stroke-width="1px" opacity="0.25"></line><line x1="394.3636363636363" y1="0" x2="394.3636363636363" y2="378" fill="rgb(0, 0, 0)" stroke="rgb(60, 60, 60)" stroke-width="1px" opacity="0.25"></line><line x1="525.8181818181819" y1="0" x2="525.8181818181819" y2="378" fill="rgb(0, 0, 0)" stroke="rgb(60, 60, 60)" stroke-width="1px" opacity="0.25"></line><line x1="657.2727272727273" y1="0" x2="657.2727272727273" y2="378" fill="rgb(0, 0, 0)" stroke="rgb(60, 60, 60)" stroke-width="1px" opacity="0.25"></line><line x1="788.7272727272726" y1="0" x2="788.7272727272726" y2="378" fill="rgb(0, 0, 0)" stroke="rgb(60, 60, 60)" stroke-width="1px" opacity="0.25"></line><line x1="920.1818181818181" y1="0" x2="920.1818181818181" y2="378" fill="rgb(0, 0, 0)" stroke="rgb(60, 60, 60)" stroke-width="1px" opacity="0.25"></line><line x1="1051.6363636363637" y1="0" x2="1051.6363636363637" y2="378" fill="rgb(0, 0, 0)" stroke="rgb(60, 60, 60)" stroke-width="1px" opacity="0.25"></line><line x1="1183.0909090909092" y1="0" x2="1183.0909090909092" y2="378" fill="rgb(0, 0, 0)" stroke="rgb(60, 60, 60)" stroke-width="1px" opacity="0.25"></line><line x1="1314.5454545454545" y1="0" x2="1314.5454545454545" y2="378" fill="rgb(0, 0, 0)" stroke="rgb(60, 60, 60)" stroke-width="1px" opacity="0.25"></line><line x1="1446" y1="0" x2="1446" y2="378" fill="rgb(0, 0, 0)" stroke="rgb(60, 60, 60)" stroke-width="1px" opacity="0.25"></line></g><g><line x1="0" y1="378" x2="1446" y2="378" fill="rgb(0, 0, 0)" stroke="rgb(60, 60, 60)" stroke-width="1px" opacity="0.25"></line><line x1="0" y1="346.5" x2="1446" y2="346.5" fill="rgb(0, 0, 0)" stroke="rgb(60, 60, 60)" stroke-width="1px" opacity="0.25"></line><line x1="0" y1="315" x2="1446" y2="315" fill="rgb(0, 0, 0)" stroke="rgb(60, 60, 60)" stroke-width="1px" opacity="0.25"></line><line x1="0" y1="283.5" x2="1446" y2="283.5" fill="rgb(0, 0, 0)" stroke="rgb(60, 60, 60)" stroke-width="1px" opacity="0.25"></line><line x1="0" y1="252" x2="1446" y2="252" fill="rgb(0, 0, 0)" stroke="rgb(60, 60, 60)" stroke-width="1px" opacity="0.25"></line><line x1="0" y1="220.5" x2="1446" y2="220.5" fill="rgb(0, 0, 0)" stroke="rgb(60, 60, 60)" stroke-width="1px" opacity="0.25"></line><line x1="0" y1="189.00000000000003" x2="1446" y2="189.00000000000003" fill="rgb(0, 0, 0)" stroke="rgb(60, 60, 60)" stroke-width="1px" opacity="0.25"></line><line x1="0" y1="157.50000000000003" x2="1446" y2="157.50000000000003" fill="rgb(0, 0, 0)" stroke="rgb(60, 60, 60)" stroke-width="1px" opacity="0.25"></line><line x1="0" y1="126.00000000000006" x2="1446" y2="126.00000000000006" fill="rgb(0, 0, 0)" stroke="rgb(60, 60, 60)" stroke-width="1px" opacity="0.25"></line><line x1="0" y1="94.50000000000006" x2="1446" y2="94.50000000000006" fill="rgb(0, 0, 0)" stroke="rgb(60, 60, 60)" stroke-width="1px" opacity="0.25"></line><line x1="0" y1="63" x2="1446" y2="63" fill="rgb(0, 0, 0)" stroke="rgb(60, 60, 60)" stroke-width="1px" opacity="0.25"></line><line x1="0" y1="31.5" x2="1446" y2="31.5" fill="rgb(0, 0, 0)" stroke="rgb(60, 60, 60)" stroke-width="1px" opacity="0.25"></line><line x1="0" y1="0" x2="1446" y2="0" fill="rgb(0, 0, 0)" stroke="rgb(60, 60, 60)" stroke-width="1px" opacity="0.25"></line></g></g></g><g><g><line x1="0" y1="346.5" x2="1446" y2="346.5" fill="rgb(0, 0, 0)" stroke="rgb(153, 153, 153)" stroke-width="1.5px"></line></g></g><g><g><line x1="131.45454545454547" y1="0" x2="131.45454545454547" y2="378" fill="rgb(0, 0, 0)" stroke="rgb(153, 153, 153)" stroke-width="1.5px"></line></g></g><g><g><g><g><g><path style="fill: none;" stroke="rgb(51, 187, 238)" stroke-width="2px" d="M131.45454545454547,36.872335910797176L138.02727272727273,38.31485474109655L144.6,39.98229787179406L151.17272727272726,41.830553304623265L157.74545454545455,43.830823908821856L164.3181818181818,45.935453217728764L170.89090909090908,48.125162188252546L177.46363636363637,50.36255147709852L184.0363636363636,52.615408998044586L190.6090909090909,54.877411627546735L197.18181818181816,57.119017661993496L203.75454545454545,59.31264686073854L210.3272727272727,61.43327772940779L216.9,63.463817584521564L223.47272727272727,65.39210070008318L230.04545454545453,67.20073847967438L236.61818181818182,68.8702938401824L243.1909090909091,70.3997306252279L249.76363636363638,71.80153447027749L256.3363636363636,73.074691433912L262.90909090909093,74.24718645323799L269.4818181818182,75.34289910025768L276.05454545454546,76.38580329072852L282.6272727272727,77.39843707003774L289.2,78.39112264043581L295.7727272727273,79.37544500725494L302.3454545454545,80.37535037752377L308.9181818181818,81.39482717031802L315.4909090909091,82.4413602412215L322.06363636363636,83.50930919775357L328.6363636363636,84.60321301742056L335.2090909090909,85.73166802877944L341.78181818181815,86.89435708921906L348.3545454545455,88.10174685839132L354.92727272727274,89.35443962655211L361.5,90.66412212436273L368.0727272727272,92.03473472242331L374.6454545454545,93.47143543088316L381.2181818181818,94.96619647075295L387.7909090909091,96.52207184838352L394.3636363636363,98.13273790612124L400.93636363636364,99.79391979735146L407.5090909090909,101.50116755750031L414.0818181818182,103.23597222707679L420.6545454545454,105.00169304712296L427.22727272727275,106.7938868029263L433.8,108.59509250071505L440.3727272727273,110.41409716936181L446.94545454545454,112.2606415864015L453.51818181818186,114.12814837196095L460.09090909090907,116.00208173692323L466.6636363636364,117.86690846980218L473.23636363636365,119.74342448652476L479.80909090909097,121.65589081729075L486.3818181818182,123.60773398569123L492.95454545454544,125.57840424830329L499.52727272727276,127.57947667869743L506.09999999999997,129.601156118112L512.6727272727272,131.6358681694254L519.2454545454545,133.67400632951185L525.8181818181819,135.72104193361722L532.3909090909091,137.74827190394478L538.9636363636364,139.73244371506738L545.5363636363636,141.64368425901634L552.1090909090909,143.49142176566068L558.6818181818181,145.28710352574316L565.2545454545455,147.04229928967078L571.8272727272728,148.80165954778627L578.4,150.55615101069236L584.9727272727273,152.29551714545505L591.5454545454546,153.99941729239237L598.1181818181818,155.68318690497642L604.690909090909,157.36152471088747L611.2636363636364,159.05993757834074L617.8363636363636,160.7477597844007L624.4090909090909,162.420846226895L630.9818181818182,164.05607185547598L637.5545454545455,165.66816042533546L644.1272727272727,167.22010401887317L650.7,168.72252490522038L657.2727272727273,170.2058290386294L663.8454545454546,171.63525310421554L670.4181818181818,173.01126803913456L676.9909090909091,174.38974679683892L683.5636363636363,175.7488630841687L690.1363636363636,177.10138620320052L696.709090909091,178.4231871210521L703.2818181818183,179.73920938032776L709.8545454545455,181.0233984748001L716.4272727272728,182.26302814242098L723,183.42072229240452L729.5727272727272,184.5778535405047L736.1454545454544,185.72616053815167L742.7181818181818,186.8952858996122L749.290909090909,188.13074279735858L755.8636363636364,189.371943681898L762.4363636363636,190.58605830041304L769.009090909091,191.76757524113498L775.5818181818182,192.9076451402941L782.1545454545454,193.92304020774597L788.7272727272726,194.84035631210944L795.3000000000001,195.70643285626974L801.8727272727273,196.6083622319389L808.4454545454545,197.51627599852614L815.0181818181818,198.42241812740167L821.5909090909091,199.30445602532865L828.1636363636364,200.12953124640376L834.7363636363636,200.98128389238113L841.3090909090909,201.8729328925538L847.8818181818181,202.7874006876426L854.4545454545455,203.68247739369136L861.0272727272727,204.51302896675148L867.6,205.25747243605068L874.1727272727272,206.00571751619583L880.7454545454545,206.79285196080926L887.3181818181819,207.6045967555948L893.8909090909091,208.45707047086404L900.4636363636363,209.30452659190567L907.0363636363637,210.11729043996854L913.6090909090909,210.83823763296917L920.1818181818181,211.4728900132532L926.7545454545455,212.00652497637003L933.3272727272728,212.4926209665998L939.9,212.94020127163316L946.4727272727273,213.35165701452485L953.0454545454545,213.81587522115464L959.6181818181819,214.3393433266053L966.1909090909091,214.97059433300313L972.7636363636364,215.61014362954506L979.3363636363636,216.18816169967303L985.9090909090909,216.74468319934635L992.4818181818182,217.29131458593625L999.0545454545455,217.89259656902087L1005.6272727272727,218.52058565995654L1012.1999999999999,219.1036463521812L1018.7727272727274,219.60238345521054L1025.3454545454545,220.06007560525754L1031.918181818182,220.4605465795661L1038.490909090909,220.78844298518095L1045.0636363636365,221.1099024748587L1051.6363636363637,221.42543075894022L1058.209090909091,221.73297306546394L1064.7818181818182,222.10389749198453L1071.3545454545456,222.5471201657611L1077.9272727272728,222.98627619262683L1084.5,223.39858412931056L1091.0727272727272,223.82314167135775L1097.6454545454544,224.36239205428254L1104.2181818181818,224.89796983378108L1110.790909090909,225.42456610904324L1117.3636363636363,225.84843397084586L1123.9363636363635,226.15121791329216L1130.509090909091,226.38328913191694L1137.081818181818,226.62634890878044L1143.6545454545455,226.96159915687943L1150.2272727272727,227.27397890426104L1156.8,227.51504825077882L1163.3727272727274,227.72390194250602L1169.9454545454546,227.9159909696189L1176.5181818181818,228.0623365527873L1183.0909090909092,228.25891016045122L1189.6636363636364,228.5550710208351L1196.2363636363636,228.88055671734423L1202.8090909090909,229.26836797882802L1209.381818181818,229.6619416790586L1215.9545454545455,230.02141816123614L1222.5272727272727,230.28721200647524L1229.1,230.44068016542542L1235.6727272727271,230.46325805147617L1242.2454545454545,230.68636148190575L1248.8181818181818,231.07553979764032L1255.390909090909,231.55866281395944L1261.9636363636364,232.00940103653545L1268.5363636363636,232.35146860673115L1275.109090909091,232.53149370189956L1281.6818181818182,232.63798419139655L1288.2545454545455,232.7006092637889L1294.8272727272729,232.85491136134343L1301.4,233.189853807811L1307.9727272727273,233.72192081244236L1314.5454545454545,234.32603360671666L1321.118181818182,234.7990925160579L1327.6909090909091,235.0907872705181L1334.2636363636364,235.1722760312867L1340.8363636363636,235.07658320147468L1347.4090909090908,234.75749011921093L1353.9818181818182,234.66955841831688L1360.5545454545454,234.86490963251785L1367.1272727272726,235.19241305799125L1373.7,235.44601880676055L1380.2727272727273,235.66997211674752L1386.8454545454545,235.9828574508423L1393.418181818182,236.37157998383012L1399.990909090909,236.68373428523523" fill="none"></path></g><g><path stroke="rgb(0, 119, 187)" stroke-width="2px" d="M131.45454545454547,34.93421995639801L138.02727272727273,36.23021976649761L144.6,38.12491066115251L151.17272727272726,39.394347783397336L157.74545454545455,41.518770893070155L164.3181818181818,42.621402469400664L170.89090909090908,45.60236966902255L177.46363636363637,48.12628194980681L184.0363636363636,50.365028002636336L190.6090909090909,53.84690776504573L197.18181818181816,55.329527143345445L203.75454545454545,57.06415651466699L210.3272727272727,59.64792845081729L216.9,62.361547957714606L223.47272727272727,64.8535025853576L230.04545454545453,66.37702043086512L236.61818181818182,68.12988573007829L243.1909090909091,69.02939341273583L249.76363636363638,71.30485427774329L256.3363636363636,72.17399120150282L262.90909090909093,74.66450906958659L269.4818181818182,76.36084150722849L276.05454545454546,77.65452302403014L282.6272727272727,77.82570200555716L289.2,77.38899579699392L295.7727272727273,77.90472897680132L302.3454545454545,80.48980184008263L308.9181818181818,81.51460486169401L315.4909090909091,84.02317266814265L322.06363636363636,84.77625766446778L328.6363636363636,88.25335426586867L335.2090909090909,88.78668574440042L341.78181818181815,89.9234548393174L348.3545454545455,92.11729406343903L354.92727272727274,95.12794043844991L361.5,95.80464615462466L368.0727272727272,97.6551786181904L374.6454545454545,101.59113770501472L381.2181818181818,103.0575741668033L387.7909090909091,104.89557796601702L394.3636363636363,107.83532649445436L400.93636363636364,112.06929055756171L407.5090909090909,112.76063134634097L414.0818181818182,112.57472614263412L420.6545454545454,115.00196359072476L427.22727272727275,117.68440388168347L433.8,120.01353155696438L440.3727272727273,122.13740829904111L446.94545454545454,124.7580777423689L453.51818181818186,125.33076109988613L460.09090909090907,130.21844624583184L466.6636363636364,132.1500923341823L473.23636363636365,135.4086348835473L479.80909090909097,135.74516528986993L486.3818181818182,139.5204146512956L492.95454545454544,142.00061091236034L499.52727272727276,142.69275417597171L506.09999999999997,146.5276753107975L512.6727272727272,149.30870907308307L519.2454545454545,151.1480809021095L525.8181818181819,153.21278991509087L532.3909090909091,157.677908290676L538.9636363636364,161.69534689739453L545.5363636363636,163.5729473981566L552.1090909090909,165.06427739580317L558.6818181818181,165.34414142680075L565.2545454545455,167.79045478291454L571.8272727272728,170.83747703902216L578.4,174.4948861305254L584.9727272727273,175.54685967590436L591.5454545454546,180.00325151339783L598.1181818181818,178.85950925383338L604.690909090909,179.33220564385277L611.2636363636364,183.47963354027286L617.8363636363636,184.907404285884L624.4090909090909,187.80770454538833L630.9818181818182,191.85739058096985L637.5545454545455,194.05358287000527L644.1272727272727,194.24033193769378L650.7,195.55337265123325L657.2727272727273,199.05782259100314L663.8454545454546,196.19772084113143L670.4181818181818,198.91581960651985L676.9909090909091,198.76688512643406L683.5636363636363,205.56198357629916L690.1363636363636,205.45298931055152L696.709090909091,206.09298689992954L703.2818181818183,210.52270346779662L709.8545454545455,211.5915734761896L716.4272727272728,213.57949422561782L723,215.35622741439136L729.5727272727272,213.58003021274922L736.1454545454544,214.32040254470658L742.7181818181818,213.17828331111045L749.290909090909,211.8153752667795L755.8636363636364,215.65349092382732L762.4363636363636,220.5455454963359L769.009090909091,222.53400673734623L775.5818181818182,222.53561136881993L782.1545454545454,225.50175675010973L788.7272727272726,225.75759735260186L795.3000000000001,223.3944874558078L801.8727272727273,227.25645072181385L808.4454545454545,226.0473075683079L815.0181818181818,227.3432293400265L821.5909090909091,230.2511440792738L828.1636363636364,231.49790755981556L834.7363636363636,234.8534155969283L841.3090909090909,234.1886033823765L847.8818181818181,235.71674321953515L854.4545454545455,237.0501081995014L861.0272727272727,239.23431440900828L867.6,241.1222361964647L874.1727272727272,243.95817160860682L880.7454545454545,244.33009210977545L887.3181818181819,243.5718359336471L893.8909090909091,242.24366172463988L900.4636363636363,243.53520453161772L907.0363636363637,243.63320717922915L913.6090909090909,244.1739523751263L920.1818181818181,246.60393625156428L926.7545454545455,248.41786054167952L933.3272727272728,248.13588043089993L939.9,248.0324252607601L946.4727272727273,246.87523572219473L953.0454545454545,243.84253194673695L959.6181818181819,245.57915888276003L966.1909090909091,249.02169441012325L972.7636363636364,251.3528397132622L979.3363636363636,253.40825128851338L985.9090909090909,255.41888126312494L992.4818181818182,252.95904215919262L999.0545454545455,252.88117094485332L1005.6272727272727,254.9698529818557L1012.1999999999999,253.02804915779245L1018.7727272727274,257.0953129212464L1025.3454545454545,258.77383047821553L1031.918181818182,259.6143613486435L1038.490909090909,260.0244908826915L1045.0636363636365,257.9423698721747L1051.6363636363637,259.0799017273439L1058.209090909091,258.9486396982105L1064.7818181818182,258.4745763703484L1071.3545454545456,261.5471874215781L1077.9272727272728,259.4733325325596L1084.5,259.76784904498743L1091.0727272727272,261.1431732517414L1097.6454545454544,260.43177636515696L1104.2181818181818,263.2842343333459L1110.790909090909,263.5402877857146L1117.3636363636363,263.5777410465394L1123.9363636363635,263.9073683141419L1130.509090909091,265.56388362757855L1137.081818181818,265.9044198424369L1143.6545454545455,264.7247984308451L1150.2272727272727,266.04322099080383L1156.8,264.6384277903479L1163.3727272727274,265.63133779546274L1169.9454545454546,268.56016978252325L1176.5181818181818,269.7818294204974L1183.0909090909092,271.30487603769916L1189.6636363636364,271.5197404553069L1196.2363636363636,270.85433685359794L1202.8090909090909,272.53543477998636L1209.381818181818,273.4828254446177L1215.9545454545455,274.01068606762817L1222.5272727272727,274.2589846538825L1229.1,272.3121940426424L1235.6727272727271,274.6214574833151L1242.2454545454545,274.5946350907944L1248.8181818181818,275.782531369666L1255.390909090909,277.58806680377705L1261.9636363636364,278.1505905135655L1268.5363636363636,279.2217822458853L1275.109090909091,276.964801620633L1281.6818181818182,278.51599412035387L1288.2545454545455,278.7693866662469L1294.8272727272729,276.4747014744452L1301.4,276.1429288806541L1307.9727272727273,277.6073863757863L1314.5454545454545,278.7380200775393L1321.118181818182,278.35290174197723L1327.6909090909091,277.64346761412367L1334.2636363636364,277.60494592134324L1340.8363636363636,278.7910703619967L1347.4090909090908,277.3749368131548L1353.9818181818182,278.0910251641506L1360.5545454545454,278.62189481879676L1367.1272727272726,279.72543374434355L1373.7,282.4818642540887L1380.2727272727273,282.92452870035856L1386.8454545454545,282.3752084328216L1393.418181818182,281.53614783605826L1399.990909090909,283.33881712151106" style="fill: none;" fill="none"></path></g></g></g></g><g opacity="0.2"><g><g><g><path style="fill: none;" stroke="rgb(51, 187, 238)" stroke-width="2px" d="M131.45454545454547,36.872335910797176L138.02727272727273,39.18036603927618L144.6,41.58304327726364L151.17272727272726,44.004101693630275L157.74545454545455,46.44237720966339L164.3181818181818,48.84691321849823L170.89090909090908,51.25648105144501L177.46363636363637,53.624686539173126L184.0363636363636,55.93793624639511L190.6090909090909,58.23622190952301L197.18181818181816,60.4610955119133L203.75454545454545,62.591153025627136L210.3272727272727,64.60729980468756L216.9,66.50564932823187L223.47272727272727,68.28225874900824L230.04545454545453,69.91241955757147L236.61818181818182,71.37392038106924L243.1909090909091,72.693497478962L249.76363636363638,73.90402668714529L256.3363636363636,74.98431050777441L262.90909090909093,76.00586467981344L269.4818181818182,76.9864320158959L276.05454545454546,77.95013898611074L282.6272727272727,78.91737574338919L289.2,79.88014394044882L295.7727272727273,80.85192435979849L302.3454545454545,81.87520587444311L308.9181818181818,82.92404079437262L315.4909090909091,84.01115888357168L322.06363636363636,85.11123204231268L328.6363636363636,86.24406838417059L335.2090909090909,87.42435032129293L341.78181818181815,88.63839054107672L348.3545454545455,89.91283142566687L354.92727272727274,91.23347872495657L361.5,92.62864583730703L368.0727272727272,94.09065359830862L374.6454545454545,95.62648648023605L381.2181818181818,97.20833802223211L387.7909090909091,98.85588490962988L394.3636363636363,100.54873698949814L400.93636363636364,102.28569263219839L407.5090909090909,104.06203919649124L414.0818181818182,105.83817923069L420.6545454545454,107.65027427673346L427.22727272727275,109.48217743635183L433.8,111.29690104722982L440.3727272727273,113.14260417222982L446.94545454545454,115.03045821189886L453.51818181818186,116.92940855026245L460.09090909090907,118.81298178434378L466.6636363636364,120.66414856910711L473.23636363636365,122.55819851160055L479.80909090909097,124.52459031343463L486.3818181818182,126.53549873828891L492.95454545454544,128.53440964221957L499.52727272727276,130.58108532428744L506.09999999999997,132.63367527723315L512.6727272727272,134.68793624639514L519.2454545454545,136.73121356964117L525.8181818181819,138.7915953397751L532.3909090909091,140.78911685943606L538.9636363636364,142.70870143175128L545.5363636363636,144.51054507493976L552.1090909090909,146.26302802562716L558.6818181818181,147.98062616586688L565.2545454545455,149.67509293556216L571.8272727272728,151.44069993495944L578.4,153.18788820505145L584.9727272727273,154.90456634759906L591.5454545454546,156.55526751279834L598.1181818181818,158.20884132385257L604.690909090909,159.87903141975406L611.2636363636364,161.60755687952044L617.8363636363636,163.27949309349063L624.4090909090909,164.93047589063647L630.9818181818182,166.5089102983475L637.5545454545455,168.0862932801247L644.1272727272727,169.54801940917972L650.7,170.97615623474124L657.2727272727273,172.43078523874286L663.8454545454546,173.7793892025948L670.4181818181818,175.07529044151312L676.9909090909091,176.4574649333954L683.5636363636363,177.78753751516345L690.1363636363636,179.13017088174826L696.709090909091,180.40588849782947L703.2818181818183,181.7132427692414L709.8545454545455,182.9496821165085L716.4272727272728,184.12247264385226L723,185.15726351737982L729.5727272727272,186.3135504126549L736.1454545454544,187.44862103462225L742.7181818181818,188.648973941803L749.290909090909,189.98392814397815L755.8636363636364,191.23374500870707L762.4363636363636,192.40723022818568L769.009090909091,193.5398506522179L775.5818181818182,194.61774998903277L782.1545454545454,195.44613280892375L788.7272727272726,196.21633046865466L795.3000000000001,197.00554767251018L801.8727272727273,197.9612562954426L808.4454545454545,198.878146648407L815.0181818181818,199.78163132071498L821.5909090909091,200.6275128722191L828.1636363636364,201.3671440780163L834.7363636363636,202.25891286134723L841.3090909090909,203.21040639281276L847.8818181818181,204.15910238027575L854.4545454545455,205.02509245276454L861.0272727272727,205.75885632634166L867.6,206.37413763999942L874.1727272727272,207.1280851364136L880.7454545454545,207.97355362772944L887.3181818181819,208.822213947773L893.8909090909091,209.73578104376796L900.4636363636363,210.57571077346805L907.0363636363637,211.33643621206286L913.6090909090909,211.91965842247012L920.1818181818181,212.42486858367923L926.7545454545455,212.80697742104533L933.3272727272728,213.22176495194438L939.9,213.61157172918323L946.4727272727273,213.9688406288624L953.0454545454545,214.51220253109935L959.6181818181819,215.1245454847813L966.1909090909091,215.9174708425999L972.7636363636364,216.56946757435801L979.3363636363636,217.0551888048649L985.9090909090909,217.57946544885638L992.4818181818182,218.1112616658211L999.0545454545455,218.7945195436478L1005.6272727272727,219.46256929636004L1012.1999999999999,219.97823739051822L1018.7727272727274,220.3504891097546L1025.3454545454545,220.74661383032802L1031.918181818182,221.061253041029L1038.490909090909,221.28028759360316L1045.0636363636365,221.5920917093754L1051.6363636363637,221.89872318506244L1058.209090909091,222.1942865252495L1064.7818181818182,222.6602841317654L1071.3545454545456,223.21195417642596L1077.9272727272728,223.64501023292544L1084.5,224.01704603433612L1091.0727272727272,224.45997798442843L1097.6454545454544,225.17126762866977L1104.2181818181818,225.7013365030289L1110.790909090909,226.21446052193645L1117.3636363636363,226.48423576354983L1123.9363636363635,226.60539382696155L1130.509090909091,226.73139595985415L1137.081818181818,226.99093857407573L1143.6545454545455,227.46447452902797L1150.2272727272727,227.74254852533343L1156.8,227.87665227055552L1163.3727272727274,228.03718248009685L1169.9454545454546,228.20412451028827L1176.5181818181818,228.28185492753985L1183.0909090909092,228.55377057194713L1189.6636363636364,228.99931231141093L1196.2363636363636,229.36878526210788L1202.8090909090909,229.85008487105372L1209.381818181818,230.25230222940448L1215.9545454545455,230.56063288450244L1222.5272727272727,230.68590277433398L1229.1,230.67088240385058L1235.6727272727271,230.49712488055232L1242.2454545454545,231.02101662755015L1248.8181818181818,231.65930727124217L1255.390909090909,232.28334733843806L1261.9636363636364,232.6855083703995L1268.5363636363636,232.86456996202472L1275.109090909091,232.8015313446522L1281.6818181818182,232.79771992564204L1288.2545454545455,232.79454687237742L1294.8272727272729,233.0863645076752L1301.4,233.6922674775124L1307.9727272727273,234.52002131938937L1314.5454545454545,235.23220279812816L1321.118181818182,235.50868088006976L1327.6909090909091,235.52832940220836L1334.2636363636364,235.2945091724396L1340.8363636363636,234.93304395675662L1347.4090909090908,234.2788504958153L1353.9818181818182,234.5376608669758L1360.5545454545454,235.1579364538193L1367.1272727272726,235.68366819620135L1373.7,235.8264274299145L1380.2727272727273,236.005902081728L1386.8454545454545,236.45218545198443L1393.418181818182,236.95466378331187L1399.990909090909,237.15196573734286" fill="none"></path></g><g><path stroke="rgb(0, 119, 187)" stroke-width="2px" d="M131.45454545454547,34.93421995639801L138.02727272727273,37.00781965255737L144.6,39.943813920021114L151.17272727272726,40.887205839157104L157.74545454545455,44.29241770505905L164.3181818181818,44.14673888683319L170.89090909090908,49.86520045995712L177.46363636363637,51.80617028474808L184.0363636363636,53.66674357652664L190.6090909090909,59.01709342002869L197.18181818181816,57.54000896215439L203.75454545454545,59.65666079521179L210.3272727272727,63.51514989137655L216.9,66.4266609549523L223.47272727272727,68.58850532770163L230.04545454545453,68.66122269630438L236.61818181818182,70.75844192504888L243.1909090909091,70.3784265518189L249.76363636363638,74.71769893169409L256.3363636363636,73.47761714458471L262.90909090909093,78.40014928579336L269.4818181818182,78.90528434515005L276.05454545454546,79.5950197577477L282.6272727272727,78.08246845006948L289.2,76.73393958806997L295.7727272727273,78.6783265471459L302.3454545454545,84.36740452051168L308.9181818181818,83.05180782079702L315.4909090909091,87.78602206707006L322.06363636363636,85.90588474273687L328.6363636363636,93.46899801492697L335.2090909090909,89.58668285608297L341.78181818181815,91.62860834598547L348.3545454545455,95.40805274248123L354.92727272727274,99.64390987157822L361.5,96.81970471143723L368.0727272727272,100.43097728490835L374.6454545454545,107.49507629871368L381.2181818181818,105.25722885131836L387.7909090909091,107.65258365869528L394.3636363636363,112.24494928121572L400.93636363636364,118.42023664712912L407.5090909090909,113.79764252901083L414.0818181818182,112.29586833715445L420.6545454545454,118.64281976222998L427.22727272727275,121.7080643177033L433.8,123.50722306966784L440.3727272727273,125.32322341203692L446.94545454545454,128.68908190727237L453.51818181818186,126.18978613615042L460.09090909090907,137.54997396469122L466.6636363636364,135.04756146669394L473.23636363636365,140.29644870758062L479.80909090909097,136.24996089935308L486.3818181818182,145.18328869342807L492.95454545454544,145.72090530395513L499.52727272727276,143.73096907138827L506.09999999999997,152.28005701303488L512.6727272727272,153.48025971651083L519.2454545454545,153.90713864564898L525.8181818181819,156.3098534345627L532.3909090909091,164.37558585405355L538.9636363636364,167.72150480747226L545.5363636363636,166.38934814929965L552.1090909090909,167.30127239227298L558.6818181818181,165.76393747329715L565.2545454545455,171.45992481708532L571.8272727272728,175.4080104231835L578.4,179.98099976778033L584.9727272727273,177.1248199939728L591.5454545454546,186.6878392696381L598.1181818181818,177.14389586448672L604.690909090909,180.0412502288819L611.2636363636364,189.70077538490298L617.8363636363636,187.04906040430072L624.4090909090909,192.15815493464473L630.9818181818182,197.93191963434222L637.5545454545455,197.34787130355838L644.1272727272727,194.52045553922656L650.7,197.5229337215424L657.2727272727273,204.31449750065806L663.8454545454546,191.90756821632388L670.4181818181818,202.99296775460246L676.9909090909091,198.54348340630534L683.5636363636363,215.75463125109675L690.1363636363636,205.2894979119301L696.709090909091,207.0529832839966L703.2818181818183,217.16727831959727L709.8545454545455,213.1948784887791L716.4272727272728,216.56137534976008L723,218.02132719755176L729.5727272727272,210.91573441028598L736.1454545454544,215.43096104264262L742.7181818181818,211.46510446071628L749.290909090909,209.77101320028308L755.8636363636364,221.41066440939906L762.4363636363636,227.88362735509875L769.009090909091,225.51669859886172L775.5818181818182,222.53801831603053L782.1545454545454,229.9509748220444L788.7272727272726,226.14135825634006L795.3000000000001,219.8498226106167L801.8727272727273,233.04939562082293L808.4454545454545,224.23359283804896L815.0181818181818,229.2871119976044L821.5909090909091,234.6130161881447L828.1636363636364,233.36805278062823L834.7363636363636,239.88667765259746L841.3090909090909,233.1913850605488L847.8818181818181,238.00895297527316L854.4545454545455,239.0501556694508L861.0272727272727,242.51062372326854L867.6,243.95411887764934L874.1727272727272,248.21207472682002L880.7454545454545,244.88797286152843L887.3181818181819,242.4344516694546L893.8909090909091,240.25140041112903L900.4636363636363,245.47251874208453L907.0363636363637,243.78021115064624L913.6090909090909,244.98507016897204L920.1818181818181,250.24891206622127L926.7545454545455,251.13874697685245L933.3272727272728,247.71291026473048L939.9,247.8772425055504L946.4727272727273,245.13945141434672L953.0454545454545,239.2934762835503L959.6181818181819,248.1840992867947L966.1909090909091,254.1854977011681L972.7636363636364,254.84955766797069L979.3363636363636,256.4913686513901L985.9090909090909,258.43482622504234L992.4818181818182,249.26928350329402L999.0545454545455,252.76436412334445L1005.6272727272727,258.10287603735924L1012.1999999999999,250.11534342169762L1018.7727272727274,263.19620856642723L1025.3454545454545,261.2916068136692L1031.918181818182,260.87515765428543L1038.490909090909,260.6396851837635L1045.0636363636365,254.81918835639954L1051.6363636363637,260.7861995100975L1058.209090909091,258.7517466545105L1064.7818181818182,257.7634813785553L1071.3545454545456,266.1561039984226L1077.9272727272728,256.36255019903183L1084.5,260.20962381362915L1091.0727272727272,263.2061595618725L1097.6454545454544,259.3646810352802L1104.2181818181818,267.5629212856293L1110.790909090909,263.92436796426773L1117.3636363636363,263.63392093777657L1123.9363636363635,264.40180921554565L1130.509090909091,268.0486565977335L1137.081818181818,266.41522416472435L1143.6545454545455,262.9553663134575L1150.2272727272727,268.0208548307419L1156.8,262.5312379896641L1163.3727272727274,267.1207028031349L1169.9454545454546,272.953417763114L1176.5181818181818,271.6143188774586L1183.0909090909092,273.58944596350193L1189.6636363636364,271.84203708171844L1196.2363636363636,269.85623145103455L1202.8090909090909,275.057081669569L1209.381818181818,274.90391144156456L1215.9545454545455,274.80247700214386L1222.5272727272727,274.63143253326416L1229.1,269.392008125782L1235.6727272727271,278.0853526443243L1242.2454545454545,274.5544015020132L1248.8181818181818,277.5643757879734L1255.390909090909,280.29636995494366L1261.9636363636364,278.994376078248L1268.5363636363636,280.8285698443651L1275.109090909091,273.5793306827545L1281.6818181818182,280.84278286993504L1288.2545454545455,279.14947548508644L1294.8272727272729,273.0326736867428L1301.4,275.64526998996735L1307.9727272727273,279.8040726184845L1314.5454545454545,280.4339706301689L1321.118181818182,277.7752242386341L1327.6909090909091,276.57931642234325L1334.2636363636364,277.5471633821726L1340.8363636363636,280.5702570229769L1347.4090909090908,275.250736489892L1353.9818181818182,279.16515769064426L1360.5545454545454,279.418199300766L1367.1272727272726,281.3807421326637L1373.7,286.6165100187063L1380.2727272727273,283.5885253697634L1386.8454545454545,281.5512280315161L1393.418181818182,280.2775569409132L1399.990909090909,286.04282104969025" style="fill: none;" fill="none"></path></g></g></g></g></g></g><g transform="translate(50, 378)" clip-path="url(#clip_1)"><clipPath id="clip_1"><rect width="1446" height="22"></rect></clipPath><g><g><line x1="0" y1="0" x2="0" y2="5" style="visibility: inherit;" fill="rgb(0, 0, 0)" stroke="rgb(204, 204, 204)" stroke-width="1px"></line><line x1="131.45454545454547" y1="0" x2="131.45454545454547" y2="5" style="visibility: inherit;" fill="rgb(0, 0, 0)" stroke="rgb(204, 204, 204)" stroke-width="1px"></line><line x1="262.90909090909093" y1="0" x2="262.90909090909093" y2="5" style="visibility: inherit;" fill="rgb(0, 0, 0)" stroke="rgb(204, 204, 204)" stroke-width="1px"></line><line x1="394.3636363636363" y1="0" x2="394.3636363636363" y2="5" style="visibility: inherit;" fill="rgb(0, 0, 0)" stroke="rgb(204, 204, 204)" stroke-width="1px"></line><line x1="525.8181818181819" y1="0" x2="525.8181818181819" y2="5" style="visibility: inherit;" fill="rgb(0, 0, 0)" stroke="rgb(204, 204, 204)" stroke-width="1px"></line><line x1="657.2727272727273" y1="0" x2="657.2727272727273" y2="5" style="visibility: inherit;" fill="rgb(0, 0, 0)" stroke="rgb(204, 204, 204)" stroke-width="1px"></line><line x1="788.7272727272726" y1="0" x2="788.7272727272726" y2="5" style="visibility: inherit;" fill="rgb(0, 0, 0)" stroke="rgb(204, 204, 204)" stroke-width="1px"></line><line x1="920.1818181818181" y1="0" x2="920.1818181818181" y2="5" style="visibility: inherit;" fill="rgb(0, 0, 0)" stroke="rgb(204, 204, 204)" stroke-width="1px"></line><line x1="1051.6363636363637" y1="0" x2="1051.6363636363637" y2="5" style="visibility: inherit;" fill="rgb(0, 0, 0)" stroke="rgb(204, 204, 204)" stroke-width="1px"></line><line x1="1183.0909090909092" y1="0" x2="1183.0909090909092" y2="5" style="visibility: inherit;" fill="rgb(0, 0, 0)" stroke="rgb(204, 204, 204)" stroke-width="1px"></line><line x1="1314.5454545454545" y1="0" x2="1314.5454545454545" y2="5" style="visibility: inherit;" fill="rgb(0, 0, 0)" stroke="rgb(204, 204, 204)" stroke-width="1px"></line><line x1="1446" y1="0" x2="1446" y2="5" style="visibility: inherit;" fill="rgb(0, 0, 0)" stroke="rgb(204, 204, 204)" stroke-width="1px"></line></g><g transform="translate(0, 8)"><text x="0" y="0" dx="0em" dy="0.95em" style="text-anchor: middle; visibility: hidden; font-family: &quot;Helvetica Neue&quot;, sans-serif; font-size: 12px; font-weight: 200;" fill="rgb(50, 49, 63)" stroke="none" stroke-width="1px">-20</text><text x="131.45454545454547" y="0" dx="0em" dy="0.95em" style="text-anchor: middle; visibility: inherit; font-family: &quot;Helvetica Neue&quot;, sans-serif; font-size: 12px; font-weight: 200;" fill="rgb(50, 49, 63)" stroke="none" stroke-width="1px">0</text><text x="262.90909090909093" y="0" dx="0em" dy="0.95em" style="text-anchor: middle; visibility: inherit; font-family: &quot;Helvetica Neue&quot;, sans-serif; font-size: 12px; font-weight: 200;" fill="rgb(50, 49, 63)" stroke="none" stroke-width="1px">20</text><text x="394.3636363636363" y="0" dx="0em" dy="0.95em" style="text-anchor: middle; visibility: inherit; font-family: &quot;Helvetica Neue&quot;, sans-serif; font-size: 12px; font-weight: 200;" fill="rgb(50, 49, 63)" stroke="none" stroke-width="1px">40</text><text x="525.8181818181819" y="0" dx="0em" dy="0.95em" style="text-anchor: middle; visibility: inherit; font-family: &quot;Helvetica Neue&quot;, sans-serif; font-size: 12px; font-weight: 200;" fill="rgb(50, 49, 63)" stroke="none" stroke-width="1px">60</text><text x="657.2727272727273" y="0" dx="0em" dy="0.95em" style="text-anchor: middle; visibility: inherit; font-family: &quot;Helvetica Neue&quot;, sans-serif; font-size: 12px; font-weight: 200;" fill="rgb(50, 49, 63)" stroke="none" stroke-width="1px">80</text><text x="788.7272727272726" y="0" dx="0em" dy="0.95em" style="text-anchor: middle; visibility: inherit; font-family: &quot;Helvetica Neue&quot;, sans-serif; font-size: 12px; font-weight: 200;" fill="rgb(50, 49, 63)" stroke="none" stroke-width="1px">100</text><text x="920.1818181818181" y="0" dx="0em" dy="0.95em" style="text-anchor: middle; visibility: inherit; font-family: &quot;Helvetica Neue&quot;, sans-serif; font-size: 12px; font-weight: 200;" fill="rgb(50, 49, 63)" stroke="none" stroke-width="1px">120</text><text x="1051.6363636363637" y="0" dx="0em" dy="0.95em" style="text-anchor: middle; visibility: inherit; font-family: &quot;Helvetica Neue&quot;, sans-serif; font-size: 12px; font-weight: 200;" fill="rgb(50, 49, 63)" stroke="none" stroke-width="1px">140</text><text x="1183.0909090909092" y="0" dx="0em" dy="0.95em" style="text-anchor: middle; visibility: inherit; font-family: &quot;Helvetica Neue&quot;, sans-serif; font-size: 12px; font-weight: 200;" fill="rgb(50, 49, 63)" stroke="none" stroke-width="1px">160</text><text x="1314.5454545454545" y="0" dx="0em" dy="0.95em" style="text-anchor: middle; visibility: inherit; font-family: &quot;Helvetica Neue&quot;, sans-serif; font-size: 12px; font-weight: 200;" fill="rgb(50, 49, 63)" stroke="none" stroke-width="1px">180</text><text x="1446" y="0" dx="0em" dy="0.95em" style="text-anchor: middle; visibility: hidden; font-family: &quot;Helvetica Neue&quot;, sans-serif; font-size: 12px; font-weight: 200;" fill="rgb(50, 49, 63)" stroke="none" stroke-width="1px">200</text></g><line x1="0" y1="0" x2="1446" y2="0" fill="rgb(0, 0, 0)" stroke="rgb(204, 204, 204)" stroke-width="1px"></line></g></g></g></g></svg>