<svg viewBox="0 0 1496 400" xmlns="http://www.w3.org/2000/svg"><g><g><g><g><g><line x1="50" y1="378" x2="45" y2="378" style="visibility: inherit;" fill="rgb(0, 0, 0)" stroke="rgb(204, 204, 204)" stroke-width="1px"></line><line x1="50" y1="348.9230769230769" x2="45" y2="348.9230769230769" style="visibility: inherit;" fill="rgb(0, 0, 0)" stroke="rgb(204, 204, 204)" stroke-width="1px"></line><line x1="50" y1="319.8461538461538" x2="45" y2="319.8461538461538" style="visibility: inherit;" fill="rgb(0, 0, 0)" stroke="rgb(204, 204, 204)" stroke-width="1px"></line><line x1="50" y1="290.7692307692308" x2="45" y2="290.7692307692308" style="visibility: inherit;" fill="rgb(0, 0, 0)" stroke="rgb(204, 204, 204)" stroke-width="1px"></line><line x1="50" y1="261.6923076923077" x2="45" y2="261.6923076923077" style="visibility: inherit;" fill="rgb(0, 0, 0)" stroke="rgb(204, 204, 204)" stroke-width="1px"></line><line x1="50" y1="232.61538461538464" x2="45" y2="232.61538461538464" style="visibility: inherit;" fill="rgb(0, 0, 0)" stroke="rgb(204, 204, 204)" stroke-width="1px"></line><line x1="50" y1="203.53846153846155" x2="45" y2="203.53846153846155" style="visibility: inherit;" fill="rgb(0, 0, 0)" stroke="rgb(204, 204, 204)" stroke-width="1px"></line><line x1="50" y1="174.46153846153848" x2="45" y2="174.46153846153848" style="visibility: inherit;" fill="rgb(0, 0, 0)" stroke="rgb(204, 204, 204)" stroke-width="1px"></line><line x1="50" y1="145.38461538461542" x2="45" y2="145.38461538461542" style="visibility: inherit;" fill="rgb(0, 0, 0)" stroke="rgb(204, 204, 204)" stroke-width="1px"></line><line x1="50" y1="116.30769230769232" x2="45" y2="116.30769230769232" style="visibility: inherit;" fill="rgb(0, 0, 0)" stroke="rgb(204, 204, 204)" stroke-width="1px"></line><line x1="50" y1="87.23076923076928" x2="45" y2="87.23076923076928" style="visibility: inherit;" fill="rgb(0, 0, 0)" stroke="rgb(204, 204, 204)" stroke-width="1px"></line><line x1="50" y1="58.15384615384613" x2="45" y2="58.15384615384613" style="visibility: inherit;" fill="rgb(0, 0, 0)" stroke="rgb(204, 204, 204)" stroke-width="1px"></line><line x1="50" y1="29.076923076923038" x2="45" y2="29.076923076923038" style="visibility: inherit;" fill="rgb(0, 0, 0)" stroke="rgb(204, 204, 204)" stroke-width="1px"></line><line x1="50" y1="0" x2="45" y2="0" style="visibility: inherit;" fill="rgb(0, 0, 0)" stroke="rgb(204, 204, 204)" stroke-width="1px"></line></g><g transform="translate(40, 0)"><text x="0" y="378" dx="0em" dy="0.3em" style="text-anchor: end; visibility: hidden; font-family: &quot;Helvetica Neue&quot;, sans-serif; font-size: 12px; font-weight: 200;" fill="rgb(50, 49, 63)" stroke="none" stroke-width="1px">-0.1</text><text x="0" y="348.9230769230769" dx="0em" dy="0.3em" style="text-anchor: end; visibility: inherit; font-family: &quot;Helvetica Neue&quot;, sans-serif; font-size: 12px; font-weight: 200;" fill="rgb(50, 49, 63)" stroke="none" stroke-width="1px">0</text><text x="0" y="319.8461538461538" dx="0em" dy="0.3em" style="text-anchor: end; visibility: inherit; font-family: &quot;Helvetica Neue&quot;, sans-serif; font-size: 12px; font-weight: 200;" fill="rgb(50, 49, 63)" stroke="none" stroke-width="1px">0.1</text><text x="0" y="290.7692307692308" dx="0em" dy="0.3em" style="text-anchor: end; visibility: inherit; font-family: &quot;Helvetica Neue&quot;, sans-serif; font-size: 12px; font-weight: 200;" fill="rgb(50, 49, 63)" stroke="none" stroke-width="1px">0.2</text><text x="0" y="261.6923076923077" dx="0em" dy="0.3em" style="text-anchor: end; visibility: inherit; font-family: &quot;Helvetica Neue&quot;, sans-serif; font-size: 12px; font-weight: 200;" fill="rgb(50, 49, 63)" stroke="none" stroke-width="1px">0.3</text><text x="0" y="232.61538461538464" dx="0em" dy="0.3em" style="text-anchor: end; visibility: inherit; font-family: &quot;Helvetica Neue&quot;, sans-serif; font-size: 12px; font-weight: 200;" fill="rgb(50, 49, 63)" stroke="none" stroke-width="1px">0.4</text><text x="0" y="203.53846153846155" dx="0em" dy="0.3em" style="text-anchor: end; visibility: inherit; font-family: &quot;Helvetica Neue&quot;, sans-serif; font-size: 12px; font-weight: 200;" fill="rgb(50, 49, 63)" stroke="none" stroke-width="1px">0.5</text><text x="0" y="174.46153846153848" dx="0em" dy="0.3em" style="text-anchor: end; visibility: inherit; font-family: &quot;Helvetica Neue&quot;, sans-serif; font-size: 12px; font-weight: 200;" fill="rgb(50, 49, 63)" stroke="none" stroke-width="1px">0.6</text><text x="0" y="145.38461538461542" dx="0em" dy="0.3em" style="text-anchor: end; visibility: inherit; font-family: &quot;Helvetica Neue&quot;, sans-serif; font-size: 12px; font-weight: 200;" fill="rgb(50, 49, 63)" stroke="none" stroke-width="1px">0.7</text><text x="0" y="116.30769230769232" dx="0em" dy="0.3em" style="text-anchor: end; visibility: inherit; font-family: &quot;Helvetica Neue&quot;, sans-serif; font-size: 12px; font-weight: 200;" fill="rgb(50, 49, 63)" stroke="none" stroke-width="1px">0.8</text><text x="0" y="87.23076923076928" dx="0em" dy="0.3em" style="text-anchor: end; visibility: inherit; font-family: &quot;Helvetica Neue&quot;, sans-serif; font-size: 12px; font-weight: 200;" fill="rgb(50, 49, 63)" stroke="none" stroke-width="1px">0.9</text><text x="0" y="58.15384615384613" dx="0em" dy="0.3em" style="text-anchor: end; visibility: inherit; font-family: &quot;Helvetica Neue&quot;, sans-serif; font-size: 12px; font-weight: 200;" fill="rgb(50, 49, 63)" stroke="none" stroke-width="1px">1</text><text x="0" y="29.076923076923038" dx="0em" dy="0.3em" style="text-anchor: end; visibility: inherit; font-family: &quot;Helvetica Neue&quot;, sans-serif; font-size: 12px; font-weight: 200;" fill="rgb(50, 49, 63)" stroke="none" stroke-width="1px">1.1</text><text x="0" y="0" dx="0em" dy="0.3em" style="text-anchor: end; visibility: hidden; font-family: &quot;Helvetica Neue&quot;, sans-serif; font-size: 12px; font-weight: 200;" fill="rgb(50, 49, 63)" stroke="none" stroke-width="1px">1.2</text></g><line x1="50" y1="0" x2="50" y2="378" fill="rgb(0, 0, 0)" stroke="rgb(204, 204, 204)" stroke-width="1px"></line></g></g><g transform="translate(50, 0)" clip-path="url(#clip_0)"><clipPath id="clip_0"><rect width="1446" height="378"></rect></clipPath><g><g><g><line x1="0" y1="0" x2="0" y2="378" fill="rgb(0, 0, 0)" stroke="rgb(60, 60, 60)" stroke-width="1px" opacity="0.25"></line><line x1="131.45454545454547" y1="0" x2="131.45454545454547" y2="378" fill="rgb(0, 0, 0)" stroke="rgb(60, 60, 60)" stroke-width="1px" opacity="0.25"></line><line x1="262.90909090909093" y1="0" x2="262.90909090909093" y2="378" fill="rgb(0, 0, 0)" stroke="rgb(60, 60, 60)" stroke-width="1px" opacity="0.25"></line><line x1="394.3636363636363" y1="0" x2="394.3636363636363" y2="378" fill="rgb(0, 0, 0)" stroke="rgb(60, 60, 60)" stroke-width="1px" opacity="0.25"></line><line x1="525.8181818181819" y1="0" x2="525.8181818181819" y2="378" fill="rgb(0, 0, 0)" stroke="rgb(60, 60, 60)" stroke-width="1px" opacity="0.25"></line><line x1="657.2727272727273" y1="0" x2="657.2727272727273" y2="378" fill="rgb(0, 0, 0)" stroke="rgb(60, 60, 60)" stroke-width="1px" opacity="0.25"></line><line x1="788.7272727272726" y1="0" x2="788.7272727272726" y2="378" fill="rgb(0, 0, 0)" stroke="rgb(60, 60, 60)" stroke-width="1px" opacity="0.25"></line><line x1="920.1818181818181" y1="0" x2="920.1818181818181" y2="378" fill="rgb(0, 0, 0)" stroke="rgb(60, 60, 60)" stroke-width="1px" opacity="0.25"></line><line x1="1051.6363636363637" y1="0" x2="1051.6363636363637" y2="378" fill="rgb(0, 0, 0)" stroke="rgb(60, 60, 60)" stroke-width="1px" opacity="0.25"></line><line x1="1183.0909090909092" y1="0" x2="1183.0909090909092" y2="378" fill="rgb(0, 0, 0)" stroke="rgb(60, 60, 60)" stroke-width="1px" opacity="0.25"></line><line x1="1314.5454545454545" y1="0" x2="1314.5454545454545" y2="378" fill="rgb(0, 0, 0)" stroke="rgb(60, 60, 60)" stroke-width="1px" opacity="0.25"></line><line x1="1446" y1="0" x2="1446" y2="378" fill="rgb(0, 0, 0)" stroke="rgb(60, 60, 60)" stroke-width="1px" opacity="0.25"></line></g><g><line x1="0" y1="378" x2="1446" y2="378" fill="rgb(0, 0, 0)" stroke="rgb(60, 60, 60)" stroke-width="1px" opacity="0.25"></line><line x1="0" y1="348.9230769230769" x2="1446" y2="348.9230769230769" fill="rgb(0, 0, 0)" stroke="rgb(60, 60, 60)" stroke-width="1px" opacity="0.25"></line><line x1="0" y1="319.8461538461538" x2="1446" y2="319.8461538461538" fill="rgb(0, 0, 0)" stroke="rgb(60, 60, 60)" stroke-width="1px" opacity="0.25"></line><line x1="0" y1="290.7692307692308" x2="1446" y2="290.7692307692308" fill="rgb(0, 0, 0)" stroke="rgb(60, 60, 60)" stroke-width="1px" opacity="0.25"></line><line x1="0" y1="261.6923076923077" x2="1446" y2="261.6923076923077" fill="rgb(0, 0, 0)" stroke="rgb(60, 60, 60)" stroke-width="1px" opacity="0.25"></line><line x1="0" y1="232.61538461538464" x2="1446" y2="232.61538461538464" fill="rgb(0, 0, 0)" stroke="rgb(60, 60, 60)" stroke-width="1px" opacity="0.25"></line><line x1="0" y1="203.53846153846155" x2="1446" y2="203.53846153846155" fill="rgb(0, 0, 0)" stroke="rgb(60, 60, 60)" stroke-width="1px" opacity="0.25"></line><line x1="0" y1="174.46153846153848" x2="1446" y2="174.46153846153848" fill="rgb(0, 0, 0)" stroke="rgb(60, 60, 60)" stroke-width="1px" opacity="0.25"></line><line x1="0" y1="145.38461538461542" x2="1446" y2="145.38461538461542" fill="rgb(0, 0, 0)" stroke="rgb(60, 60, 60)" stroke-width="1px" opacity="0.25"></line><line x1="0" y1="116.30769230769232" x2="1446" y2="116.30769230769232" fill="rgb(0, 0, 0)" stroke="rgb(60, 60, 60)" stroke-width="1px" opacity="0.25"></line><line x1="0" y1="87.23076923076928" x2="1446" y2="87.23076923076928" fill="rgb(0, 0, 0)" stroke="rgb(60, 60, 60)" stroke-width="1px" opacity="0.25"></line><line x1="0" y1="58.15384615384613" x2="1446" y2="58.15384615384613" fill="rgb(0, 0, 0)" stroke="rgb(60, 60, 60)" stroke-width="1px" opacity="0.25"></line><line x1="0" y1="29.076923076923038" x2="1446" y2="29.076923076923038" fill="rgb(0, 0, 0)" stroke="rgb(60, 60, 60)" stroke-width="1px" opacity="0.25"></line><line x1="0" y1="0" x2="1446" y2="0" fill="rgb(0, 0, 0)" stroke="rgb(60, 60, 60)" stroke-width="1px" opacity="0.25"></line></g></g></g><g><g><line x1="0" y1="348.9230769230769" x2="1446" y2="348.9230769230769" fill="rgb(0, 0, 0)" stroke="rgb(153, 153, 153)" stroke-width="1.5px"></line></g></g><g><g><line x1="131.45454545454547" y1="0" x2="131.45454545454547" y2="378" fill="rgb(0, 0, 0)" stroke="rgb(153, 153, 153)" stroke-width="1.5px"></line></g></g><g><g><g><g><g><path stroke="rgb(204, 51, 17)" stroke-width="2px" d="M131.45454545454547,303.3692308847721L138.02727272727273,303.3692308847721L144.6,303.3692308847721L151.17272727272726,303.3692308847721L157.74545454545455,303.3692308847721L164.3181818181818,303.3692308847721L170.89090909090908,303.3692308847721L177.46363636363637,303.3692308847721L184.0363636363636,303.3692308847721L190.6090909090909,303.3692308847721L197.18181818181816,303.3692308847721L203.75454545454545,303.3692308847721L210.3272727272727,303.3692308847721L216.9,303.3692308847721L223.47272727272727,299.1026099998966L230.04545454545453,275.60262851970623L236.61818181818182,253.7517249149303L243.1909090909091,238.70489006816857L249.76363636363638,228.90233611191326L256.3363636363636,225.3474261871939L262.90909090909093,225.92846998379076L269.4818181818182,228.60327034935855L276.05454545454546,230.98351803597672L282.6272727272727,233.18704563372583L289.2,236.05992767074807L295.7727272727273,237.78365166563324L302.3454545454545,239.20557651549262L308.9181818181818,240.05873049399884L315.4909090909091,240.5706225457956L322.06363636363636,240.49006563249455L328.6363636363636,240.44173149591168L335.2090909090909,240.41273101806516L341.78181818181815,238.84456290694175L348.3545454545455,236.3528908256817L354.92727272727274,232.91942789949076L361.5,228.92088700551736L368.0727272727272,225.35868667445035L374.6454545454545,220.11982750848227L381.2181818181818,214.26266498334496L387.7909090909091,207.64683196878715L394.3636363636363,200.96348166533645L400.93636363636364,195.0150117959632L407.5090909090909,189.50747018581106L414.0818181818182,185.81525328271022L420.6545454545454,182.8245392652583L427.22727272727275,181.0301108549861L433.8,179.1780699329452L440.3727272727273,176.51607069541106L446.94545454545454,174.9188711529288L453.51818181818186,173.1851675515267L460.09090909090907,170.9818695768085L466.6636363636364,169.27219885402315L473.23636363636365,167.8587044823943L479.80909090909097,167.01060785941863L486.3818181818182,166.11405794767342L492.95454545454544,165.57612800062665L499.52727272727276,165.25337003239872L506.09999999999997,163.8966394375815L512.6727272727272,163.0826010806913L519.2454545454545,161.818794190637L525.8181818181819,161.0605100566044L532.3909090909091,160.21784763822475L538.9636363636364,158.54916744083798L545.5363636363636,155.60949963260532L552.1090909090909,153.0703150717455L558.6818181818181,150.77142045930944L565.2545454545455,149.3920836918478L571.8272727272728,148.56448163137077L578.4,148.45561233304468L584.9727272727273,148.00259881608898L591.5454545454546,146.9554068299953L598.1181818181818,145.1640158244587L604.690909090909,143.70148928317664L611.2636363636364,140.8855067361282L617.8363636363636,137.25745751809862L624.4090909090909,134.30524411136057L630.9818181818182,132.53391606731776L637.5545454545455,131.08342730293197L644.1272727272727,130.21313404430052L650.7,128.9155742132014L657.2727272727273,128.13703831454194L663.8454545454546,127.28222483738614L670.4181818181818,126.38164481313257L676.9909090909091,125.45360486062032L683.5636363636363,124.89678088911296L690.1363636363636,123.78730263028831L696.709090909091,121.57084099067447L703.2818181818183,120.24096400690604L709.8545454545455,119.44303781664507L716.4272727272728,118.96428210248848L723,119.06472061195461L729.5727272727272,118.34959984171405L736.1454545454544,117.9205273795697L742.7181818181818,117.66308390228312L749.290909090909,117.50861781591118L755.8636363636364,116.25286235020769L762.4363636363636,115.49940907078559L769.009090909091,115.04733710313235L775.5818181818182,115.16378586050047L782.1545454545454,115.23365511492136L788.7272727272726,115.27557666757383L795.3000000000001,116.46380541304575L801.8727272727273,116.78905072236876L808.4454545454545,116.98419790796254L815.0181818181818,117.10128621931881L821.5909090909091,117.17153920613254L828.1636363636364,117.21369099822084L834.7363636363636,116.8512901355137L841.3090909090909,116.63384961788938L847.8818181818181,116.50338530731483L854.4545454545455,116.42510672097012L861.0272727272727,115.9904476312031L867.6,115.72965217734298L874.1727272727272,115.5731749050268L880.7454545454545,115.47928854163717L887.3181818181819,115.42295672360336L893.8909090909091,115.38915763278311L900.4636363636363,115.36887817829091L907.0363636363637,115.35671050559563L913.6090909090909,115.34940990197845L920.1818181818181,115.34502953980814L926.7545454545455,115.34240132250596L933.3272727272728,115.34082439212466L939.9,114.95218629593575L946.4727272727273,114.71900343822244L953.0454545454545,114.57909372359438L959.6181818181819,114.49514789481759L966.1909090909091,114.44478039755148L972.7636363636364,114.41455989919189L979.3363636363636,114.39642760017614L985.9090909090909,114.38554822076662L992.4818181818182,114.37902059312097L999.0545454545455,114.76279595449364L1005.6272727272727,114.99306117131721L1012.1999999999999,114.74352836345133L1018.7727272727274,114.59380867873176L1025.3454545454545,114.50397686790006L1031.918181818182,114.45007778140098L1038.490909090909,114.41773832950162L1045.0636363636365,114.39833465836188L1051.6363636363637,114.38669245567809L1058.209090909091,114.37970713406781L1064.7818181818182,113.98782400314161L1071.3545454545456,114.14038606254593L1077.9272727272728,114.23192329818852L1084.5,114.2868456395741L1091.0727272727272,114.31979904440539L1097.6454545454544,114.33957108730425L1104.2181818181818,114.35143431304351L1110.790909090909,114.35855224848706L1117.3636363636363,114.36282300975319L1123.9363636363635,114.36538546651286L1130.509090909091,114.36692294056871L1137.081818181818,114.75553736296229L1143.6545454545455,114.98870601639845L1150.2272727272727,115.12860720846015L1156.8,115.21254792369712L1163.3727272727274,115.26291235283935L1169.9454545454546,115.29313101032471L1176.5181818181818,115.31126220481588L1183.0909090909092,115.3221409215106L1189.6636363636364,115.32866815152744L1196.2363636363636,115.33258448953751L1202.8090909090909,115.33493429234363L1209.381818181818,115.33634417402726L1215.9545454545455,115.33719010303741L1222.5272727272727,115.72538959840364L1229.1,115.9583092956234L1235.6727272727271,116.09806111395523L1242.2454545454545,116.1819122049543L1248.8181818181818,116.23222285955381L1255.390909090909,116.26240925231349L1261.9636363636364,116.28052108796925L1268.5363636363636,116.29138818936275L1275.109090909091,116.29790845019886L1281.6818181818182,116.30182060670052L1288.2545454545455,116.30416790060144L1294.8272727272729,116.30557627694208" style="fill: none;" fill="none"></path></g><g><path stroke="rgb(255, 112, 67)" stroke-width="2px" d="M131.45454545454547,296.9999987620574L138.02727272727273,293.10576822494085L144.6,291.9136568360276L151.17272727272726,291.38772534091885L157.74545454545455,291.119467430506L164.3181818181818,290.97251626583295L170.89090909090908,290.8888598770841L177.46363636363637,290.84019042745575L184.0363636363636,290.8115172580573L190.6090909090909,290.7944994155165L197.18181818181816,290.7843548060338L203.75454545454545,290.77829164651007L210.3272727272727,290.7746622086767L216.9,290.77248758214654L223.47272727272727,290.77118389738325L230.04545454545453,278.3053478313624L236.61818181818182,255.04080885493033L243.1909090909091,236.0994846107764L249.76363636363638,224.7359212945547L256.3363636363636,219.5798256020957L262.90909090909093,216.48628883888486L269.4818181818182,217.12255229520392L276.05454545454546,219.16585649348116L282.6272727272727,222.05337492052317L289.2,223.78587722013893L295.7727272727273,225.6561443128202L302.3454545454545,226.77830252661317L308.9181818181818,227.45159671983689L315.4909090909091,227.85557297115275L322.06363636363636,228.09795862667974L328.6363636363636,228.2433899857014L335.2090909090909,227.4998812745186L341.78181818181815,226.22300513163768L348.3545454545455,222.9645736028897L354.92727272727274,220.1787438167372L361.5,215.1841692164138L368.0727272727272,209.69511866313118L374.6454545454545,203.07861161555704L381.2181818181818,196.61639812030936L387.7909090909091,190.24676075216914L394.3636363636363,182.27113416026484L400.93636363636364,174.162681482611L407.5090909090909,169.29760987851597L414.0818181818182,165.54779946868223L420.6545454545454,162.46713884250082L427.22727272727275,159.78797501881328L433.8,157.34970927654476L440.3727272727273,155.05598238309148L446.94545454545454,153.6797462470525L453.51818181818186,152.85400456544093L460.09090909090907,152.3585595564783L466.6636363636364,151.23051817048932L473.23636363636365,149.72292589076469L479.80909090909097,147.1568356266662L486.3818181818182,145.61718146820883L492.95454545454544,143.8626145925241L499.52727272727276,142.80987446711373L506.09999999999997,142.1782303918676L512.6727272727272,141.79924394672003L519.2454545454545,141.57185207963147L525.8181818181819,140.60464951124652L532.3909090909091,138.36279307395185L538.9636363636364,135.35613738283257L545.5363636363636,133.5521439681611L552.1090909090909,132.46974791935818L558.6818181818181,130.98954284194457L565.2545454545455,128.43987796675404L571.8272727272728,125.24854414537606L578.4,122.50296947193866L584.9727272727273,120.85562466787627L591.5454545454546,119.03645033730686L598.1181818181818,117.11417829083348L604.690909090909,113.46850578607518L611.2636363636364,110.45033483508837L617.8363636363636,106.97789043575386L624.4090909090909,104.06365634802125L630.9818181818182,102.31511589538172L637.5545454545455,98.77368234692375L644.1272727272727,95.81805476971715L650.7,93.2139107752613L657.2727272727273,91.65142437858782L663.8454545454546,90.7139325405837L670.4181818181818,89.32066998964939L676.9909090909091,87.65393807847823L683.5636363636363,86.65389893177559L690.1363636363636,86.05387544375395L696.709090909091,84.03232645467727L703.2818181818183,81.98862961309942L709.8545454545455,80.7624115081527L716.4272727272728,79.19590626457415L723,78.25600311842697L729.5727272727272,77.69206123073872L736.1454545454544,77.35369609812574L742.7181818181818,77.15067701855799L749.290909090909,77.02886557081729L755.8636363636364,76.95577870217289L762.4363636363636,76.91192658098629L769.009090909091,76.88561530827428L775.5818181818182,76.86982854464708L782.1545454545454,76.02958903833888L788.7272727272726,75.52544533455398L795.3000000000001,75.22295911228304L801.8727272727273,75.04146737892046L808.4454545454545,74.93257233890301L815.0181818181818,74.03646786676063L821.5909090909091,73.49880518347521L828.1636363636364,73.17620757350392L834.7363636363636,72.15188155938938L841.3090909090909,71.53728595092053L847.8818181818181,71.16852858583928L854.4545454545455,70.94727416679046L861.0272727272727,70.81452151536126L867.6,70.7348699245037L874.1727272727272,70.68707896998922L880.7454545454545,70.65840439728044L887.3181818181819,70.64119965365524L893.8909090909091,70.63087680748009L900.4636363636363,70.62468309977504L907.0363636363637,70.62096687515191L913.6090909090909,70.61873714037819L920.1818181818181,70.6173992995138L926.7545454545455,70.61659659499526L933.3272727272728,70.6161149722841L939.9,70.61582599865739L946.4727272727273,70.6156526144814L953.0454545454545,70.6155485839758L959.6181818181819,70.6154861656724L966.1909090909091,70.61544871469039L972.7636363636364,70.61542624410123L979.3363636363636,69.78463838113709L985.9090909090909,69.2861656633587L992.4818181818182,68.9870820326916L999.0545454545455,68.8076318542914L1005.6272727272727,67.86919429911944L1012.1999999999999,67.30613176601622L1018.7727272727274,66.9682942461543L1025.3454545454545,66.76559173423709L1031.918181818182,66.64397022708681L1038.490909090909,66.5709973227967L1045.0636363636365,66.52721358022256L1051.6363636363637,66.50094333467808L1058.209090909091,66.48518118735143L1064.7818181818182,66.47572389895538L1071.3545454545456,66.47004952591777L1077.9272727272728,66.46664490209525L1084.5,66.4646021278017L1091.0727272727272,66.46337646322559L1097.6454545454544,66.46264106447984L1104.2181818181818,66.46219982523246L1110.790909090909,66.46193508168403L1117.3636363636363,66.46177623555502L1123.9363636363635,66.46168092787752L1130.509090909091,66.4616237432711L1137.081818181818,66.4615894325072L1143.6545454545455,66.46156884604892L1150.2272727272727,66.46155649417386L1156.8,66.46154908304891L1163.3727272727274,66.46154463637384L1169.9454545454546,66.46154196836886L1176.5181818181818,66.46154036756587L1183.0909090909092,66.4615394070841L1189.6636363636364,66.461538830795L1196.2363636363636,66.46153848502155L1202.8090909090909,66.46153827755751L1209.381818181818,66.46153815307906L1215.9545454545455,66.46153807839204L1222.5272727272727,66.4615380335797L1229.1,66.46153800669242L1235.6727272727271,66.46153799056003L1242.2454545454545,66.46153798088056L1248.8181818181818,66.46153797507293L1255.390909090909,66.46153797158831L1261.9636363636364,66.4615379694975L1268.5363636363636,66.46153796824308L1275.109090909091,66.46153796749041L1281.6818181818182,66.4615379670388L1288.2545454545455,66.46153796676782L1294.8272727272729,66.46153796660525" style="fill: none;" fill="none"></path></g></g></g></g><g opacity="0.2"><g><g><g><path stroke="rgb(204, 51, 17)" stroke-width="2px" d="M131.45454545454547,303.3692308847721L138.02727272727273,303.3692308847721L144.6,303.3692308847721L151.17272727272726,303.3692308847721L157.74545454545455,303.3692308847721L164.3181818181818,303.3692308847721L170.89090909090908,303.3692308847721L177.46363636363637,303.3692308847721L184.0363636363636,303.3692308847721L190.6090909090909,303.3692308847721L197.18181818181816,303.3692308847721L203.75454545454545,303.3692308847721L210.3272727272727,303.3692308847721L216.9,303.3692308847721L223.47272727272727,292.7076939252707L230.04545454545453,240.36923030706555L236.61818181818182,220.98461607786328L243.1909090909091,216.13845818776352L249.76363636363638,214.19999849796298L256.3363636363636,220.01538623296298L262.90909090909093,226.80000381286328L269.4818181818182,232.61538288226495L276.05454545454546,234.55384257206552L282.6272727272727,236.49231092746442L289.2,240.36923030706555L295.7727272727273,240.36923030706555L302.3454545454545,241.3384601519658L308.9181818181818,241.3384601519658L315.4909090909091,241.3384601519658L322.06363636363636,240.36923030706555L328.6363636363636,240.36923030706555L335.2090909090909,240.36923030706555L341.78181818181815,236.49231092746442L348.3545454545455,232.61538288226495L354.92727272727274,227.76923365776355L361.5,222.92307576766382L368.0727272727272,220.01538623296298L374.6454545454545,212.2615388081624L381.2181818181818,205.4769212282621L387.7909090909091,197.72308246905988L394.3636363636363,190.93845622356122L400.93636363636364,186.09230699905984L407.5090909090909,181.24615777455844L414.0818181818182,180.27692792965814L420.6545454545454,178.3384682398576L427.22727272727275,178.3384682398576L433.8,176.40000855005704L440.3727272727273,172.52307183925925L446.94545454545454,172.52307183925925L453.51818181818186,170.58461214945868L460.09090909090907,167.67692261475784L466.6636363636364,166.70769276985757L473.23636363636365,165.73846292495728L479.80909090909097,165.73846292495728L486.3818181818182,164.76923308005703L492.95454545454544,164.76923308005703L499.52727272727276,164.76923308005703L506.09999999999997,161.86154354535617L512.6727272727272,161.86154354535617L519.2454545454545,159.92308385555563L525.8181818181819,159.92308385555563L532.3909090909091,158.95385401065533L538.9636363636364,156.0461471447578L545.5363636363636,151.1999979202564L552.1090909090909,149.26153823045587L558.6818181818181,147.3230785406553L565.2545454545455,147.3230785406553L571.8272727272728,147.3230785406553L578.4,148.29230838555557L584.9727272727273,147.3230785406553L591.5454545454546,145.38461885085476L598.1181818181818,142.4769293161539L604.690909090909,141.50769947125366L611.2636363636364,136.66153291555554L617.8363636363636,131.81538369105414L624.4090909090909,129.8769240012536L630.9818181818182,129.8769240012536L637.5545454545455,128.9076941563533L644.1272727272727,128.9076941563533L650.7,126.96923446655273L657.2727272727273,126.96923446655273L663.8454545454546,126.0000046216525L670.4181818181818,125.0307747767522L676.9909090909091,124.06154493185193L683.5636363636363,124.06154493185193L690.1363636363636,122.12308524205139L696.709090909091,118.24614853125354L703.2818181818183,118.24614853125354L709.8545454545455,118.24614853125354L716.4272727272728,118.24614853125354L723,119.21537837615381L729.5727272727272,117.27691868635327L736.1454545454544,117.27691868635327L742.7181818181818,117.27691868635327L749.290909090909,117.27691868635327L755.8636363636364,114.36922915165246L762.4363636363636,114.36922915165246L769.009090909091,114.36922915165246L775.5818181818182,115.33845899655273L782.1545454545454,115.33845899655273L788.7272727272726,115.33845899655273L795.3000000000001,118.24614853125354L801.8727272727273,117.27691868635327L808.4454545454545,117.27691868635327L815.0181818181818,117.27691868635327L821.5909090909091,117.27691868635327L828.1636363636364,117.27691868635327L834.7363636363636,116.30768884145294L841.3090909090909,116.30768884145294L847.8818181818181,116.30768884145294L854.4545454545455,116.30768884145294L861.0272727272727,115.33845899655273L867.6,115.33845899655273L874.1727272727272,115.33845899655273L880.7454545454545,115.33845899655273L887.3181818181819,115.33845899655273L893.8909090909091,115.33845899655273L900.4636363636363,115.33845899655273L907.0363636363637,115.33845899655273L913.6090909090909,115.33845899655273L920.1818181818181,115.33845899655273L926.7545454545455,115.33845899655273L933.3272727272728,115.33845899655273L939.9,114.36922915165246L946.4727272727273,114.36922915165246L953.0454545454545,114.36922915165246L959.6181818181819,114.36922915165246L966.1909090909091,114.36922915165246L972.7636363636364,114.36922915165246L979.3363636363636,114.36922915165246L985.9090909090909,114.36922915165246L992.4818181818182,114.36922915165246L999.0545454545455,115.33845899655273L1005.6272727272727,115.33845899655273L1012.1999999999999,114.36922915165246L1018.7727272727274,114.36922915165246L1025.3454545454545,114.36922915165246L1031.918181818182,114.36922915165246L1038.490909090909,114.36922915165246L1045.0636363636365,114.36922915165246L1051.6363636363637,114.36922915165246L1058.209090909091,114.36922915165246L1064.7818181818182,113.39999930675214L1071.3545454545456,114.36922915165246L1077.9272727272728,114.36922915165246L1084.5,114.36922915165246L1091.0727272727272,114.36922915165246L1097.6454545454544,114.36922915165246L1104.2181818181818,114.36922915165246L1110.790909090909,114.36922915165246L1117.3636363636363,114.36922915165246L1123.9363636363635,114.36922915165246L1130.509090909091,114.36922915165246L1137.081818181818,115.33845899655273L1143.6545454545455,115.33845899655273L1150.2272727272727,115.33845899655273L1156.8,115.33845899655273L1163.3727272727274,115.33845899655273L1169.9454545454546,115.33845899655273L1176.5181818181818,115.33845899655273L1183.0909090909092,115.33845899655273L1189.6636363636364,115.33845899655273L1196.2363636363636,115.33845899655273L1202.8090909090909,115.33845899655273L1209.381818181818,115.33845899655273L1215.9545454545455,115.33845899655273L1222.5272727272727,116.30768884145294L1229.1,116.30768884145294L1235.6727272727271,116.30768884145294L1242.2454545454545,116.30768884145294L1248.8181818181818,116.30768884145294L1255.390909090909,116.30768884145294L1261.9636363636364,116.30768884145294L1268.5363636363636,116.30768884145294L1275.109090909091,116.30768884145294L1281.6818181818182,116.30768884145294L1288.2545454545455,116.30768884145294L1294.8272727272729,116.30768884145294" style="fill: none;" fill="none"></path></g><g><path stroke="rgb(255, 112, 67)" stroke-width="2px" d="M131.45454545454547,296.9999987620574L138.02727272727273,290.76922990267093L144.6,290.76922990267093L151.17272727272726,290.76922990267093L157.74545454545455,290.76922990267093L164.3181818181818,290.76922990267093L170.89090909090908,290.76922990267093L177.46363636363637,290.76922990267093L184.0363636363636,290.76922990267093L190.6090909090909,290.76922990267093L197.18181818181816,290.76922990267093L203.75454545454545,290.76922990267093L210.3272727272727,290.76922990267093L216.9,290.76922990267093L223.47272727272727,290.76922990267093L230.04545454545453,259.6153856057387L236.61818181818182,220.15384516349206L243.1909090909091,207.69230744471918L249.76363636363638,207.69230744471918L256.3363636363636,211.8461533509768L262.90909090909093,211.8461533509768L269.4818181818182,218.07692654316241L276.05454545454546,222.23077244942004L282.6272727272727,226.38461835567767L289.2,226.38461835567767L295.7727272727273,228.46153697600732L302.3454545454545,228.46153697600732L308.9181818181818,228.46153697600732L315.4909090909091,228.46153697600732L322.06363636363636,228.46153697600732L328.6363636363636,228.46153697600732L335.2090909090909,226.38461835567767L341.78181818181815,224.3076910697497L348.3545454545455,218.07692654316241L354.92727272727274,215.99999925723444L361.5,207.69230744471918L368.0727272727272,201.4615429181319L374.6454545454545,193.15385110561664L381.2181818181818,186.92307791343106L387.7909090909091,180.6923047212454L394.3636363636363,170.30769428840054L400.93636363636364,162.00000247588528L407.5090909090909,162.00000247588528L414.0818181818182,159.92308385555563L420.6545454545454,157.84614790402927L427.22727272727275,155.76922928369962L433.8,153.69231066337002L440.3727272727273,151.61539204304037L446.94545454545454,151.61539204304037L453.51818181818186,151.61539204304037L460.09090909090907,151.61539204304037L466.6636363636364,149.538456091514L473.23636363636365,147.46153747118436L479.80909090909097,143.3077002305251L486.3818181818182,143.3077002305251L492.95454545454544,141.23076427899875L499.52727272727276,141.23076427899875L506.09999999999997,141.23076427899875L512.6727272727272,141.23076427899875L519.2454545454545,141.23076427899875L525.8181818181819,139.1538456586691L532.3909090909091,135.00000841800986L538.9636363636364,130.84615384615384L545.5363636363636,130.84615384615384L552.1090909090909,130.84615384615384L558.6818181818181,128.76923522582425L565.2545454545455,124.61538065396823L571.8272727272728,120.46154341330896L578.4,118.3846074617826L584.9727272727273,118.3846074617826L591.5454545454546,116.30768884145294L598.1181818181818,114.23077022112335L604.690909090909,107.99999702893768L611.2636363636364,105.92307840860809L617.8363636363636,101.76922383675208L624.4090909090909,99.69230521642243L630.9818181818182,99.69230521642243L637.5545454545455,93.46153202423682L644.1272727272727,91.38461340390717L650.7,89.30769478357757L657.2727272727273,89.30769478357757L663.8454545454546,89.30769478357757L670.4181818181818,87.23077616324792L676.9909090909091,85.15384021172156L683.5636363636363,85.15384021172156L690.1363636363636,85.15384021172156L696.709090909091,81.00000297106232L703.2818181818183,78.92308435073267L709.8545454545455,78.92308435073267L716.4272727272728,76.8461483992063L723,76.8461483992063L729.5727272727272,76.8461483992063L736.1454545454544,76.8461483992063L742.7181818181818,76.8461483992063L749.290909090909,76.8461483992063L755.8636363636364,76.8461483992063L762.4363636363636,76.8461483992063L769.009090909091,76.8461483992063L775.5818181818182,76.8461483992063L782.1545454545454,74.76922977887665L788.7272727272726,74.76922977887665L795.3000000000001,74.76922977887665L801.8727272727273,74.76922977887665L808.4454545454545,74.76922977887665L815.0181818181818,72.69231115854706L821.5909090909091,72.69231115854706L828.1636363636364,72.69231115854706L834.7363636363636,70.6153925382174L841.3090909090909,70.6153925382174L847.8818181818181,70.6153925382174L854.4545454545455,70.6153925382174L861.0272727272727,70.6153925382174L867.6,70.6153925382174L874.1727272727272,70.6153925382174L880.7454545454545,70.6153925382174L887.3181818181819,70.6153925382174L893.8909090909091,70.6153925382174L900.4636363636363,70.6153925382174L907.0363636363637,70.6153925382174L913.6090909090909,70.6153925382174L920.1818181818181,70.6153925382174L926.7545454545455,70.6153925382174L933.3272727272728,70.6153925382174L939.9,70.6153925382174L946.4727272727273,70.6153925382174L953.0454545454545,70.6153925382174L959.6181818181819,70.6153925382174L966.1909090909091,70.6153925382174L972.7636363636364,70.6153925382174L979.3363636363636,68.53845658669104L985.9090909090909,68.53845658669104L992.4818181818182,68.53845658669104L999.0545454545455,68.53845658669104L1005.6272727272727,66.46153796636139L1012.1999999999999,66.46153796636139L1018.7727272727274,66.46153796636139L1025.3454545454545,66.46153796636139L1031.918181818182,66.46153796636139L1038.490909090909,66.46153796636139L1045.0636363636365,66.46153796636139L1051.6363636363637,66.46153796636139L1058.209090909091,66.46153796636139L1064.7818181818182,66.46153796636139L1071.3545454545456,66.46153796636139L1077.9272727272728,66.46153796636139L1084.5,66.46153796636139L1091.0727272727272,66.46153796636139L1097.6454545454544,66.46153796636139L1104.2181818181818,66.46153796636139L1110.790909090909,66.46153796636139L1117.3636363636363,66.46153796636139L1123.9363636363635,66.46153796636139L1130.509090909091,66.46153796636139L1137.081818181818,66.46153796636139L1143.6545454545455,66.46153796636139L1150.2272727272727,66.46153796636139L1156.8,66.46153796636139L1163.3727272727274,66.46153796636139L1169.9454545454546,66.46153796636139L1176.5181818181818,66.46153796636139L1183.0909090909092,66.46153796636139L1189.6636363636364,66.46153796636139L1196.2363636363636,66.46153796636139L1202.8090909090909,66.46153796636139L1209.381818181818,66.46153796636139L1215.9545454545455,66.46153796636139L1222.5272727272727,66.46153796636139L1229.1,66.46153796636139L1235.6727272727271,66.46153796636139L1242.2454545454545,66.46153796636139L1248.8181818181818,66.46153796636139L1255.390909090909,66.46153796636139L1261.9636363636364,66.46153796636139L1268.5363636363636,66.46153796636139L1275.109090909091,66.46153796636139L1281.6818181818182,66.46153796636139L1288.2545454545455,66.46153796636139L1294.8272727272729,66.46153796636139" style="fill: none;" fill="none"></path></g></g></g></g></g></g><g transform="translate(50, 378)" clip-path="url(#clip_1)"><clipPath id="clip_1"><rect width="1446" height="22"></rect></clipPath><g><g><line x1="0" y1="0" x2="0" y2="5" style="visibility: inherit;" fill="rgb(0, 0, 0)" stroke="rgb(204, 204, 204)" stroke-width="1px"></line><line x1="131.45454545454547" y1="0" x2="131.45454545454547" y2="5" style="visibility: inherit;" fill="rgb(0, 0, 0)" stroke="rgb(204, 204, 204)" stroke-width="1px"></line><line x1="262.90909090909093" y1="0" x2="262.90909090909093" y2="5" style="visibility: inherit;" fill="rgb(0, 0, 0)" stroke="rgb(204, 204, 204)" stroke-width="1px"></line><line x1="394.3636363636363" y1="0" x2="394.3636363636363" y2="5" style="visibility: inherit;" fill="rgb(0, 0, 0)" stroke="rgb(204, 204, 204)" stroke-width="1px"></line><line x1="525.8181818181819" y1="0" x2="525.8181818181819" y2="5" style="visibility: inherit;" fill="rgb(0, 0, 0)" stroke="rgb(204, 204, 204)" stroke-width="1px"></line><line x1="657.2727272727273" y1="0" x2="657.2727272727273" y2="5" style="visibility: inherit;" fill="rgb(0, 0, 0)" stroke="rgb(204, 204, 204)" stroke-width="1px"></line><line x1="788.7272727272726" y1="0" x2="788.7272727272726" y2="5" style="visibility: inherit;" fill="rgb(0, 0, 0)" stroke="rgb(204, 204, 204)" stroke-width="1px"></line><line x1="920.1818181818181" y1="0" x2="920.1818181818181" y2="5" style="visibility: inherit;" fill="rgb(0, 0, 0)" stroke="rgb(204, 204, 204)" stroke-width="1px"></line><line x1="1051.6363636363637" y1="0" x2="1051.6363636363637" y2="5" style="visibility: inherit;" fill="rgb(0, 0, 0)" stroke="rgb(204, 204, 204)" stroke-width="1px"></line><line x1="1183.0909090909092" y1="0" x2="1183.0909090909092" y2="5" style="visibility: inherit;" fill="rgb(0, 0, 0)" stroke="rgb(204, 204, 204)" stroke-width="1px"></line><line x1="1314.5454545454545" y1="0" x2="1314.5454545454545" y2="5" style="visibility: inherit;" fill="rgb(0, 0, 0)" stroke="rgb(204, 204, 204)" stroke-width="1px"></line><line x1="1446" y1="0" x2="1446" y2="5" style="visibility: inherit;" fill="rgb(0, 0, 0)" stroke="rgb(204, 204, 204)" stroke-width="1px"></line></g><g transform="translate(0, 8)"><text x="0" y="0" dx="0em" dy="0.95em" style="text-anchor: middle; visibility: hidden; font-family: &quot;Helvetica Neue&quot;, sans-serif; font-size: 12px; font-weight: 200;" fill="rgb(50, 49, 63)" stroke="none" stroke-width="1px">-20</text><text x="131.45454545454547" y="0" dx="0em" dy="0.95em" style="text-anchor: middle; visibility: inherit; font-family: &quot;Helvetica Neue&quot;, sans-serif; font-size: 12px; font-weight: 200;" fill="rgb(50, 49, 63)" stroke="none" stroke-width="1px">0</text><text x="262.90909090909093" y="0" dx="0em" dy="0.95em" style="text-anchor: middle; visibility: inherit; font-family: &quot;Helvetica Neue&quot;, sans-serif; font-size: 12px; font-weight: 200;" fill="rgb(50, 49, 63)" stroke="none" stroke-width="1px">20</text><text x="394.3636363636363" y="0" dx="0em" dy="0.95em" style="text-anchor: middle; visibility: inherit; font-family: &quot;Helvetica Neue&quot;, sans-serif; font-size: 12px; font-weight: 200;" fill="rgb(50, 49, 63)" stroke="none" stroke-width="1px">40</text><text x="525.8181818181819" y="0" dx="0em" dy="0.95em" style="text-anchor: middle; visibility: inherit; font-family: &quot;Helvetica Neue&quot;, sans-serif; font-size: 12px; font-weight: 200;" fill="rgb(50, 49, 63)" stroke="none" stroke-width="1px">60</text><text x="657.2727272727273" y="0" dx="0em" dy="0.95em" style="text-anchor: middle; visibility: inherit; font-family: &quot;Helvetica Neue&quot;, sans-serif; font-size: 12px; font-weight: 200;" fill="rgb(50, 49, 63)" stroke="none" stroke-width="1px">80</text><text x="788.7272727272726" y="0" dx="0em" dy="0.95em" style="text-anchor: middle; visibility: inherit; font-family: &quot;Helvetica Neue&quot;, sans-serif; font-size: 12px; font-weight: 200;" fill="rgb(50, 49, 63)" stroke="none" stroke-width="1px">100</text><text x="920.1818181818181" y="0" dx="0em" dy="0.95em" style="text-anchor: middle; visibility: inherit; font-family: &quot;Helvetica Neue&quot;, sans-serif; font-size: 12px; font-weight: 200;" fill="rgb(50, 49, 63)" stroke="none" stroke-width="1px">120</text><text x="1051.6363636363637" y="0" dx="0em" dy="0.95em" style="text-anchor: middle; visibility: inherit; font-family: &quot;Helvetica Neue&quot;, sans-serif; font-size: 12px; font-weight: 200;" fill="rgb(50, 49, 63)" stroke="none" stroke-width="1px">140</text><text x="1183.0909090909092" y="0" dx="0em" dy="0.95em" style="text-anchor: middle; visibility: inherit; font-family: &quot;Helvetica Neue&quot;, sans-serif; font-size: 12px; font-weight: 200;" fill="rgb(50, 49, 63)" stroke="none" stroke-width="1px">160</text><text x="1314.5454545454545" y="0" dx="0em" dy="0.95em" style="text-anchor: middle; visibility: inherit; font-family: &quot;Helvetica Neue&quot;, sans-serif; font-size: 12px; font-weight: 200;" fill="rgb(50, 49, 63)" stroke="none" stroke-width="1px">180</text><text x="1446" y="0" dx="0em" dy="0.95em" style="text-anchor: middle; visibility: hidden; font-family: &quot;Helvetica Neue&quot;, sans-serif; font-size: 12px; font-weight: 200;" fill="rgb(50, 49, 63)" stroke="none" stroke-width="1px">200</text></g><line x1="0" y1="0" x2="1446" y2="0" fill="rgb(0, 0, 0)" stroke="rgb(204, 204, 204)" stroke-width="1px"></line></g></g></g></g></svg>