<svg viewBox="0 0 1496 400" xmlns="http://www.w3.org/2000/svg"><g><g><g><g><g><line x1="50" y1="378" x2="45" y2="378" style="visibility: inherit;" fill="rgb(0, 0, 0)" stroke="rgb(204, 204, 204)" stroke-width="1px"></line><line x1="50" y1="346.5" x2="45" y2="346.5" style="visibility: inherit;" fill="rgb(0, 0, 0)" stroke="rgb(204, 204, 204)" stroke-width="1px"></line><line x1="50" y1="315" x2="45" y2="315" style="visibility: inherit;" fill="rgb(0, 0, 0)" stroke="rgb(204, 204, 204)" stroke-width="1px"></line><line x1="50" y1="283.5" x2="45" y2="283.5" style="visibility: inherit;" fill="rgb(0, 0, 0)" stroke="rgb(204, 204, 204)" stroke-width="1px"></line><line x1="50" y1="252" x2="45" y2="252" style="visibility: inherit;" fill="rgb(0, 0, 0)" stroke="rgb(204, 204, 204)" stroke-width="1px"></line><line x1="50" y1="220.5" x2="45" y2="220.5" style="visibility: inherit;" fill="rgb(0, 0, 0)" stroke="rgb(204, 204, 204)" stroke-width="1px"></line><line x1="50" y1="189.00000000000003" x2="45" y2="189.00000000000003" style="visibility: inherit;" fill="rgb(0, 0, 0)" stroke="rgb(204, 204, 204)" stroke-width="1px"></line><line x1="50" y1="157.50000000000003" x2="45" y2="157.50000000000003" style="visibility: inherit;" fill="rgb(0, 0, 0)" stroke="rgb(204, 204, 204)" stroke-width="1px"></line><line x1="50" y1="126.00000000000006" x2="45" y2="126.00000000000006" style="visibility: inherit;" fill="rgb(0, 0, 0)" stroke="rgb(204, 204, 204)" stroke-width="1px"></line><line x1="50" y1="94.50000000000006" x2="45" y2="94.50000000000006" style="visibility: inherit;" fill="rgb(0, 0, 0)" stroke="rgb(204, 204, 204)" stroke-width="1px"></line><line x1="50" y1="63" x2="45" y2="63" style="visibility: inherit;" fill="rgb(0, 0, 0)" stroke="rgb(204, 204, 204)" stroke-width="1px"></line><line x1="50" y1="31.5" x2="45" y2="31.5" style="visibility: inherit;" fill="rgb(0, 0, 0)" stroke="rgb(204, 204, 204)" stroke-width="1px"></line><line x1="50" y1="0" x2="45" y2="0" style="visibility: inherit;" fill="rgb(0, 0, 0)" stroke="rgb(204, 204, 204)" stroke-width="1px"></line></g><g transform="translate(40, 0)"><text x="0" y="378" dx="0em" dy="0.3em" style="text-anchor: end; visibility: hidden; font-family: &quot;Helvetica Neue&quot;, sans-serif; font-size: 12px; font-weight: 200;" fill="rgb(50, 49, 63)" stroke="none" stroke-width="1px">-0.1</text><text x="0" y="346.5" dx="0em" dy="0.3em" style="text-anchor: end; visibility: inherit; font-family: &quot;Helvetica Neue&quot;, sans-serif; font-size: 12px; font-weight: 200;" fill="rgb(50, 49, 63)" stroke="none" stroke-width="1px">0</text><text x="0" y="315" dx="0em" dy="0.3em" style="text-anchor: end; visibility: inherit; font-family: &quot;Helvetica Neue&quot;, sans-serif; font-size: 12px; font-weight: 200;" fill="rgb(50, 49, 63)" stroke="none" stroke-width="1px">0.1</text><text x="0" y="283.5" dx="0em" dy="0.3em" style="text-anchor: end; visibility: inherit; font-family: &quot;Helvetica Neue&quot;, sans-serif; font-size: 12px; font-weight: 200;" fill="rgb(50, 49, 63)" stroke="none" stroke-width="1px">0.2</text><text x="0" y="252" dx="0em" dy="0.3em" style="text-anchor: end; visibility: inherit; font-family: &quot;Helvetica Neue&quot;, sans-serif; font-size: 12px; font-weight: 200;" fill="rgb(50, 49, 63)" stroke="none" stroke-width="1px">0.3</text><text x="0" y="220.5" dx="0em" dy="0.3em" style="text-anchor: end; visibility: inherit; font-family: &quot;Helvetica Neue&quot;, sans-serif; font-size: 12px; font-weight: 200;" fill="rgb(50, 49, 63)" stroke="none" stroke-width="1px">0.4</text><text x="0" y="189.00000000000003" dx="0em" dy="0.3em" style="text-anchor: end; visibility: inherit; font-family: &quot;Helvetica Neue&quot;, sans-serif; font-size: 12px; font-weight: 200;" fill="rgb(50, 49, 63)" stroke="none" stroke-width="1px">0.5</text><text x="0" y="157.50000000000003" dx="0em" dy="0.3em" style="text-anchor: end; visibility: inherit; font-family: &quot;Helvetica Neue&quot;, sans-serif; font-size: 12px; font-weight: 200;" fill="rgb(50, 49, 63)" stroke="none" stroke-width="1px">0.6</text><text x="0" y="126.00000000000006" dx="0em" dy="0.3em" style="text-anchor: end; visibility: inherit; font-family: &quot;Helvetica Neue&quot;, sans-serif; font-size: 12px; font-weight: 200;" fill="rgb(50, 49, 63)" stroke="none" stroke-width="1px">0.7</text><text x="0" y="94.50000000000006" dx="0em" dy="0.3em" style="text-anchor: end; visibility: inherit; font-family: &quot;Helvetica Neue&quot;, sans-serif; font-size: 12px; font-weight: 200;" fill="rgb(50, 49, 63)" stroke="none" stroke-width="1px">0.8</text><text x="0" y="63" dx="0em" dy="0.3em" style="text-anchor: end; visibility: inherit; font-family: &quot;Helvetica Neue&quot;, sans-serif; font-size: 12px; font-weight: 200;" fill="rgb(50, 49, 63)" stroke="none" stroke-width="1px">0.9</text><text x="0" y="31.5" dx="0em" dy="0.3em" style="text-anchor: end; visibility: inherit; font-family: &quot;Helvetica Neue&quot;, sans-serif; font-size: 12px; font-weight: 200;" fill="rgb(50, 49, 63)" stroke="none" stroke-width="1px">1</text><text x="0" y="0" dx="0em" dy="0.3em" style="text-anchor: end; visibility: hidden; font-family: &quot;Helvetica Neue&quot;, sans-serif; font-size: 12px; font-weight: 200;" fill="rgb(50, 49, 63)" stroke="none" stroke-width="1px">1.1</text></g><line x1="50" y1="0" x2="50" y2="378" fill="rgb(0, 0, 0)" stroke="rgb(204, 204, 204)" stroke-width="1px"></line></g></g><g transform="translate(50, 0)" clip-path="url(#clip_0)"><clipPath id="clip_0"><rect width="1446" height="378"></rect></clipPath><g><g><g><line x1="0" y1="0" x2="0" y2="378" fill="rgb(0, 0, 0)" stroke="rgb(60, 60, 60)" stroke-width="1px" opacity="0.25"></line><line x1="131.45454545454547" y1="0" x2="131.45454545454547" y2="378" fill="rgb(0, 0, 0)" stroke="rgb(60, 60, 60)" stroke-width="1px" opacity="0.25"></line><line x1="262.90909090909093" y1="0" x2="262.90909090909093" y2="378" fill="rgb(0, 0, 0)" stroke="rgb(60, 60, 60)" stroke-width="1px" opacity="0.25"></line><line x1="394.3636363636363" y1="0" x2="394.3636363636363" y2="378" fill="rgb(0, 0, 0)" stroke="rgb(60, 60, 60)" stroke-width="1px" opacity="0.25"></line><line x1="525.8181818181819" y1="0" x2="525.8181818181819" y2="378" fill="rgb(0, 0, 0)" stroke="rgb(60, 60, 60)" stroke-width="1px" opacity="0.25"></line><line x1="657.2727272727273" y1="0" x2="657.2727272727273" y2="378" fill="rgb(0, 0, 0)" stroke="rgb(60, 60, 60)" stroke-width="1px" opacity="0.25"></line><line x1="788.7272727272726" y1="0" x2="788.7272727272726" y2="378" fill="rgb(0, 0, 0)" stroke="rgb(60, 60, 60)" stroke-width="1px" opacity="0.25"></line><line x1="920.1818181818181" y1="0" x2="920.1818181818181" y2="378" fill="rgb(0, 0, 0)" stroke="rgb(60, 60, 60)" stroke-width="1px" opacity="0.25"></line><line x1="1051.6363636363637" y1="0" x2="1051.6363636363637" y2="378" fill="rgb(0, 0, 0)" stroke="rgb(60, 60, 60)" stroke-width="1px" opacity="0.25"></line><line x1="1183.0909090909092" y1="0" x2="1183.0909090909092" y2="378" fill="rgb(0, 0, 0)" stroke="rgb(60, 60, 60)" stroke-width="1px" opacity="0.25"></line><line x1="1314.5454545454545" y1="0" x2="1314.5454545454545" y2="378" fill="rgb(0, 0, 0)" stroke="rgb(60, 60, 60)" stroke-width="1px" opacity="0.25"></line><line x1="1446" y1="0" x2="1446" y2="378" fill="rgb(0, 0, 0)" stroke="rgb(60, 60, 60)" stroke-width="1px" opacity="0.25"></line></g><g><line x1="0" y1="378" x2="1446" y2="378" fill="rgb(0, 0, 0)" stroke="rgb(60, 60, 60)" stroke-width="1px" opacity="0.25"></line><line x1="0" y1="346.5" x2="1446" y2="346.5" fill="rgb(0, 0, 0)" stroke="rgb(60, 60, 60)" stroke-width="1px" opacity="0.25"></line><line x1="0" y1="315" x2="1446" y2="315" fill="rgb(0, 0, 0)" stroke="rgb(60, 60, 60)" stroke-width="1px" opacity="0.25"></line><line x1="0" y1="283.5" x2="1446" y2="283.5" fill="rgb(0, 0, 0)" stroke="rgb(60, 60, 60)" stroke-width="1px" opacity="0.25"></line><line x1="0" y1="252" x2="1446" y2="252" fill="rgb(0, 0, 0)" stroke="rgb(60, 60, 60)" stroke-width="1px" opacity="0.25"></line><line x1="0" y1="220.5" x2="1446" y2="220.5" fill="rgb(0, 0, 0)" stroke="rgb(60, 60, 60)" stroke-width="1px" opacity="0.25"></line><line x1="0" y1="189.00000000000003" x2="1446" y2="189.00000000000003" fill="rgb(0, 0, 0)" stroke="rgb(60, 60, 60)" stroke-width="1px" opacity="0.25"></line><line x1="0" y1="157.50000000000003" x2="1446" y2="157.50000000000003" fill="rgb(0, 0, 0)" stroke="rgb(60, 60, 60)" stroke-width="1px" opacity="0.25"></line><line x1="0" y1="126.00000000000006" x2="1446" y2="126.00000000000006" fill="rgb(0, 0, 0)" stroke="rgb(60, 60, 60)" stroke-width="1px" opacity="0.25"></line><line x1="0" y1="94.50000000000006" x2="1446" y2="94.50000000000006" fill="rgb(0, 0, 0)" stroke="rgb(60, 60, 60)" stroke-width="1px" opacity="0.25"></line><line x1="0" y1="63" x2="1446" y2="63" fill="rgb(0, 0, 0)" stroke="rgb(60, 60, 60)" stroke-width="1px" opacity="0.25"></line><line x1="0" y1="31.5" x2="1446" y2="31.5" fill="rgb(0, 0, 0)" stroke="rgb(60, 60, 60)" stroke-width="1px" opacity="0.25"></line><line x1="0" y1="0" x2="1446" y2="0" fill="rgb(0, 0, 0)" stroke="rgb(60, 60, 60)" stroke-width="1px" opacity="0.25"></line></g></g></g><g><g><line x1="0" y1="346.5" x2="1446" y2="346.5" fill="rgb(0, 0, 0)" stroke="rgb(153, 153, 153)" stroke-width="1.5px"></line></g></g><g><g><line x1="131.45454545454547" y1="0" x2="131.45454545454547" y2="378" fill="rgb(0, 0, 0)" stroke="rgb(153, 153, 153)" stroke-width="1.5px"></line></g></g><g><g><g><g><g><path stroke="rgb(204, 51, 17)" stroke-width="2px" d="M131.45454545454547,297.15000012516975L138.02727272727273,297.15000012516975L144.6,297.15000012516975L151.17272727272726,297.15000012516975L157.74545454545455,297.15000012516975L164.3181818181818,297.15000012516975L170.89090909090908,297.15000012516975L177.46363636363637,297.15000012516975L184.0363636363636,297.15000012516975L190.6090909090909,297.15000012516975L197.18181818181816,297.15000012516975L203.75454545454545,297.15000012516975L210.3272727272727,297.15000012516975L216.9,297.15000012516975L223.47272727272727,296.30960578545654L230.04545454545453,278.16064234772364L236.61818181818182,255.51255069172714L243.1909090909091,235.20546953079057L249.76363636363638,221.76246150426078L256.3363636363636,211.59710619235042L262.90909090909093,206.75815731328805L269.4818181818182,204.69486617915743L276.05454545454546,206.8169359654419L282.6272727272727,211.0301819938426L289.2,214.81811921450168L295.7727272727273,217.5108749704886L302.3454545454545,219.96652929807615L308.9181818181818,222.2799200008436L315.4909090909091,224.5079530217111L322.06363636363636,225.84477230883414L328.6363636363636,226.646863691965L335.2090909090909,226.28811918798579L341.78181818181815,225.23287326484586L348.3545454545455,224.5997257432116L354.92727272727274,222.9598346667175L361.5,221.13590083128562L368.0727272727272,219.62154094001062L374.6454545454545,217.87292580921098L381.2181818181818,215.5637541786165L387.7909090909091,212.49825280347952L394.3636363636363,207.71895102737176L400.93636363636364,202.33137236620698L407.5090909090909,198.25882221691862L414.0818181818182,189.9352902244993L420.6545454545454,182.8411730324684L427.22727272727275,176.06470512082385L433.8,171.15882517516258L440.3727272727273,165.69529210090084L446.94545454545454,161.57717305749736L453.51818181818186,154.90630563688896L460.09090909090907,147.96378047816142L466.6636363636364,140.85826818674045L473.23636363636365,135.754961612986L479.80909090909097,132.2729780692818L486.3818181818182,129.3437887441475L492.95454545454544,127.16627554961119L499.52727272727276,125.01976843397614L506.09999999999997,123.31186456513859L512.6727272727272,121.86711513419414L519.2454545454545,121.00026547562749L525.8181818181819,120.4801556804876L532.3909090909091,120.16808980340363L538.9636363636364,118.72085147878289L545.5363636363636,117.43250888455373L552.1090909090909,115.8195041291026L558.6818181818181,114.43170167637516L565.2545454545455,113.17902060528195L571.8272727272728,112.42741196262597L578.4,111.97644677703238L584.9727272727273,111.70586766567618L591.5454545454546,111.12352059940577L598.1181818181818,109.93411316072985L604.690909090909,108.80046909806754L611.2636363636364,108.54028225992698L617.8363636363636,107.96417055758587L624.4090909090909,107.19850393672442L630.9818181818182,105.47910516583715L637.5545454545455,104.44746590330482L644.1272727272727,103.8284823457854L650.7,103.45709221127379L657.2727272727273,101.13425262309755L663.8454545454546,99.32054927073511L670.4181818181818,98.23232725931763L676.9909090909091,97.57939405246714L683.5636363636363,97.18763412835682L690.1363636363636,96.95257817389063L696.709090909091,96.81154460121093L703.2818181818183,96.7269244576031L709.8545454545455,96.25615277198165L716.4272727272728,96.39368936006554L723,95.63621211400226L729.5727272727272,96.02172496527794L736.1454545454544,96.67303227550008L742.7181818181818,97.06381666163338L749.290909090909,97.29828729331336L755.8636363636364,97.85896927177811L762.4363636363636,98.19537845885696L769.009090909091,98.39722397110427L775.5818181818182,97.25833248008234L782.1545454545454,96.57499758546913L788.7272727272726,96.16499664870122L795.3000000000001,96.33899568609729L801.8727272727273,96.4433951085349L808.4454545454545,96.50603476199751L815.0181818181818,96.54361855407507L821.5909090909091,96.56616882932161L828.1636363636364,96.99969859392633L834.7363636363636,97.6798160521459L841.3090909090909,97.2478873281641L847.8818181818181,96.56873049431817L854.4545454545455,96.16123639401064L861.0272727272727,96.33673953328292L867.6,96.44204141684628L874.1727272727272,95.66522334807075L880.7454545454545,94.77913290734858L887.3181818181819,94.66747824237217L893.8909090909091,94.60048544338628L900.4636363636363,94.56028976399472L907.0363636363637,95.3761715552734L913.6090909090909,95.86570063004058L920.1818181818181,96.15941807490094L926.7545454545455,96.75564814127387L933.3272727272728,97.11338618109767L939.9,97.32802900499189L946.4727272727273,97.4568146993285L953.0454545454545,97.11408651647366L959.6181818181819,97.3284492062175L966.1909090909091,97.45706682006386L972.7636363636364,97.53423738837165L979.3363636363636,97.5805397293563L985.9090909090909,97.60832113394713L992.4818181818182,97.62498997670161L999.0545454545455,96.79499208344072L1005.6272727272727,95.45699414857063L1012.1999999999999,94.23419578819176L1018.7727272727274,93.50051677196444L1025.3454545454545,93.06030936222805L1031.918181818182,92.79618491638627L1038.490909090909,93.47770944779472L1045.0636363636365,93.88662416663976L1051.6363636363637,94.55197259740362L1058.209090909091,96.2111804542323L1064.7818181818182,96.78670556887272L1071.3545454545456,96.71202103820019L1077.9272727272728,95.40721152142629L1084.5,94.2043262119052L1091.0727272727272,92.64259582727891L1097.6454545454544,91.2855579970464L1104.2181818181818,90.47133529890687L1110.790909090909,89.98280168002316L1117.3636363636363,90.52968070760653L1123.9363636363635,92.53780652198367L1130.509090909091,94.58268120952351L1137.081818181818,95.38960642259065L1143.6545454545455,95.45376195097418L1150.2272727272727,95.07225566854743L1156.8,95.26335149854822L1163.3727272727274,95.37800899654866L1169.9454545454546,95.446803495349L1176.5181818181818,95.06808059517238L1183.0909090909092,93.58084805669608L1189.6636363636364,93.10850813306706L1196.2363636363636,92.40510457943287L1202.8090909090909,91.56306284779555L1209.381818181818,91.47783740826992L1215.9545454545455,92.68670094292492L1222.5272727272727,95.09201746154508L1229.1,96.11520777326041L1235.6727272727271,95.88912276137597L1242.2454545454545,95.75347175424531L1248.8181818181818,96.51208034888049L1255.390909090909,96.96724550566165L1261.9636363636364,97.24034459973029L1268.5363636363636,96.56420485725795L1275.109090909091,94.05852301449062L1281.6818181818182,91.71511470991658L1288.2545454545455,90.30906972717219L1294.8272727272729,89.88544233698235" style="fill: none;" fill="none"></path></g><g><path stroke="rgb(255, 112, 67)" stroke-width="2px" d="M131.45454545454547,290.2499986588955L138.02727272727273,284.6249989941716L144.6,284.05101943654677L151.17272727272726,283.797793161124L157.74545454545455,283.6686319449993L164.3181818181818,281.7097870304452L170.89090909090908,282.4464949495625L177.46363636363637,282.87509543658433L184.0363636363636,279.49095273969823L190.6090909090909,280.1988517163652L197.18181818181816,276.1044566313455L203.75454545454545,275.4612737487371L210.3272727272727,274.1750842892562L216.9,267.0995042450718L223.47272727272727,258.3555918271595L230.04545454545453,258.5133998302445L236.61818181818182,255.90759732079312L243.1909090909091,244.44339505418566L249.76363636363638,229.4651238878156L256.3363636363636,222.27881105326432L262.90909090909093,226.9673884121651L269.4818181818182,218.08031757619554L276.05454545454546,218.1481922619162L282.6272727272727,215.48890221997763L289.2,217.49334627966024L295.7727272727273,223.19601835381962L302.3454545454545,223.9176108925279L308.9181818181818,218.9505629488395L315.4909090909091,223.1703383585123L322.06363636363636,231.10220348117556L328.6363636363636,223.2613205122147L335.2090909090909,225.7567915403397L341.78181818181815,220.05407411544604L348.3545454545455,222.03244366764338L354.92727272727274,220.51946735474888L361.5,215.11167992791766L368.0727272727272,218.16700904854258L374.6454545454545,213.70020498338602L381.2181818181818,208.32012458737066L387.7909090909091,205.09207635743272L394.3636363636363,204.05524549176297L400.93636363636364,200.73314901007285L407.5090909090909,188.83988983176314L414.0818181818182,181.70393432697503L420.6545454545454,171.12235952220155L427.22727272727275,165.67341270890705L433.8,169.6040441922638L440.3727272727273,160.26242565684166L446.94545454545454,157.35745625237277L453.51818181818186,150.21447117644524L460.09090909090907,144.128683993298L466.6636363636364,140.47721168342852L473.23636363636365,136.48632464970623L479.80909090909097,131.391798223046L486.3818181818182,132.83508022128888L492.95454545454544,126.50104984938471L499.52727272727276,121.80063355743408L506.09999999999997,127.08038142192149L512.6727272727272,122.14823250095677L519.2454545454545,116.48894143176432L525.8181818181819,116.69336657567237L532.3909090909091,113.21602187659391L538.9636363636364,107.52961527172351L545.5363636363636,112.21776894845749L552.1090909090909,107.83066158365119L558.6818181818181,107.89839888138124L565.2545454545455,103.43903589560125L571.8272727272728,95.36342218109087L578.4,101.31805330865456L584.9727272727273,100.39083413095995L591.5454545454546,93.53450112230615L598.1181818181818,92.1207030337277L604.690909090909,93.9724183870091L611.2636363636364,87.8834480281314L617.8363636363636,91.43006538365137L624.4090909090909,90.85804159053475L630.9818181818182,87.81482559805102L637.5545454545455,94.08889364221687L644.1272727272727,92.45333854567411L650.7,86.97200012333036L657.2727272727273,90.88319664077073L663.8454545454546,92.3299164824254L670.4181818181818,87.7979524643759L676.9909090909091,85.97877212235568L683.5636363636363,82.18726220052986L690.1363636363636,85.31235968066187L696.709090909091,88.0874162375506L703.2818181818183,87.95244652387953L709.8545454545455,86.07146855805792L716.4272727272728,83.14287813076072L723,81.38572387438234L729.5727272727272,77.63143711412681L736.1454545454544,75.37886505797348L742.7181818181818,74.0273218242815L749.290909090909,79.5163898759181L755.8636363636364,77.40983478385778L762.4363636363636,78.84590344523531L769.009090909091,73.40754314002481L775.5818181818182,76.44452845893557L782.1545454545454,77.36671407128722L788.7272727272726,75.22003123226972L795.3000000000001,72.13201788105499L801.8727272727273,70.27920987032616L808.4454545454545,70.96752871169309L815.0181818181818,68.68051829989946L821.5909090909091,72.70830797586558L828.1636363636364,74.22498371263578L834.7363636363636,73.33499301707889L841.3090909090909,73.70099666855424L847.8818181818181,73.02060079062994L854.4545454545455,70.81235961607109L861.0272727272727,72.18741662794957L867.6,72.11245276626715L874.1727272727272,68.46747466383442L880.7454545454545,72.58048179422661L887.3181818181819,70.54828821822912L893.8909090909091,71.12897572043482L900.4636363636363,69.67738457395404L907.0363636363637,72.40642967148881L913.6090909090909,69.54385887577695L920.1818181818181,65.126314681736L926.7545454545455,64.27579181311575L933.3272727272728,61.96547444413926L939.9,63.2792857393672L946.4727272727273,67.66757230192724L953.0454545454545,66.70054445403991L959.6181818181819,67.9203238829266L966.1909090909091,66.85219540263955L972.7636363636364,72.51131981650445L979.3363636363636,70.50679103159581L985.9090909090909,67.5040776230316L992.4818181818182,67.50244571551212L999.0545454545455,64.80146485438661L1005.6272727272727,64.08088191670606L1012.1999999999999,61.84852850629352L1018.7727272727274,58.70912032242694L1025.3454545454545,59.52546961853551L1031.918181818182,57.315284989772124L1038.490909090909,57.78917035013308L1045.0636363636365,60.773503282963475L1051.6363636363637,63.46410111147122L1058.209090909091,60.578461954343084L1064.7818181818182,59.74707652887565L1071.3545454545456,59.24824527359522L1077.9272727272728,60.74895016823126L1084.5,58.94937138839907L1091.0727272727272,58.7696221893093L1097.6454545454544,57.76177460104594L1104.2181818181818,59.85706776470164L1110.790909090909,56.61423829847712L1117.3636363636363,59.16854598316036L1123.9363636363635,56.201125229552304L1130.509090909091,58.02067256281072L1137.081818181818,55.512401177342554L1143.6545454545455,58.507443710479606L1150.2272727272727,61.20446729917143L1156.8,64.62267759000548L1163.3727272727274,63.073603979082634L1169.9454545454546,62.14415981252898L1176.5181818181818,61.5864933125967L1183.0909090909092,60.35189534382789L1189.6636363636364,56.9111348459528L1196.2363636363636,60.246681980455264L1202.8090909090909,58.64801047573354L1209.381818181818,54.08880778747721L1215.9545454545455,56.75328209756566L1222.5272727272727,57.45196861480923L1229.1,57.87118052515541L1235.6727272727271,54.52270788593978L1242.2454545454545,52.51362430241045L1248.8181818181818,58.50817372313941L1255.390909090909,59.404901658962956L1261.9636363636364,58.142942282838135L1268.5363636363636,55.58576300935897L1275.109090909091,54.95146102426622L1281.6818181818182,56.37087597082956L1288.2545454545455,60.822524724190885L1294.8272727272729,55.39351633655161" style="fill: none;" fill="none"></path></g></g></g></g><g opacity="0.2"><g><g><g><path stroke="rgb(204, 51, 17)" stroke-width="2px" d="M131.45454545454547,297.15000012516975L138.02727272727273,297.15000012516975L144.6,297.15000012516975L151.17272727272726,297.15000012516975L157.74545454545455,297.15000012516975L164.3181818181818,297.15000012516975L170.89090909090908,297.15000012516975L177.46363636363637,297.15000012516975L184.0363636363636,297.15000012516975L190.6090909090909,297.15000012516975L197.18181818181816,297.15000012516975L203.75454545454545,297.15000012516975L210.3272727272727,297.15000012516975L216.9,297.15000012516975L223.47272727272727,295.0500021278858L230.04545454545453,250.94999724626544L236.61818181818182,221.54999712109569L243.1909090909091,204.75000375509265L249.76363636363638,201.5999973714352L256.3363636363636,196.35000237822535L262.90909090909093,199.49999937415126L269.4818181818182,201.5999973714352L276.05454545454546,209.9999987483025L282.6272727272727,217.35000112652781L289.2,220.49999812245372L295.7727272727273,221.54999712109569L302.3454545454545,223.65000450611117L308.9181818181818,225.7500025033951L315.4909090909091,227.85000050067904L322.06363636363636,227.85000050067904L328.6363636363636,227.85000050067904L335.2090909090909,225.7500025033951L341.78181818181815,223.65000450611117L348.3545454545455,223.65000450611117L354.92727272727274,220.49999812245372L361.5,218.40000012516978L368.0727272727272,217.35000112652781L374.6454545454545,215.25000312924388L381.2181818181818,212.09999674558642L387.7909090909091,207.90000075101855L394.3636363636363,200.54999837279323L400.93636363636364,194.25000438094142L407.5090909090909,192.14999699592593L414.0818181818182,177.44999223947528L420.6545454545454,172.19999724626547L427.22727272727275,165.90000325441366L433.8,163.8000052571297L440.3727272727273,157.49999248981482L446.94545454545454,155.39999449253085L453.51818181818186,144.9000045061112L460.09090909090907,137.5499927401543L466.6636363636364,130.19999974966055L473.23636363636365,128.10000175237658L479.80909090909097,127.05000275373465L486.3818181818182,124.95000475645068L492.95454545454544,123.90000575780874L499.52727272727276,121.80000776052475L506.09999999999997,120.75000876188284L512.6727272727272,119.69999098777771L519.2454545454545,119.69999098777771L525.8181818181819,119.69999098777771L532.3909090909091,119.69999098777771L538.9636363636364,116.5499939918518L545.5363636363636,115.4999949932099L552.1090909090909,113.3999969959259L558.6818181818181,112.34999799728399L565.2545454545455,111.29999899864202L571.8272727272728,111.29999899864202L578.4,111.29999899864202L584.9727272727273,111.29999899864202L591.5454545454546,110.25L598.1181818181818,108.15000200271612L604.690909090909,107.1000030040741L611.2636363636364,108.15000200271612L617.8363636363636,107.1000030040741L624.4090909090909,106.05000400543219L630.9818181818182,102.90000700950628L637.5545454545455,102.90000700950628L644.1272727272727,102.90000700950628L650.7,102.90000700950628L657.2727272727273,97.64999324083334L663.8454545454546,96.59999424219137L670.4181818181818,96.59999424219137L676.9909090909091,96.59999424219137L683.5636363636363,96.59999424219137L690.1363636363636,96.59999424219137L696.709090909091,96.59999424219137L703.2818181818183,96.59999424219137L709.8545454545455,95.54999524354935L716.4272727272728,96.59999424219137L723,94.49999624490744L729.5727272727272,96.59999424219137L736.1454545454544,97.64999324083334L742.7181818181818,97.64999324083334L749.290909090909,97.64999324083334L755.8636363636364,98.69999223947525L762.4363636363636,98.69999223947525L769.009090909091,98.69999223947525L775.5818181818182,95.54999524354935L782.1545454545454,95.54999524354935L788.7272727272726,95.54999524354935L795.3000000000001,96.59999424219137L801.8727272727273,96.59999424219137L808.4454545454545,96.59999424219137L815.0181818181818,96.59999424219137L821.5909090909091,96.59999424219137L828.1636363636364,97.64999324083334L834.7363636363636,98.69999223947525L841.3090909090909,96.59999424219137L847.8818181818181,95.54999524354935L854.4545454545455,95.54999524354935L861.0272727272727,96.59999424219137L867.6,96.59999424219137L874.1727272727272,94.49999624490744L880.7454545454545,93.44999724626547L887.3181818181819,94.49999624490744L893.8909090909091,94.49999624490744L900.4636363636363,94.49999624490744L907.0363636363637,96.59999424219137L913.6090909090909,96.59999424219137L920.1818181818181,96.59999424219137L926.7545454545455,97.64999324083334L933.3272727272728,97.64999324083334L939.9,97.64999324083334L946.4727272727273,97.64999324083334L953.0454545454545,96.59999424219137L959.6181818181819,97.64999324083334L966.1909090909091,97.64999324083334L972.7636363636364,97.64999324083334L979.3363636363636,97.64999324083334L985.9090909090909,97.64999324083334L992.4818181818182,97.64999324083334L999.0545454545455,95.54999524354935L1005.6272727272727,93.44999724626547L1012.1999999999999,92.3999982476235L1018.7727272727274,92.3999982476235L1025.3454545454545,92.3999982476235L1031.918181818182,92.3999982476235L1038.490909090909,94.49999624490744L1045.0636363636365,94.49999624490744L1051.6363636363637,95.54999524354935L1058.209090909091,98.69999223947525L1064.7818181818182,97.64999324083334L1071.3545454545456,96.59999424219137L1077.9272727272728,93.44999724626547L1084.5,92.3999982476235L1091.0727272727272,90.30000025033956L1097.6454545454544,89.2500012516976L1104.2181818181818,89.2500012516976L1110.790909090909,89.2500012516976L1117.3636363636363,91.34999924898153L1123.9363636363635,95.54999524354935L1130.509090909091,97.64999324083334L1137.081818181818,96.59999424219137L1143.6545454545455,95.54999524354935L1150.2272727272727,94.49999624490744L1156.8,95.54999524354935L1163.3727272727274,95.54999524354935L1169.9454545454546,95.54999524354935L1176.5181818181818,94.49999624490744L1183.0909090909092,91.34999924898153L1189.6636363636364,92.3999982476235L1196.2363636363636,91.34999924898153L1202.8090909090909,90.30000025033956L1209.381818181818,91.34999924898153L1215.9545454545455,94.49999624490744L1222.5272727272727,98.69999223947525L1229.1,97.64999324083334L1235.6727272727271,95.54999524354935L1242.2454545454545,95.54999524354935L1248.8181818181818,97.64999324083334L1255.390909090909,97.64999324083334L1261.9636363636364,97.64999324083334L1268.5363636363636,95.54999524354935L1275.109090909091,90.30000025033956L1281.6818181818182,88.20000225305563L1288.2545454545455,88.20000225305563L1294.8272727272729,89.2500012516976" style="fill: none;" fill="none"></path></g><g><path stroke="rgb(255, 112, 67)" stroke-width="2px" d="M131.45454545454547,290.2499986588955L138.02727272727273,281.2499991953373L144.6,283.49999906122684L151.17272727272726,283.49999906122684L157.74545454545455,283.49999906122684L164.3181818181818,278.99999932944775L170.89090909090908,283.49999906122684L177.46363636363637,283.49999906122684L184.0363636363636,274.49999959766865L190.6090909090909,281.2499991953373L197.18181818181816,269.99999986588955L203.75454545454545,274.49999959766865L210.3272727272727,272.2499997317791L216.9,256.4999959766865L223.47272727272727,245.25000134110454L230.04545454545453,258.7500005364418L236.61818181818182,251.99999624490738L243.1909090909091,227.25000241398814L249.76363636363638,206.99999892711642L256.3363636363636,211.49999865889552L262.90909090909093,233.999997317791L269.4818181818182,204.75000375509265L276.05454545454546,218.25000295042994L282.6272727272727,211.49999865889552L289.2,220.49999812245372L295.7727272727273,231.75000214576724L302.3454545454545,224.99999785423282L308.9181818181818,211.49999865889552L315.4909090909091,229.49999758601192L322.06363636363636,242.9999967813492L328.6363636363636,211.49999865889552L335.2090909090909,229.49999758601192L341.78181818181815,211.49999865889552L348.3545454545455,224.99999785423282L354.92727272727274,218.25000295042994L361.5,206.99999892711642L368.0727272727272,222.75000268220904L374.6454545454545,206.99999892711642L381.2181818181818,200.25000402331355L387.7909090909091,200.25000402331355L394.3636363636363,202.49999919533732L400.93636363636364,195.75000429153445L407.5090909090909,171.00000107288363L414.0818181818182,171.00000107288363L420.6545454545454,155.249997317791L427.22727272727275,157.49999248981482L433.8,175.4999914169312L440.3727272727273,146.24999785423282L446.94545454545454,153.00000214576724L453.51818181818186,139.49999356269842L460.09090909090907,135.00000321865085L466.6636363636364,135.00000321865085L473.23636363636365,130.49999409914022L479.80909090909097,123.7500085830689L486.3818181818182,135.00000321865085L492.95454545454544,117.00000429153448L499.52727272727276,114.75000911951071L506.09999999999997,135.00000321865085L512.6727272727272,114.75000911951071L519.2454545454545,108.00000482797628L525.8181818181819,117.00000429153448L532.3909090909091,108.00000482797628L538.9636363636364,99.00000536441809L545.5363636363636,119.2499994635582L552.1090909090909,101.2500005364418L558.6818181818181,108.00000482797628L565.2545454545455,96.74999141693121L571.8272727272728,83.25000160932547L578.4,110.25L584.9727272727273,99.00000536441809L591.5454545454546,83.25000160932547L598.1181818181818,90.00000590085989L604.690909090909,96.74999141693121L611.2636363636364,78.74999248981482L617.8363636363636,96.74999141693121L624.4090909090909,90.00000590085989L630.9818181818182,83.25000160932547L637.5545454545455,103.49999570846563L644.1272727272727,90.00000590085989L650.7,78.74999248981482L657.2727272727273,96.74999141693121L663.8454545454546,94.49999624490744L670.4181818181818,81.00000643730169L676.9909090909091,83.25000160932547L683.5636363636363,76.49999731779104L690.1363636363636,90.00000590085989L696.709090909091,92.25000107288366L703.2818181818183,87.74999195337301L709.8545454545455,83.25000160932547L716.4272727272728,78.74999248981482L723,78.74999248981482L729.5727272727272,72.0000069737435L736.1454545454544,72.0000069737435L742.7181818181818,72.0000069737435L749.290909090909,87.74999195337301L755.8636363636364,74.25000214576727L762.4363636363636,81.00000643730169L769.009090909091,65.25000268220907L775.5818181818182,81.00000643730169L782.1545454545454,78.74999248981482L788.7272727272726,72.0000069737435L795.3000000000001,67.49999785423284L801.8727272727273,67.49999785423284L808.4454545454545,72.0000069737435L815.0181818181818,65.25000268220907L821.5909090909091,78.74999248981482L828.1636363636364,76.49999731779104L834.7363636363636,72.0000069737435L841.3090909090909,74.25000214576727L847.8818181818181,72.0000069737435L854.4545454545455,67.49999785423284L861.0272727272727,74.25000214576727L867.6,72.0000069737435L874.1727272727272,63.0000075101853L880.7454545454545,78.74999248981482L887.3181818181819,67.49999785423284L893.8909090909091,72.0000069737435L900.4636363636363,67.49999785423284L907.0363636363637,76.49999731779104L913.6090909090909,65.25000268220907L920.1818181818181,58.49999839067459L926.7545454545455,63.0000075101853L933.3272727272728,58.49999839067459L939.9,65.25000268220907L946.4727272727273,74.25000214576727L953.0454545454545,65.25000268220907L959.6181818181819,69.74999302625662L966.1909090909091,65.25000268220907L972.7636363636364,81.00000643730169L979.3363636363636,67.49999785423284L985.9090909090909,63.0000075101853L992.4818181818182,67.49999785423284L999.0545454545455,60.749993562698364L1005.6272727272727,63.0000075101853L1012.1999999999999,58.49999839067459L1018.7727272727274,54.000008046627045L1025.3454545454545,60.749993562698364L1031.918181818182,54.000008046627045L1038.490909090909,58.49999839067459L1045.0636363636365,65.25000268220907L1051.6363636363637,67.49999785423284L1058.209090909091,56.25000321865082L1064.7818181818182,58.49999839067459L1071.3545454545456,58.49999839067459L1077.9272727272728,63.0000075101853L1084.5,56.25000321865082L1091.0727272727272,58.49999839067459L1097.6454545454544,56.25000321865082L1104.2181818181818,63.0000075101853L1110.790909090909,51.74999409914017L1117.3636363636363,63.0000075101853L1123.9363636363635,51.74999409914017L1130.509090909091,60.749993562698364L1137.081818181818,51.74999409914017L1143.6545454545455,63.0000075101853L1150.2272727272727,65.25000268220907L1156.8,69.74999302625662L1163.3727272727274,60.749993562698364L1169.9454545454546,60.749993562698364L1176.5181818181818,60.749993562698364L1183.0909090909092,58.49999839067459L1189.6636363636364,51.74999409914017L1196.2363636363636,65.25000268220907L1202.8090909090909,56.25000321865082L1209.381818181818,47.25000375509262L1215.9545454545455,60.749993562698364L1222.5272727272727,58.49999839067459L1229.1,58.49999839067459L1235.6727272727271,49.499998927116394L1242.2454545454545,49.499998927116394L1248.8181818181818,67.49999785423284L1255.390909090909,60.749993562698364L1261.9636363636364,56.25000321865082L1268.5363636363636,51.74999409914017L1275.109090909091,54.000008046627045L1281.6818181818182,58.49999839067459L1288.2545454545455,67.49999785423284L1294.8272727272729,47.25000375509262" style="fill: none;" fill="none"></path></g></g></g></g></g></g><g transform="translate(50, 378)" clip-path="url(#clip_1)"><clipPath id="clip_1"><rect width="1446" height="22"></rect></clipPath><g><g><line x1="0" y1="0" x2="0" y2="5" style="visibility: inherit;" fill="rgb(0, 0, 0)" stroke="rgb(204, 204, 204)" stroke-width="1px"></line><line x1="131.45454545454547" y1="0" x2="131.45454545454547" y2="5" style="visibility: inherit;" fill="rgb(0, 0, 0)" stroke="rgb(204, 204, 204)" stroke-width="1px"></line><line x1="262.90909090909093" y1="0" x2="262.90909090909093" y2="5" style="visibility: inherit;" fill="rgb(0, 0, 0)" stroke="rgb(204, 204, 204)" stroke-width="1px"></line><line x1="394.3636363636363" y1="0" x2="394.3636363636363" y2="5" style="visibility: inherit;" fill="rgb(0, 0, 0)" stroke="rgb(204, 204, 204)" stroke-width="1px"></line><line x1="525.8181818181819" y1="0" x2="525.8181818181819" y2="5" style="visibility: inherit;" fill="rgb(0, 0, 0)" stroke="rgb(204, 204, 204)" stroke-width="1px"></line><line x1="657.2727272727273" y1="0" x2="657.2727272727273" y2="5" style="visibility: inherit;" fill="rgb(0, 0, 0)" stroke="rgb(204, 204, 204)" stroke-width="1px"></line><line x1="788.7272727272726" y1="0" x2="788.7272727272726" y2="5" style="visibility: inherit;" fill="rgb(0, 0, 0)" stroke="rgb(204, 204, 204)" stroke-width="1px"></line><line x1="920.1818181818181" y1="0" x2="920.1818181818181" y2="5" style="visibility: inherit;" fill="rgb(0, 0, 0)" stroke="rgb(204, 204, 204)" stroke-width="1px"></line><line x1="1051.6363636363637" y1="0" x2="1051.6363636363637" y2="5" style="visibility: inherit;" fill="rgb(0, 0, 0)" stroke="rgb(204, 204, 204)" stroke-width="1px"></line><line x1="1183.0909090909092" y1="0" x2="1183.0909090909092" y2="5" style="visibility: inherit;" fill="rgb(0, 0, 0)" stroke="rgb(204, 204, 204)" stroke-width="1px"></line><line x1="1314.5454545454545" y1="0" x2="1314.5454545454545" y2="5" style="visibility: inherit;" fill="rgb(0, 0, 0)" stroke="rgb(204, 204, 204)" stroke-width="1px"></line><line x1="1446" y1="0" x2="1446" y2="5" style="visibility: inherit;" fill="rgb(0, 0, 0)" stroke="rgb(204, 204, 204)" stroke-width="1px"></line></g><g transform="translate(0, 8)"><text x="0" y="0" dx="0em" dy="0.95em" style="text-anchor: middle; visibility: hidden; font-family: &quot;Helvetica Neue&quot;, sans-serif; font-size: 12px; font-weight: 200;" fill="rgb(50, 49, 63)" stroke="none" stroke-width="1px">-20</text><text x="131.45454545454547" y="0" dx="0em" dy="0.95em" style="text-anchor: middle; visibility: inherit; font-family: &quot;Helvetica Neue&quot;, sans-serif; font-size: 12px; font-weight: 200;" fill="rgb(50, 49, 63)" stroke="none" stroke-width="1px">0</text><text x="262.90909090909093" y="0" dx="0em" dy="0.95em" style="text-anchor: middle; visibility: inherit; font-family: &quot;Helvetica Neue&quot;, sans-serif; font-size: 12px; font-weight: 200;" fill="rgb(50, 49, 63)" stroke="none" stroke-width="1px">20</text><text x="394.3636363636363" y="0" dx="0em" dy="0.95em" style="text-anchor: middle; visibility: inherit; font-family: &quot;Helvetica Neue&quot;, sans-serif; font-size: 12px; font-weight: 200;" fill="rgb(50, 49, 63)" stroke="none" stroke-width="1px">40</text><text x="525.8181818181819" y="0" dx="0em" dy="0.95em" style="text-anchor: middle; visibility: inherit; font-family: &quot;Helvetica Neue&quot;, sans-serif; font-size: 12px; font-weight: 200;" fill="rgb(50, 49, 63)" stroke="none" stroke-width="1px">60</text><text x="657.2727272727273" y="0" dx="0em" dy="0.95em" style="text-anchor: middle; visibility: inherit; font-family: &quot;Helvetica Neue&quot;, sans-serif; font-size: 12px; font-weight: 200;" fill="rgb(50, 49, 63)" stroke="none" stroke-width="1px">80</text><text x="788.7272727272726" y="0" dx="0em" dy="0.95em" style="text-anchor: middle; visibility: inherit; font-family: &quot;Helvetica Neue&quot;, sans-serif; font-size: 12px; font-weight: 200;" fill="rgb(50, 49, 63)" stroke="none" stroke-width="1px">100</text><text x="920.1818181818181" y="0" dx="0em" dy="0.95em" style="text-anchor: middle; visibility: inherit; font-family: &quot;Helvetica Neue&quot;, sans-serif; font-size: 12px; font-weight: 200;" fill="rgb(50, 49, 63)" stroke="none" stroke-width="1px">120</text><text x="1051.6363636363637" y="0" dx="0em" dy="0.95em" style="text-anchor: middle; visibility: inherit; font-family: &quot;Helvetica Neue&quot;, sans-serif; font-size: 12px; font-weight: 200;" fill="rgb(50, 49, 63)" stroke="none" stroke-width="1px">140</text><text x="1183.0909090909092" y="0" dx="0em" dy="0.95em" style="text-anchor: middle; visibility: inherit; font-family: &quot;Helvetica Neue&quot;, sans-serif; font-size: 12px; font-weight: 200;" fill="rgb(50, 49, 63)" stroke="none" stroke-width="1px">160</text><text x="1314.5454545454545" y="0" dx="0em" dy="0.95em" style="text-anchor: middle; visibility: inherit; font-family: &quot;Helvetica Neue&quot;, sans-serif; font-size: 12px; font-weight: 200;" fill="rgb(50, 49, 63)" stroke="none" stroke-width="1px">180</text><text x="1446" y="0" dx="0em" dy="0.95em" style="text-anchor: middle; visibility: hidden; font-family: &quot;Helvetica Neue&quot;, sans-serif; font-size: 12px; font-weight: 200;" fill="rgb(50, 49, 63)" stroke="none" stroke-width="1px">200</text></g><line x1="0" y1="0" x2="1446" y2="0" fill="rgb(0, 0, 0)" stroke="rgb(204, 204, 204)" stroke-width="1px"></line></g></g></g></g></svg>