<svg viewBox="0 0 1496 400" xmlns="http://www.w3.org/2000/svg"><g><g><g><g><g><line x1="50" y1="378" x2="45" y2="378" style="visibility: inherit;" fill="rgb(0, 0, 0)" stroke="rgb(204, 204, 204)" stroke-width="1px"></line><line x1="50" y1="346.5" x2="45" y2="346.5" style="visibility: inherit;" fill="rgb(0, 0, 0)" stroke="rgb(204, 204, 204)" stroke-width="1px"></line><line x1="50" y1="315" x2="45" y2="315" style="visibility: inherit;" fill="rgb(0, 0, 0)" stroke="rgb(204, 204, 204)" stroke-width="1px"></line><line x1="50" y1="283.5" x2="45" y2="283.5" style="visibility: inherit;" fill="rgb(0, 0, 0)" stroke="rgb(204, 204, 204)" stroke-width="1px"></line><line x1="50" y1="252" x2="45" y2="252" style="visibility: inherit;" fill="rgb(0, 0, 0)" stroke="rgb(204, 204, 204)" stroke-width="1px"></line><line x1="50" y1="220.5" x2="45" y2="220.5" style="visibility: inherit;" fill="rgb(0, 0, 0)" stroke="rgb(204, 204, 204)" stroke-width="1px"></line><line x1="50" y1="189.00000000000003" x2="45" y2="189.00000000000003" style="visibility: inherit;" fill="rgb(0, 0, 0)" stroke="rgb(204, 204, 204)" stroke-width="1px"></line><line x1="50" y1="157.50000000000003" x2="45" y2="157.50000000000003" style="visibility: inherit;" fill="rgb(0, 0, 0)" stroke="rgb(204, 204, 204)" stroke-width="1px"></line><line x1="50" y1="126.00000000000006" x2="45" y2="126.00000000000006" style="visibility: inherit;" fill="rgb(0, 0, 0)" stroke="rgb(204, 204, 204)" stroke-width="1px"></line><line x1="50" y1="94.50000000000006" x2="45" y2="94.50000000000006" style="visibility: inherit;" fill="rgb(0, 0, 0)" stroke="rgb(204, 204, 204)" stroke-width="1px"></line><line x1="50" y1="63" x2="45" y2="63" style="visibility: inherit;" fill="rgb(0, 0, 0)" stroke="rgb(204, 204, 204)" stroke-width="1px"></line><line x1="50" y1="31.5" x2="45" y2="31.5" style="visibility: inherit;" fill="rgb(0, 0, 0)" stroke="rgb(204, 204, 204)" stroke-width="1px"></line><line x1="50" y1="0" x2="45" y2="0" style="visibility: inherit;" fill="rgb(0, 0, 0)" stroke="rgb(204, 204, 204)" stroke-width="1px"></line></g><g transform="translate(40, 0)"><text x="0" y="378" dx="0em" dy="0.3em" style="text-anchor: end; visibility: hidden; font-family: &quot;Helvetica Neue&quot;, sans-serif; font-size: 12px; font-weight: 200;" fill="rgb(50, 49, 63)" stroke="none" stroke-width="1px">-0.2</text><text x="0" y="346.5" dx="0em" dy="0.3em" style="text-anchor: end; visibility: inherit; font-family: &quot;Helvetica Neue&quot;, sans-serif; font-size: 12px; font-weight: 200;" fill="rgb(50, 49, 63)" stroke="none" stroke-width="1px">0</text><text x="0" y="315" dx="0em" dy="0.3em" style="text-anchor: end; visibility: inherit; font-family: &quot;Helvetica Neue&quot;, sans-serif; font-size: 12px; font-weight: 200;" fill="rgb(50, 49, 63)" stroke="none" stroke-width="1px">0.2</text><text x="0" y="283.5" dx="0em" dy="0.3em" style="text-anchor: end; visibility: inherit; font-family: &quot;Helvetica Neue&quot;, sans-serif; font-size: 12px; font-weight: 200;" fill="rgb(50, 49, 63)" stroke="none" stroke-width="1px">0.4</text><text x="0" y="252" dx="0em" dy="0.3em" style="text-anchor: end; visibility: inherit; font-family: &quot;Helvetica Neue&quot;, sans-serif; font-size: 12px; font-weight: 200;" fill="rgb(50, 49, 63)" stroke="none" stroke-width="1px">0.6</text><text x="0" y="220.5" dx="0em" dy="0.3em" style="text-anchor: end; visibility: inherit; font-family: &quot;Helvetica Neue&quot;, sans-serif; font-size: 12px; font-weight: 200;" fill="rgb(50, 49, 63)" stroke="none" stroke-width="1px">0.8</text><text x="0" y="189.00000000000003" dx="0em" dy="0.3em" style="text-anchor: end; visibility: inherit; font-family: &quot;Helvetica Neue&quot;, sans-serif; font-size: 12px; font-weight: 200;" fill="rgb(50, 49, 63)" stroke="none" stroke-width="1px">1</text><text x="0" y="157.50000000000003" dx="0em" dy="0.3em" style="text-anchor: end; visibility: inherit; font-family: &quot;Helvetica Neue&quot;, sans-serif; font-size: 12px; font-weight: 200;" fill="rgb(50, 49, 63)" stroke="none" stroke-width="1px">1.2</text><text x="0" y="126.00000000000006" dx="0em" dy="0.3em" style="text-anchor: end; visibility: inherit; font-family: &quot;Helvetica Neue&quot;, sans-serif; font-size: 12px; font-weight: 200;" fill="rgb(50, 49, 63)" stroke="none" stroke-width="1px">1.4</text><text x="0" y="94.50000000000006" dx="0em" dy="0.3em" style="text-anchor: end; visibility: inherit; font-family: &quot;Helvetica Neue&quot;, sans-serif; font-size: 12px; font-weight: 200;" fill="rgb(50, 49, 63)" stroke="none" stroke-width="1px">1.6</text><text x="0" y="63" dx="0em" dy="0.3em" style="text-anchor: end; visibility: inherit; font-family: &quot;Helvetica Neue&quot;, sans-serif; font-size: 12px; font-weight: 200;" fill="rgb(50, 49, 63)" stroke="none" stroke-width="1px">1.8</text><text x="0" y="31.5" dx="0em" dy="0.3em" style="text-anchor: end; visibility: inherit; font-family: &quot;Helvetica Neue&quot;, sans-serif; font-size: 12px; font-weight: 200;" fill="rgb(50, 49, 63)" stroke="none" stroke-width="1px">2</text><text x="0" y="0" dx="0em" dy="0.3em" style="text-anchor: end; visibility: hidden; font-family: &quot;Helvetica Neue&quot;, sans-serif; font-size: 12px; font-weight: 200;" fill="rgb(50, 49, 63)" stroke="none" stroke-width="1px">2.2</text></g><line x1="50" y1="0" x2="50" y2="378" fill="rgb(0, 0, 0)" stroke="rgb(204, 204, 204)" stroke-width="1px"></line></g></g><g transform="translate(50, 0)" clip-path="url(#clip_0)"><clipPath id="clip_0"><rect width="1446" height="378"></rect></clipPath><g><g><g><line x1="0" y1="0" x2="0" y2="378" fill="rgb(0, 0, 0)" stroke="rgb(60, 60, 60)" stroke-width="1px" opacity="0.25"></line><line x1="131.45454545454547" y1="0" x2="131.45454545454547" y2="378" fill="rgb(0, 0, 0)" stroke="rgb(60, 60, 60)" stroke-width="1px" opacity="0.25"></line><line x1="262.90909090909093" y1="0" x2="262.90909090909093" y2="378" fill="rgb(0, 0, 0)" stroke="rgb(60, 60, 60)" stroke-width="1px" opacity="0.25"></line><line x1="394.3636363636363" y1="0" x2="394.3636363636363" y2="378" fill="rgb(0, 0, 0)" stroke="rgb(60, 60, 60)" stroke-width="1px" opacity="0.25"></line><line x1="525.8181818181819" y1="0" x2="525.8181818181819" y2="378" fill="rgb(0, 0, 0)" stroke="rgb(60, 60, 60)" stroke-width="1px" opacity="0.25"></line><line x1="657.2727272727273" y1="0" x2="657.2727272727273" y2="378" fill="rgb(0, 0, 0)" stroke="rgb(60, 60, 60)" stroke-width="1px" opacity="0.25"></line><line x1="788.7272727272726" y1="0" x2="788.7272727272726" y2="378" fill="rgb(0, 0, 0)" stroke="rgb(60, 60, 60)" stroke-width="1px" opacity="0.25"></line><line x1="920.1818181818181" y1="0" x2="920.1818181818181" y2="378" fill="rgb(0, 0, 0)" stroke="rgb(60, 60, 60)" stroke-width="1px" opacity="0.25"></line><line x1="1051.6363636363637" y1="0" x2="1051.6363636363637" y2="378" fill="rgb(0, 0, 0)" stroke="rgb(60, 60, 60)" stroke-width="1px" opacity="0.25"></line><line x1="1183.0909090909092" y1="0" x2="1183.0909090909092" y2="378" fill="rgb(0, 0, 0)" stroke="rgb(60, 60, 60)" stroke-width="1px" opacity="0.25"></line><line x1="1314.5454545454545" y1="0" x2="1314.5454545454545" y2="378" fill="rgb(0, 0, 0)" stroke="rgb(60, 60, 60)" stroke-width="1px" opacity="0.25"></line><line x1="1446" y1="0" x2="1446" y2="378" fill="rgb(0, 0, 0)" stroke="rgb(60, 60, 60)" stroke-width="1px" opacity="0.25"></line></g><g><line x1="0" y1="378" x2="1446" y2="378" fill="rgb(0, 0, 0)" stroke="rgb(60, 60, 60)" stroke-width="1px" opacity="0.25"></line><line x1="0" y1="346.5" x2="1446" y2="346.5" fill="rgb(0, 0, 0)" stroke="rgb(60, 60, 60)" stroke-width="1px" opacity="0.25"></line><line x1="0" y1="315" x2="1446" y2="315" fill="rgb(0, 0, 0)" stroke="rgb(60, 60, 60)" stroke-width="1px" opacity="0.25"></line><line x1="0" y1="283.5" x2="1446" y2="283.5" fill="rgb(0, 0, 0)" stroke="rgb(60, 60, 60)" stroke-width="1px" opacity="0.25"></line><line x1="0" y1="252" x2="1446" y2="252" fill="rgb(0, 0, 0)" stroke="rgb(60, 60, 60)" stroke-width="1px" opacity="0.25"></line><line x1="0" y1="220.5" x2="1446" y2="220.5" fill="rgb(0, 0, 0)" stroke="rgb(60, 60, 60)" stroke-width="1px" opacity="0.25"></line><line x1="0" y1="189.00000000000003" x2="1446" y2="189.00000000000003" fill="rgb(0, 0, 0)" stroke="rgb(60, 60, 60)" stroke-width="1px" opacity="0.25"></line><line x1="0" y1="157.50000000000003" x2="1446" y2="157.50000000000003" fill="rgb(0, 0, 0)" stroke="rgb(60, 60, 60)" stroke-width="1px" opacity="0.25"></line><line x1="0" y1="126.00000000000006" x2="1446" y2="126.00000000000006" fill="rgb(0, 0, 0)" stroke="rgb(60, 60, 60)" stroke-width="1px" opacity="0.25"></line><line x1="0" y1="94.50000000000006" x2="1446" y2="94.50000000000006" fill="rgb(0, 0, 0)" stroke="rgb(60, 60, 60)" stroke-width="1px" opacity="0.25"></line><line x1="0" y1="63" x2="1446" y2="63" fill="rgb(0, 0, 0)" stroke="rgb(60, 60, 60)" stroke-width="1px" opacity="0.25"></line><line x1="0" y1="31.5" x2="1446" y2="31.5" fill="rgb(0, 0, 0)" stroke="rgb(60, 60, 60)" stroke-width="1px" opacity="0.25"></line><line x1="0" y1="0" x2="1446" y2="0" fill="rgb(0, 0, 0)" stroke="rgb(60, 60, 60)" stroke-width="1px" opacity="0.25"></line></g></g></g><g><g><line x1="0" y1="346.5" x2="1446" y2="346.5" fill="rgb(0, 0, 0)" stroke="rgb(153, 153, 153)" stroke-width="1.5px"></line></g></g><g><g><line x1="131.45454545454547" y1="0" x2="131.45454545454547" y2="378" fill="rgb(0, 0, 0)" stroke="rgb(153, 153, 153)" stroke-width="1.5px"></line></g></g><g><g><g><g><g><path stroke="rgb(51, 187, 238)" stroke-width="2px" d="M131.45454545454547,32.09972584247589L138.02727272727273,33.38524659723049L144.6,34.81683614424304L151.17272727272726,36.345370924209874L157.74545454545455,37.919132618048764L164.3181818181818,39.55272582078118L170.89090909090908,41.236825439177096L177.46363636363637,42.96199891568756L184.0363636363636,44.721397427587135L190.6090909090909,46.53129422668826L197.18181818181816,48.37395822302568L203.75454545454545,50.209079169282404L210.3272727272727,52.0492825717364L216.9,53.89731705908736L223.47272727272727,55.74039021501716L230.04545454545453,57.568881383740006L236.61818181818182,59.37600435137642L243.1909090909091,61.17456127888812L249.76363636363638,62.983688122283354L256.3363636363636,64.78914398741864L262.90909090909093,66.58048860832491L269.4818181818182,68.36054598932623L276.05454545454546,70.10577919475708L282.6272727272727,71.8162355312785L289.2,73.49298566978513L295.7727272727273,75.13042256246331L302.3454545454545,76.75303673526389L308.9181818181818,78.36250697136592L315.4909090909091,79.97109812497223L322.06363636363636,81.57562468952597L328.6363636363636,83.18146017934663L335.2090909090909,84.78796842811443L341.78181818181815,86.39774174698925L348.3545454545455,88.00546368918924L354.92727272727274,89.61335171222368L361.5,91.2271973356747L368.0727272727272,92.84759155710856L374.6454545454545,94.48578625214617L381.2181818181818,96.14837483116366L387.7909090909091,97.84726662593715L394.3636363636363,99.58342635268724L400.93636363636364,101.3577407585264L407.5090909090909,103.17554841014669L414.0818181818182,105.0412240363786L420.6545454545454,106.97827829963012L427.22727272727275,108.99453908245056L433.8,111.03393069537339L440.3727272727273,113.10506002688209L446.94545454545454,115.17792852275653L453.51818181818186,117.27597825262512L460.09090909090907,119.41198270639956L466.6636363636364,121.56461666299248L473.23636363636365,123.7700964586376L479.80909090909097,126.03573233941077L486.3818181818182,128.36098377143819L492.95454545454544,130.69084477565067L499.52727272727276,133.01458697403353L506.09999999999997,135.34747777512632L512.6727272727272,137.6717836507022L519.2454545454545,139.98251214312688L525.8181818181819,142.26468152217384L532.3909090909091,144.50710226543143L538.9636363636364,146.69594100384356L545.5363636363636,148.79661957781582L552.1090909090909,150.82568667150187L558.6818181818181,152.8362851012745L565.2545454545455,154.86714233571288L571.8272727272728,156.93755951889753L578.4,159.00760497670416L584.9727272727273,161.00082350981856L591.5454545454546,162.94743519552125L598.1181818181818,164.83611713366255L604.690909090909,166.64963642666666L611.2636363636364,168.4212649816867L617.8363636363636,170.14620486227253L624.4090909090909,171.81336867408504L630.9818181818182,173.40533437488406L637.5545454545455,174.96323620175085L644.1272727272727,176.4696375780985L650.7,177.9494570406488L657.2727272727273,179.36653890086484L663.8454545454546,180.7873142592506L670.4181818181818,182.1891795654533L676.9909090909091,183.611789861884L683.5636363636363,185.04283671353235L690.1363636363636,186.43962216838585L696.709090909091,187.75986235418554L703.2818181818183,188.98130367445134L709.8545454545455,190.09906170515526L716.4272727272728,191.1661003455419L723,192.2231200352251L729.5727272727272,193.2618867525422L736.1454545454544,194.27622465902354L742.7181818181818,195.27398267158142L749.290909090909,196.3134515569703L755.8636363636364,197.36201786316016L762.4363636363636,198.40203237126218L769.009090909091,199.471654162347L775.5818181818182,200.52114768358453L782.1545454545454,201.49386399705637L788.7272727272726,202.40672904085773L795.3000000000001,203.2632030477027L801.8727272727273,204.06779545723796L808.4454545454545,204.7778767000401L815.0181818181818,205.43588127200388L821.5909090909091,206.02906180324905L828.1636363636364,206.55903368534297L834.7363636363636,207.08062169159442L841.3090909090909,207.69069995406267L847.8818181818181,208.37883622600435L854.4545454545455,209.16141812296988L861.0272727272727,209.946470143153L867.6,210.6568922649346L874.1727272727272,211.38375572267313L880.7454545454545,212.04012124480687L887.3181818181819,212.64873936618497L893.8909090909091,213.22952014711578L900.4636363636363,213.7767944842999L907.0363636363637,214.25475446643978L913.6090909090909,214.6724667803201L920.1818181818181,215.08677865599117L926.7545454545455,215.54700655659747L933.3272727272728,215.99908440661855L939.9,216.45069197030324L946.4727272727273,216.86832291609917L953.0454545454545,217.30218004421516L959.6181818181819,217.70832709810807L966.1909090909091,218.10097234452772L972.7636363636364,218.43169851902132L979.3363636363636,218.78695815684205L985.9090909090909,219.20609203506595L992.4818181818182,219.71340682225875L999.0545454545455,220.29994208882724L1005.6272727272727,220.86336884063763L1012.1999999999999,221.3674976179736L1018.7727272727274,221.80826368032322L1025.3454545454545,222.19138424455178L1031.918181818182,222.53295181309616L1038.490909090909,222.82075598308705L1045.0636363636365,223.10253143590248L1051.6363636363637,223.3851206677053L1058.209090909091,223.6726254211005L1064.7818181818182,224.05691925204613L1071.3545454545456,224.43107902715693L1077.9272727272728,224.8792056781655L1084.5,225.3573041643265L1091.0727272727272,225.84447116169713L1097.6454545454544,226.30634758778444L1104.2181818181818,226.7418069237949L1110.790909090909,227.11899472442164L1117.3636363636363,227.407758350175L1123.9363636363635,227.5999797433623L1130.509090909091,227.706544438005L1137.081818181818,227.83849549233946L1143.6545454545455,227.9894672509434L1150.2272727272727,228.17650361516488L1156.8,228.44146758114346L1163.3727272727274,228.74813750860125L1169.9454545454546,229.03592271493093L1176.5181818181818,229.2905975513829L1183.0909090909092,229.5179335315927L1189.6636363636364,229.7571120047512L1196.2363636363636,229.9667124738659L1202.8090909090909,230.15749969424996L1209.381818181818,230.32116749490618L1215.9545454545455,230.44114020231558L1222.5272727272727,230.51537312724108L1229.1,230.4533959249134L1235.6727272727271,230.2476359855816L1242.2454545454545,230.17104733298333L1248.8181818181818,230.25757380908797L1255.390909090909,230.54449090114872L1261.9636363636364,230.9166073486307L1268.5363636363636,231.32530744583002L1275.109090909091,231.7207499844467L1281.6818181818182,232.0932852090976L1288.2545454545455,232.41053345570452L1294.8272727272729,232.700028114137L1301.4,232.99389913834153L1307.9727272727273,233.2596718141855L1314.5454545454545,233.45626953061947L1321.118181818182,233.59044640550928L1327.6909090909091,233.6808021383877L1334.2636363636364,233.77113205894204L1340.8363636363636,233.92796795788033L1347.4090909090908,234.10546259416716L1353.9818181818182,234.3173836012696L1360.5545454545454,234.57833391070454L1367.1272727272726,234.84151117587146L1373.7,235.0646359836105L1380.2727272727273,235.21627996653578L1386.8454545454545,235.34811049872795L1393.418181818182,235.4519135723958L1399.990909090909,235.50256213965713" style="fill: none;" fill="none"></path></g><g><path stroke="rgb(0, 119, 187)" stroke-width="2px" d="M131.45454545454547,32.62894982099533L138.02727272727273,34.504196137189865L144.6,36.405829642500294L151.17272727272726,38.11583421094457L157.74545454545455,39.765674554126974L164.3181818181818,41.68376659854022L170.89090909090908,42.94333207385779L177.46363636363637,44.77473197529963L184.0363636363636,47.19975976008169L190.6090909090909,48.95919040130161L197.18181818181816,50.08288558480223L203.75454545454545,52.02105891580271L210.3272727272727,54.042638424581696L216.9,55.91231821319076L223.47272727272727,58.61030234090617L230.04545454545453,59.661447288225304L236.61818181818182,60.941640373293524L243.1909090909091,63.44144686256908L249.76363636363638,66.31217604096446L256.3363636363636,68.59697494631246L262.90909090909093,69.15771194378772L269.4818181818182,72.8374543777457L276.05454545454546,74.79480969492471L282.6272727272727,77.59737629613858L289.2,79.33968034963402L295.7727272727273,80.05691652801903L302.3454545454545,81.29839583924797L308.9181818181818,82.77910848406634L315.4909090909091,85.44330442332995L322.06363636363636,84.64121264597264L328.6363636363636,88.74081080921337L335.2090909090909,89.05330208504415L341.78181818181815,91.71436658432009L348.3545454545455,93.2435412066011L354.92727272727274,96.19688447169119L361.5,97.91909786958638L368.0727272727272,99.09350472759314L374.6454545454545,104.38196037629643L381.2181818181818,106.59698195008832L387.7909090909091,108.14350487646607L394.3636363636363,109.52823315884757L400.93636363636364,111.86746079334591L407.5090909090909,116.3417393852813L414.0818181818182,117.91176500881357L420.6545454545454,122.02683364770658L427.22727272727275,125.90625006832147L433.8,126.10631701277927L440.3727272727273,129.61883552634995L446.94545454545454,130.47972347597016L453.51818181818186,133.63277436652191L460.09090909090907,139.75005291320915L466.6636363636364,141.8313699866477L473.23636363636365,145.62969538600777L479.80909090909097,144.78372507710094L486.3818181818182,148.29350620162015L492.95454545454544,150.63970831424993L499.52727272727276,153.52725901240774L506.09999999999997,155.6731350066347L512.6727272727272,156.96079578650506L519.2454545454545,163.32434965761044L525.8181818181819,165.89131515974736L532.3909090909091,170.5200956926045L538.9636363636364,174.12059296758756L545.5363636363636,175.81911257262104L552.1090909090909,174.67349605175895L558.6818181818181,176.63260276563796L565.2545454545455,178.87673611311814L571.8272727272728,183.79732454340873L578.4,185.94832206083075L584.9727272727273,191.28682780452212L591.5454545454546,194.51371600739742L598.1181818181818,196.16995183534974L604.690909090909,196.01807841007442L611.2636363636364,198.9391582271131L617.8363636363636,202.20220575694276L624.4090909090909,203.86563876845858L630.9818181818182,208.38745871531026L637.5545454545455,208.64758900014792L644.1272727272727,208.80172578816556L650.7,210.31643041565982L657.2727272727273,210.83826461192947L663.8454545454546,210.79807850573647L670.4181818181818,213.3343579700839L676.9909090909091,213.87563341446227L683.5636363636363,216.8574045871944L690.1363636363636,216.8603499755413L696.709090909091,216.84934613854594L703.2818181818183,221.19592132419888L709.8545454545455,220.83680628687466L716.4272727272728,222.9241665896793L723,226.56695457083106L729.5727272727272,226.7268900739081L736.1454545454544,229.30839975279136L742.7181818181818,231.22987458468418L749.290909090909,229.0257254562434L755.8636363636364,232.0169587088619L762.4363636363636,233.80640022474495L769.009090909091,234.73469047855122L775.5818181818182,235.60736277765503L782.1545454545454,234.30935946146528L788.7272727272726,236.21122797155311L795.3000000000001,237.91914651288945L801.8727272727273,238.6733507245443L808.4454545454545,241.88553963480362L815.0181818181818,244.93396216856226L821.5909090909091,244.07636708156338L828.1636363636364,246.42951042733236L834.7363636363636,247.09330688286806L841.3090909090909,249.37778655510536L847.8818181818181,247.02317088735936L854.4545454545455,246.1864251845648L861.0272727272727,247.63156602105917L867.6,251.09449723554508L874.1727272727272,252.8859151315263L880.7454545454545,251.6476926512463L887.3181818181819,250.5794141833152L893.8909090909091,250.68486188317334L900.4636363636363,253.87340021410583L907.0363636363637,254.096265901798L913.6090909090909,254.4654559073889L920.1818181818181,256.4763128505972L926.7545454545455,258.83013924043337L933.3272727272728,258.38991270113564L939.9,258.2348960140263L946.4727272727273,258.33329809301586L953.0454545454545,256.5291487490743L959.6181818181819,256.7498640367752L966.1909090909091,257.93746297057663L972.7636363636364,257.0567553072941L979.3363636363636,258.4829052346809L985.9090909090909,260.6775936280407L992.4818181818182,262.1066013213824L999.0545454545455,259.899970521738L1005.6272727272727,257.8849423469364L1012.1999999999999,260.2501540268218L1018.7727272727274,262.85543218164185L1025.3454545454545,261.80412334745245L1031.918181818182,267.0959020468302L1038.490909090909,265.86221453027173L1045.0636363636365,263.7052919416204L1051.6363636363637,264.0933034746989L1058.209090909091,265.1772246676174L1064.7818181818182,266.3872345100335L1071.3545454545456,267.2103884166773L1077.9272727272728,266.9231670466838L1084.5,268.5192444007264L1091.0727272727272,267.2180167246262L1097.6454545454544,269.35599532773495L1104.2181818181818,268.29852052361014L1110.790909090909,268.82403069037343L1117.3636363636363,271.5952706295141L1123.9363636363635,273.18585485565L1130.509090909091,270.7033362170895L1137.081818181818,272.87070132975816L1143.6545454545455,274.0038253884616L1150.2272727272727,271.87375650531663L1156.8,268.6178327901758L1163.3727272727274,268.36192401669007L1169.9454545454546,268.4567687417363L1176.5181818181818,271.6096518102464L1183.0909090909092,272.12555889863836L1189.6636363636364,274.1598716412727L1196.2363636363636,274.18328131048344L1202.8090909090909,275.18032023792546L1209.381818181818,274.4383172421758L1215.9545454545455,273.6811179416838L1222.5272727272727,272.32943824514524L1229.1,272.0615839218186L1235.6727272727271,277.10017820328994L1242.2454545454545,277.99076885658815L1248.8181818181818,277.6116744379897L1255.390909090909,276.05348994140024L1261.9636363636364,276.5097039985907L1268.5363636363636,276.94508541513994L1275.109090909091,275.16257318788473L1281.6818181818182,274.8596511121613L1288.2545454545455,274.13211017465727L1294.8272727272729,275.5362738109597L1301.4,271.52975329977085L1307.9727272727273,274.0631869746554L1314.5454545454545,275.2414774246996L1321.118181818182,275.70190170097266L1327.6909090909091,278.8411590438361L1334.2636363636364,278.9586408186719L1340.8363636363636,278.9648483305433L1347.4090909090908,281.16213272269124L1353.9818181818182,281.28526488694877L1360.5545454545454,279.80399886222676L1367.1272727272726,276.94067824156286L1373.7,278.27081283492566L1380.2727272727273,280.3903801534338L1386.8454545454545,282.4211543139078L1393.418181818182,281.3692447505151L1399.990909090909,281.2527081705186" style="fill: none;" fill="none"></path></g></g></g></g><g opacity="0.2"><g><g><g><path stroke="rgb(51, 187, 238)" stroke-width="2px" d="M131.45454545454547,32.09972584247589L138.02727272727273,34.15655905008322L144.6,36.191162109375L151.17272727272726,38.1429278254509L157.74545454545455,39.97383588552481L164.3181818181818,41.812573313713074L170.89090909090908,43.645114839076996L177.46363636363637,45.4773184061051L184.0363636363636,47.31616848707199L190.6090909090909,49.21878004074097L197.18181818181816,51.12124139070511L203.75454545454545,52.951773941516876L210.3272727272727,54.80357909202576L216.9,56.66574829816818L223.47272727272727,58.50283348560333L230.04545454545453,60.31032854318619L236.61818181818182,62.085924088954926L243.1909090909091,63.87194001674658L249.76363636363638,65.69710278511053L256.3363636363636,67.4971627593041L262.90909090909093,69.26740729808813L269.4818181818182,71.03057348728186L276.05454545454546,72.72359454631811L282.6272727272727,74.38189977407461L289.2,76.00809895992285L295.7727272727273,77.58657091856008L302.3454545454545,79.18695384263998L308.9181818181818,80.77670985460287L315.4909090909091,82.38398337364202L322.06363636363636,83.98241364955908L328.6363636363636,85.59021288156515L335.2090909090909,87.19773048162466L341.78181818181815,88.81240153312689L348.3545454545455,90.41704648733145L354.92727272727274,92.0251836776734L361.5,93.64796572923666L368.0727272727272,95.2781828641892L374.6454545454545,96.9430782794953L381.2181818181818,98.64225769042969L387.7909090909091,100.39560431241995L394.3636363636363,102.18766593933105L400.93636363636364,104.01921236515051L407.5090909090909,105.90225988626486L414.0818181818182,107.83973747491837L420.6545454545454,109.88385969400412L427.22727272727275,112.01893025636673L433.8,114.09301811456686L440.3727272727273,116.21175402402878L446.94545454545454,118.28723126649862L453.51818181818186,120.4230528473854L460.09090909090907,122.61598938703543L466.6636363636364,124.79356759786612L473.23636363636365,127.07831615209582L479.80909090909097,129.43418616056448L486.3818181818182,131.84886091947558L492.95454545454544,134.1856362819672L499.52727272727276,136.50020027160647L506.09999999999997,138.8468139767647L512.6727272727272,141.1582424640656L519.2454545454545,143.4486048817635L525.8181818181819,145.68793559074405L532.3909090909091,147.87073338031772L538.9636363636364,149.97919911146167L545.5363636363636,151.94763743877414L552.1090909090909,153.86928731203082L558.6818181818181,155.85218274593356L565.2545454545455,157.91342818737036L571.8272727272728,160.04318529367453L578.4,162.11267316341406L584.9727272727273,163.99065130949026L591.5454545454546,165.86735272407535L598.1181818181818,167.6691400408745L604.690909090909,169.36991536617282L611.2636363636364,171.07870781421667L617.8363636363636,172.73361468315127L624.4090909090909,174.31411439180377L630.9818181818182,175.79328292608267L637.5545454545455,177.30008894205096L644.1272727272727,178.72923964262014L650.7,180.1691862344742L657.2727272727273,181.49216169118887L663.8454545454546,182.91847729682925L670.4181818181818,184.29197752475744L676.9909090909091,185.74570530653006L683.5636363636363,187.189406991005L690.1363636363636,188.53480035066607L696.709090909091,189.740222632885L703.2818181818183,190.81346565485003L709.8545454545455,191.7756987512112L716.4272727272728,192.76665830612185L723,193.80864956974986L729.5727272727272,194.82003682851794L736.1454545454544,195.79773151874545L742.7181818181818,196.77061969041827L749.290909090909,197.87265488505366L755.8636363636364,198.93486732244494L762.4363636363636,199.96205413341525L769.009090909091,201.07608684897426L775.5818181818182,202.09538796544078L782.1545454545454,202.9529384672642L788.7272727272726,203.77602660655978L795.3000000000001,204.54791405797008L801.8727272727273,205.27468407154086L808.4454545454545,205.84299856424335L815.0181818181818,206.4228881299496L821.5909090909091,206.91883260011676L828.1636363636364,207.35399150848392L834.7363636363636,207.86300370097163L841.3090909090909,208.605817347765L847.8818181818181,209.41104063391688L854.4545454545455,210.33529096841815L861.0272727272727,211.1240481734276L867.6,211.72252544760707L874.1727272727272,212.4740509092808L880.7454545454545,213.02466952800754L887.3181818181819,213.56166654825213L893.8909090909091,214.100691318512L900.4636363636363,214.5977059900761L907.0363636363637,214.9716944396496L913.6090909090909,215.29903525114062L920.1818181818181,215.7082464694977L926.7545454545455,216.23734840750697L933.3272727272728,216.6772011816502L939.9,217.12810331583026L946.4727272727273,217.49476933479312L953.0454545454545,217.9529657363892L959.6181818181819,218.31754767894748L966.1909090909091,218.68994021415713L972.7636363636364,218.92778778076175L979.3363636363636,219.3198476135731L985.9090909090909,219.83479285240176L992.4818181818182,220.47437900304797L999.0545454545455,221.17974498867991L1005.6272727272727,221.7085089683533L1012.1999999999999,222.12369078397754L1018.7727272727274,222.4694127738476L1025.3454545454545,222.76606509089473L1031.918181818182,223.04530316591266L1038.490909090909,223.25246223807338L1045.0636363636365,223.52519461512568L1051.6363636363637,223.8090045154095L1058.209090909091,224.10388255119327L1064.7818181818182,224.6333599984646L1071.3545454545456,224.99231868982318L1077.9272727272728,225.55139565467837L1084.5,226.07445189356807L1091.0727272727272,226.57522165775302L1097.6454545454544,226.9991622269154L1104.2181818181818,227.3949959278107L1110.790909090909,227.68477642536166L1117.3636363636363,227.84090378880504L1123.9363636363635,227.88831183314326L1130.509090909091,227.86639147996905L1137.081818181818,228.03642207384112L1143.6545454545455,228.2159248888493L1150.2272727272727,228.45705816149714L1156.8,228.83891353011134L1163.3727272727274,229.20814239978793L1169.9454545454546,229.46760052442554L1176.5181818181818,229.67260980606082L1183.0909090909092,229.85893750190738L1189.6636363636364,230.115879714489L1196.2363636363636,230.28111317753795L1202.8090909090909,230.44368052482608L1209.381818181818,230.56666919589046L1215.9545454545455,230.62109926342967L1222.5272727272727,230.6267225146294L1229.1,230.36043012142184L1235.6727272727271,229.9389960765839L1242.2454545454545,230.05616435408595L1248.8181818181818,230.3873635232449L1255.390909090909,230.9748665392399L1261.9636363636364,231.47478201985362L1268.5363636363636,231.93835759162906L1275.109090909091,232.31391379237178L1281.6818181818182,232.65208804607394L1288.2545454545455,232.88640582561496L1294.8272727272729,233.1342701017857L1301.4,233.4347056746483L1307.9727272727273,233.65833082795146L1314.5454545454545,233.7511661052704L1321.118181818182,233.79171171784404L1327.6909090909091,233.81633573770526L1334.2636363636364,233.9066269397736L1340.8363636363636,234.1632218062878L1347.4090909090908,234.37170454859736L1353.9818181818182,234.63526511192325L1360.5545454545454,234.96975937485698L1367.1272727272726,235.23627707362178L1373.7,235.39932319521907L1380.2727272727273,235.44374594092372L1386.8454545454545,235.54585629701617L1393.418181818182,235.6076181828976L1399.990909090909,235.57853499054912" style="fill: none;" fill="none"></path></g><g><path stroke="rgb(0, 119, 187)" stroke-width="2px" d="M131.45454545454547,32.62894982099533L138.02727272727273,35.629343926906586L144.6,38.231397807598114L151.17272727272726,40.12679958343506L157.74545454545455,41.91970610618591L164.3181818181818,44.33717840909958L170.89090909090908,44.744530856609344L177.46363636363637,47.444930613040924L184.0363636363636,50.77620470523834L190.6090909090909,51.571739852428436L197.18181818181816,51.75823652744293L203.75454545454545,54.91777145862579L210.3272727272727,57.068406879901886L216.9,58.71317499876022L223.47272727272727,62.65410715341568L230.04545454545453,61.23742336034775L236.61818181818182,62.86138826608658L243.1909090909091,67.19052189588552L249.76363636363638,70.61783248186117L256.3363636363636,72.02396446466452L262.90909090909093,69.99878668785101L269.4818181818182,78.35694694519049L276.05454545454546,77.73080402612692L282.6272727272727,81.80119299888617L289.2,81.95312404632574L295.7727272727273,81.13276773691183L302.3454545454545,83.16061162948614L308.9181818181818,85.00017517805105L315.4909090909091,89.4395958781243L322.06363636363636,83.43807542324072L328.6363636363636,94.89020669460302L335.2090909090909,89.52203893661505L341.78181818181815,95.70596301555634L348.3545454545455,95.53730303049093L354.92727272727274,100.62689924240118L361.5,100.50241792202002L368.0727272727272,100.85511499643331L374.6454545454545,112.31464380025864L381.2181818181818,109.91951429843908L387.7909090909091,110.46328926086431L394.3636363636363,111.60532557964325L400.93636363636364,115.37630224227911L407.5090909090909,123.05315726995471L414.0818181818182,120.26680344343185L420.6545454545454,128.19943660497668L427.22727272727275,131.72537469863897L433.8,126.40641742944723L440.3727272727273,134.88761329650882L446.94545454545454,131.7710554003716L453.51818181818186,138.3623507022858L460.09090909090907,148.92597073316577L466.6636363636364,144.95334559679037L473.23636363636365,151.32718348503118L479.80909090909097,143.51476961374289L486.3818181818182,153.55817788839343L492.95454545454544,154.15901148319247L499.52727272727276,157.85858505964282L506.09999999999997,158.89194899797442L512.6727272727272,158.8922869563103L519.2454545454545,172.86968046426776L525.8181818181819,169.74176341295245L532.3909090909091,177.46326649188998L538.9636363636364,179.52133888006213L545.5363636363636,178.36689198017126L552.1090909090909,172.95507127046588L558.6818181818181,179.57126283645636L565.2545454545455,182.24293613433844L571.8272727272728,191.1782071888447L578.4,189.17481833696368L584.9727272727273,199.29458642005923L591.5454545454546,199.3540483117104L598.1181818181818,198.65430557727817L604.690909090909,195.7902682721615L611.2636363636364,203.32077795267108L617.8363636363636,207.09677705168727L624.4090909090909,206.3607882857323L630.9818181818182,215.17018863558772L637.5545454545455,209.03778442740443L644.1272727272727,209.03293097019198L650.7,212.5884873569012L657.2727272727273,211.62101590633395L663.8454545454546,210.73779934644702L670.4181818181818,217.13877716660502L676.9909090909091,214.68754658102992L683.5636363636363,221.33006134629252L690.1363636363636,216.86476805806163L696.709090909091,216.83284038305285L703.2818181818183,227.71578410267833L709.8545454545455,220.2981337308884L716.4272727272728,226.0552070438862L723,232.0311365425587L729.5727272727272,226.96679332852366L736.1454545454544,233.18066427111629L742.7181818181818,234.11208683252337L749.290909090909,225.71950176358226L755.8636363636364,236.50380858778956L762.4363636363636,236.49056249856952L769.009090909091,236.1271258592606L775.5818181818182,236.91637122631076L782.1545454545454,232.36235448718074L788.7272727272726,239.06403073668483L795.3000000000001,240.48102432489398L801.8727272727273,239.80465704202655L808.4454545454545,246.70382300019267L815.0181818181818,249.50659596920016L821.5909090909091,242.7899744510651L828.1636363636364,249.95922544598582L834.7363636363636,248.08900156617167L841.3090909090909,252.8045060634613L847.8818181818181,243.4912473857403L854.4545454545455,244.93130663037303L861.0272727272727,249.79927727580073L867.6,256.28889405727386L874.1727272727272,255.57304197549823L880.7454545454545,249.79035893082622L887.3181818181819,248.97699648141864L893.8909090909091,250.84303343296054L900.4636363636363,258.65620771050453L907.0363636363637,254.43056443333626L913.6090909090909,255.01924091577533L920.1818181818181,259.49259826540947L926.7545454545455,262.3608788251877L933.3272727272728,257.729572892189L939.9,258.0023709833622L946.4727272727273,258.48090121150017L953.0454545454545,253.82292473316195L959.6181818181819,257.08093696832657L966.1909090909091,259.71886137127876L972.7636363636364,255.73569381237033L979.3363636363636,260.62213012576103L985.9090909090909,263.9696262180805L992.4818181818182,264.2501128613949L999.0545454545455,256.59002432227135L1005.6272727272727,254.862400084734L1012.1999999999999,263.79797154664993L1018.7727272727274,266.76334941387177L1025.3454545454545,260.2271600961685L1031.918181818182,275.0335700958967L1038.490909090909,264.01168325543404L1045.0636363636365,260.46990805864334L1051.6363636363637,264.6753207743168L1058.209090909091,266.803106456995L1064.7818181818182,268.2022492736578L1071.3545454545456,268.4451192766428L1077.9272727272728,266.4923349916935L1084.5,270.91336043179035L1091.0727272727272,265.2661752104759L1097.6454545454544,272.56296323239803L1104.2181818181818,266.71230831742287L1110.790909090909,269.6122959405184L1117.3636363636363,275.7521305382252L1123.9363636363635,275.5717311948538L1130.509090909091,266.97955825924873L1137.081818181818,276.1217489987612L1143.6545454545455,275.7035114765167L1150.2272727272727,268.6786531805992L1156.8,263.73394721746445L1163.3727272727274,267.9780608564615L1169.9454545454546,268.59903582930565L1176.5181818181818,276.33897641301155L1183.0909090909092,272.89941953122616L1189.6636363636364,277.2113407552242L1196.2363636363636,274.2183958142996L1202.8090909090909,276.6758786290884L1209.381818181818,273.32531274855137L1215.9545454545455,272.5453189909458L1222.5272727272727,270.3019187003374L1229.1,271.6598024368286L1235.6727272727271,284.65806962549686L1242.2454545454545,279.32665483653545L1248.8181818181818,277.043032810092L1255.390909090909,273.71621319651604L1261.9636363636364,277.19402508437634L1268.5363636363636,277.5981575399637L1275.109090909091,272.48880484700203L1281.6818181818182,274.40526799857616L1288.2545454545455,273.04079876840115L1294.8272727272729,277.6425192654133L1301.4,265.5199725329876L1307.9727272727273,277.86333748698235L1314.5454545454545,277.0089130997658L1321.118181818182,276.3925381153822L1327.6909090909091,283.5500450581312L1334.2636363636364,279.13486348092556L1340.8363636363636,278.9741595983505L1347.4090909090908,284.4580593109131L1353.9818181818182,281.4699631333351L1360.5545454545454,277.5820998251438L1367.1272727272726,272.6456973105669L1373.7,280.26601472496986L1380.2727272727273,283.569731131196L1386.8454545454545,285.46731555461884L1393.418181818182,279.791380405426L1399.990909090909,281.07790330052376" style="fill: none;" fill="none"></path></g></g></g></g></g><g><g><span fill="rgb(0, 0, 0)" stroke="none" stroke-width="1px">Alt + Scroll to Zoom</span></g></g></g><g transform="translate(50, 378)" clip-path="url(#clip_1)"><clipPath id="clip_1"><rect width="1446" height="22"></rect></clipPath><g><g><line x1="0" y1="0" x2="0" y2="5" style="visibility: inherit;" fill="rgb(0, 0, 0)" stroke="rgb(204, 204, 204)" stroke-width="1px"></line><line x1="131.45454545454547" y1="0" x2="131.45454545454547" y2="5" style="visibility: inherit;" fill="rgb(0, 0, 0)" stroke="rgb(204, 204, 204)" stroke-width="1px"></line><line x1="262.90909090909093" y1="0" x2="262.90909090909093" y2="5" style="visibility: inherit;" fill="rgb(0, 0, 0)" stroke="rgb(204, 204, 204)" stroke-width="1px"></line><line x1="394.3636363636363" y1="0" x2="394.3636363636363" y2="5" style="visibility: inherit;" fill="rgb(0, 0, 0)" stroke="rgb(204, 204, 204)" stroke-width="1px"></line><line x1="525.8181818181819" y1="0" x2="525.8181818181819" y2="5" style="visibility: inherit;" fill="rgb(0, 0, 0)" stroke="rgb(204, 204, 204)" stroke-width="1px"></line><line x1="657.2727272727273" y1="0" x2="657.2727272727273" y2="5" style="visibility: inherit;" fill="rgb(0, 0, 0)" stroke="rgb(204, 204, 204)" stroke-width="1px"></line><line x1="788.7272727272726" y1="0" x2="788.7272727272726" y2="5" style="visibility: inherit;" fill="rgb(0, 0, 0)" stroke="rgb(204, 204, 204)" stroke-width="1px"></line><line x1="920.1818181818181" y1="0" x2="920.1818181818181" y2="5" style="visibility: inherit;" fill="rgb(0, 0, 0)" stroke="rgb(204, 204, 204)" stroke-width="1px"></line><line x1="1051.6363636363637" y1="0" x2="1051.6363636363637" y2="5" style="visibility: inherit;" fill="rgb(0, 0, 0)" stroke="rgb(204, 204, 204)" stroke-width="1px"></line><line x1="1183.0909090909092" y1="0" x2="1183.0909090909092" y2="5" style="visibility: inherit;" fill="rgb(0, 0, 0)" stroke="rgb(204, 204, 204)" stroke-width="1px"></line><line x1="1314.5454545454545" y1="0" x2="1314.5454545454545" y2="5" style="visibility: inherit;" fill="rgb(0, 0, 0)" stroke="rgb(204, 204, 204)" stroke-width="1px"></line><line x1="1446" y1="0" x2="1446" y2="5" style="visibility: inherit;" fill="rgb(0, 0, 0)" stroke="rgb(204, 204, 204)" stroke-width="1px"></line></g><g transform="translate(0, 8)"><text x="0" y="0" dx="0em" dy="0.95em" style="text-anchor: middle; visibility: hidden; font-family: &quot;Helvetica Neue&quot;, sans-serif; font-size: 12px; font-weight: 200;" fill="rgb(50, 49, 63)" stroke="none" stroke-width="1px">-20</text><text x="131.45454545454547" y="0" dx="0em" dy="0.95em" style="text-anchor: middle; visibility: inherit; font-family: &quot;Helvetica Neue&quot;, sans-serif; font-size: 12px; font-weight: 200;" fill="rgb(50, 49, 63)" stroke="none" stroke-width="1px">0</text><text x="262.90909090909093" y="0" dx="0em" dy="0.95em" style="text-anchor: middle; visibility: inherit; font-family: &quot;Helvetica Neue&quot;, sans-serif; font-size: 12px; font-weight: 200;" fill="rgb(50, 49, 63)" stroke="none" stroke-width="1px">20</text><text x="394.3636363636363" y="0" dx="0em" dy="0.95em" style="text-anchor: middle; visibility: inherit; font-family: &quot;Helvetica Neue&quot;, sans-serif; font-size: 12px; font-weight: 200;" fill="rgb(50, 49, 63)" stroke="none" stroke-width="1px">40</text><text x="525.8181818181819" y="0" dx="0em" dy="0.95em" style="text-anchor: middle; visibility: inherit; font-family: &quot;Helvetica Neue&quot;, sans-serif; font-size: 12px; font-weight: 200;" fill="rgb(50, 49, 63)" stroke="none" stroke-width="1px">60</text><text x="657.2727272727273" y="0" dx="0em" dy="0.95em" style="text-anchor: middle; visibility: inherit; font-family: &quot;Helvetica Neue&quot;, sans-serif; font-size: 12px; font-weight: 200;" fill="rgb(50, 49, 63)" stroke="none" stroke-width="1px">80</text><text x="788.7272727272726" y="0" dx="0em" dy="0.95em" style="text-anchor: middle; visibility: inherit; font-family: &quot;Helvetica Neue&quot;, sans-serif; font-size: 12px; font-weight: 200;" fill="rgb(50, 49, 63)" stroke="none" stroke-width="1px">100</text><text x="920.1818181818181" y="0" dx="0em" dy="0.95em" style="text-anchor: middle; visibility: inherit; font-family: &quot;Helvetica Neue&quot;, sans-serif; font-size: 12px; font-weight: 200;" fill="rgb(50, 49, 63)" stroke="none" stroke-width="1px">120</text><text x="1051.6363636363637" y="0" dx="0em" dy="0.95em" style="text-anchor: middle; visibility: inherit; font-family: &quot;Helvetica Neue&quot;, sans-serif; font-size: 12px; font-weight: 200;" fill="rgb(50, 49, 63)" stroke="none" stroke-width="1px">140</text><text x="1183.0909090909092" y="0" dx="0em" dy="0.95em" style="text-anchor: middle; visibility: inherit; font-family: &quot;Helvetica Neue&quot;, sans-serif; font-size: 12px; font-weight: 200;" fill="rgb(50, 49, 63)" stroke="none" stroke-width="1px">160</text><text x="1314.5454545454545" y="0" dx="0em" dy="0.95em" style="text-anchor: middle; visibility: inherit; font-family: &quot;Helvetica Neue&quot;, sans-serif; font-size: 12px; font-weight: 200;" fill="rgb(50, 49, 63)" stroke="none" stroke-width="1px">180</text><text x="1446" y="0" dx="0em" dy="0.95em" style="text-anchor: middle; visibility: hidden; font-family: &quot;Helvetica Neue&quot;, sans-serif; font-size: 12px; font-weight: 200;" fill="rgb(50, 49, 63)" stroke="none" stroke-width="1px">200</text></g><line x1="0" y1="0" x2="1446" y2="0" fill="rgb(0, 0, 0)" stroke="rgb(204, 204, 204)" stroke-width="1px"></line></g></g></g></g></svg>