<svg viewBox="0 0 1496 400" xmlns="http://www.w3.org/2000/svg"><g><g><g><g><g><line x1="50" y1="378" x2="45" y2="378" style="visibility: inherit;" fill="rgb(0, 0, 0)" stroke="rgb(204, 204, 204)" stroke-width="1px"></line><line x1="50" y1="346.5" x2="45" y2="346.5" style="visibility: inherit;" fill="rgb(0, 0, 0)" stroke="rgb(204, 204, 204)" stroke-width="1px"></line><line x1="50" y1="315" x2="45" y2="315" style="visibility: inherit;" fill="rgb(0, 0, 0)" stroke="rgb(204, 204, 204)" stroke-width="1px"></line><line x1="50" y1="283.5" x2="45" y2="283.5" style="visibility: inherit;" fill="rgb(0, 0, 0)" stroke="rgb(204, 204, 204)" stroke-width="1px"></line><line x1="50" y1="252" x2="45" y2="252" style="visibility: inherit;" fill="rgb(0, 0, 0)" stroke="rgb(204, 204, 204)" stroke-width="1px"></line><line x1="50" y1="220.5" x2="45" y2="220.5" style="visibility: inherit;" fill="rgb(0, 0, 0)" stroke="rgb(204, 204, 204)" stroke-width="1px"></line><line x1="50" y1="189.00000000000003" x2="45" y2="189.00000000000003" style="visibility: inherit;" fill="rgb(0, 0, 0)" stroke="rgb(204, 204, 204)" stroke-width="1px"></line><line x1="50" y1="157.50000000000003" x2="45" y2="157.50000000000003" style="visibility: inherit;" fill="rgb(0, 0, 0)" stroke="rgb(204, 204, 204)" stroke-width="1px"></line><line x1="50" y1="126.00000000000006" x2="45" y2="126.00000000000006" style="visibility: inherit;" fill="rgb(0, 0, 0)" stroke="rgb(204, 204, 204)" stroke-width="1px"></line><line x1="50" y1="94.50000000000006" x2="45" y2="94.50000000000006" style="visibility: inherit;" fill="rgb(0, 0, 0)" stroke="rgb(204, 204, 204)" stroke-width="1px"></line><line x1="50" y1="63" x2="45" y2="63" style="visibility: inherit;" fill="rgb(0, 0, 0)" stroke="rgb(204, 204, 204)" stroke-width="1px"></line><line x1="50" y1="31.5" x2="45" y2="31.5" style="visibility: inherit;" fill="rgb(0, 0, 0)" stroke="rgb(204, 204, 204)" stroke-width="1px"></line><line x1="50" y1="0" x2="45" y2="0" style="visibility: inherit;" fill="rgb(0, 0, 0)" stroke="rgb(204, 204, 204)" stroke-width="1px"></line></g><g transform="translate(40, 0)"><text x="0" y="378" dx="0em" dy="0.3em" style="text-anchor: end; visibility: hidden; font-family: &quot;Helvetica Neue&quot;, sans-serif; font-size: 12px; font-weight: 200;" fill="rgb(50, 49, 63)" stroke="none" stroke-width="1px">-0.2</text><text x="0" y="346.5" dx="0em" dy="0.3em" style="text-anchor: end; visibility: inherit; font-family: &quot;Helvetica Neue&quot;, sans-serif; font-size: 12px; font-weight: 200;" fill="rgb(50, 49, 63)" stroke="none" stroke-width="1px">0</text><text x="0" y="315" dx="0em" dy="0.3em" style="text-anchor: end; visibility: inherit; font-family: &quot;Helvetica Neue&quot;, sans-serif; font-size: 12px; font-weight: 200;" fill="rgb(50, 49, 63)" stroke="none" stroke-width="1px">0.2</text><text x="0" y="283.5" dx="0em" dy="0.3em" style="text-anchor: end; visibility: inherit; font-family: &quot;Helvetica Neue&quot;, sans-serif; font-size: 12px; font-weight: 200;" fill="rgb(50, 49, 63)" stroke="none" stroke-width="1px">0.4</text><text x="0" y="252" dx="0em" dy="0.3em" style="text-anchor: end; visibility: inherit; font-family: &quot;Helvetica Neue&quot;, sans-serif; font-size: 12px; font-weight: 200;" fill="rgb(50, 49, 63)" stroke="none" stroke-width="1px">0.6</text><text x="0" y="220.5" dx="0em" dy="0.3em" style="text-anchor: end; visibility: inherit; font-family: &quot;Helvetica Neue&quot;, sans-serif; font-size: 12px; font-weight: 200;" fill="rgb(50, 49, 63)" stroke="none" stroke-width="1px">0.8</text><text x="0" y="189.00000000000003" dx="0em" dy="0.3em" style="text-anchor: end; visibility: inherit; font-family: &quot;Helvetica Neue&quot;, sans-serif; font-size: 12px; font-weight: 200;" fill="rgb(50, 49, 63)" stroke="none" stroke-width="1px">1</text><text x="0" y="157.50000000000003" dx="0em" dy="0.3em" style="text-anchor: end; visibility: inherit; font-family: &quot;Helvetica Neue&quot;, sans-serif; font-size: 12px; font-weight: 200;" fill="rgb(50, 49, 63)" stroke="none" stroke-width="1px">1.2</text><text x="0" y="126.00000000000006" dx="0em" dy="0.3em" style="text-anchor: end; visibility: inherit; font-family: &quot;Helvetica Neue&quot;, sans-serif; font-size: 12px; font-weight: 200;" fill="rgb(50, 49, 63)" stroke="none" stroke-width="1px">1.4</text><text x="0" y="94.50000000000006" dx="0em" dy="0.3em" style="text-anchor: end; visibility: inherit; font-family: &quot;Helvetica Neue&quot;, sans-serif; font-size: 12px; font-weight: 200;" fill="rgb(50, 49, 63)" stroke="none" stroke-width="1px">1.6</text><text x="0" y="63" dx="0em" dy="0.3em" style="text-anchor: end; visibility: inherit; font-family: &quot;Helvetica Neue&quot;, sans-serif; font-size: 12px; font-weight: 200;" fill="rgb(50, 49, 63)" stroke="none" stroke-width="1px">1.8</text><text x="0" y="31.5" dx="0em" dy="0.3em" style="text-anchor: end; visibility: inherit; font-family: &quot;Helvetica Neue&quot;, sans-serif; font-size: 12px; font-weight: 200;" fill="rgb(50, 49, 63)" stroke="none" stroke-width="1px">2</text><text x="0" y="0" dx="0em" dy="0.3em" style="text-anchor: end; visibility: hidden; font-family: &quot;Helvetica Neue&quot;, sans-serif; font-size: 12px; font-weight: 200;" fill="rgb(50, 49, 63)" stroke="none" stroke-width="1px">2.2</text></g><line x1="50" y1="0" x2="50" y2="378" fill="rgb(0, 0, 0)" stroke="rgb(204, 204, 204)" stroke-width="1px"></line></g></g><g transform="translate(50, 0)" clip-path="url(#clip_0)"><clipPath id="clip_0"><rect width="1446" height="378"></rect></clipPath><g><g><g><line x1="0" y1="0" x2="0" y2="378" fill="rgb(0, 0, 0)" stroke="rgb(60, 60, 60)" stroke-width="1px" opacity="0.25"></line><line x1="131.45454545454547" y1="0" x2="131.45454545454547" y2="378" fill="rgb(0, 0, 0)" stroke="rgb(60, 60, 60)" stroke-width="1px" opacity="0.25"></line><line x1="262.90909090909093" y1="0" x2="262.90909090909093" y2="378" fill="rgb(0, 0, 0)" stroke="rgb(60, 60, 60)" stroke-width="1px" opacity="0.25"></line><line x1="394.3636363636363" y1="0" x2="394.3636363636363" y2="378" fill="rgb(0, 0, 0)" stroke="rgb(60, 60, 60)" stroke-width="1px" opacity="0.25"></line><line x1="525.8181818181819" y1="0" x2="525.8181818181819" y2="378" fill="rgb(0, 0, 0)" stroke="rgb(60, 60, 60)" stroke-width="1px" opacity="0.25"></line><line x1="657.2727272727273" y1="0" x2="657.2727272727273" y2="378" fill="rgb(0, 0, 0)" stroke="rgb(60, 60, 60)" stroke-width="1px" opacity="0.25"></line><line x1="788.7272727272726" y1="0" x2="788.7272727272726" y2="378" fill="rgb(0, 0, 0)" stroke="rgb(60, 60, 60)" stroke-width="1px" opacity="0.25"></line><line x1="920.1818181818181" y1="0" x2="920.1818181818181" y2="378" fill="rgb(0, 0, 0)" stroke="rgb(60, 60, 60)" stroke-width="1px" opacity="0.25"></line><line x1="1051.6363636363637" y1="0" x2="1051.6363636363637" y2="378" fill="rgb(0, 0, 0)" stroke="rgb(60, 60, 60)" stroke-width="1px" opacity="0.25"></line><line x1="1183.0909090909092" y1="0" x2="1183.0909090909092" y2="378" fill="rgb(0, 0, 0)" stroke="rgb(60, 60, 60)" stroke-width="1px" opacity="0.25"></line><line x1="1314.5454545454545" y1="0" x2="1314.5454545454545" y2="378" fill="rgb(0, 0, 0)" stroke="rgb(60, 60, 60)" stroke-width="1px" opacity="0.25"></line><line x1="1446" y1="0" x2="1446" y2="378" fill="rgb(0, 0, 0)" stroke="rgb(60, 60, 60)" stroke-width="1px" opacity="0.25"></line></g><g><line x1="0" y1="378" x2="1446" y2="378" fill="rgb(0, 0, 0)" stroke="rgb(60, 60, 60)" stroke-width="1px" opacity="0.25"></line><line x1="0" y1="346.5" x2="1446" y2="346.5" fill="rgb(0, 0, 0)" stroke="rgb(60, 60, 60)" stroke-width="1px" opacity="0.25"></line><line x1="0" y1="315" x2="1446" y2="315" fill="rgb(0, 0, 0)" stroke="rgb(60, 60, 60)" stroke-width="1px" opacity="0.25"></line><line x1="0" y1="283.5" x2="1446" y2="283.5" fill="rgb(0, 0, 0)" stroke="rgb(60, 60, 60)" stroke-width="1px" opacity="0.25"></line><line x1="0" y1="252" x2="1446" y2="252" fill="rgb(0, 0, 0)" stroke="rgb(60, 60, 60)" stroke-width="1px" opacity="0.25"></line><line x1="0" y1="220.5" x2="1446" y2="220.5" fill="rgb(0, 0, 0)" stroke="rgb(60, 60, 60)" stroke-width="1px" opacity="0.25"></line><line x1="0" y1="189.00000000000003" x2="1446" y2="189.00000000000003" fill="rgb(0, 0, 0)" stroke="rgb(60, 60, 60)" stroke-width="1px" opacity="0.25"></line><line x1="0" y1="157.50000000000003" x2="1446" y2="157.50000000000003" fill="rgb(0, 0, 0)" stroke="rgb(60, 60, 60)" stroke-width="1px" opacity="0.25"></line><line x1="0" y1="126.00000000000006" x2="1446" y2="126.00000000000006" fill="rgb(0, 0, 0)" stroke="rgb(60, 60, 60)" stroke-width="1px" opacity="0.25"></line><line x1="0" y1="94.50000000000006" x2="1446" y2="94.50000000000006" fill="rgb(0, 0, 0)" stroke="rgb(60, 60, 60)" stroke-width="1px" opacity="0.25"></line><line x1="0" y1="63" x2="1446" y2="63" fill="rgb(0, 0, 0)" stroke="rgb(60, 60, 60)" stroke-width="1px" opacity="0.25"></line><line x1="0" y1="31.5" x2="1446" y2="31.5" fill="rgb(0, 0, 0)" stroke="rgb(60, 60, 60)" stroke-width="1px" opacity="0.25"></line><line x1="0" y1="0" x2="1446" y2="0" fill="rgb(0, 0, 0)" stroke="rgb(60, 60, 60)" stroke-width="1px" opacity="0.25"></line></g></g></g><g><g><line x1="0" y1="346.5" x2="1446" y2="346.5" fill="rgb(0, 0, 0)" stroke="rgb(153, 153, 153)" stroke-width="1.5px"></line></g></g><g><g><line x1="131.45454545454547" y1="0" x2="131.45454545454547" y2="378" fill="rgb(0, 0, 0)" stroke="rgb(153, 153, 153)" stroke-width="1.5px"></line></g></g><g><g><g><g><g><path stroke="rgb(51, 187, 238)" stroke-width="2px" d="M131.45454545454547,33.43907350301748L138.02727272727273,34.68416833877569L144.6,36.106122289385155L151.17272727272726,37.713679046315406L157.74545454545455,39.42885555400369L164.3181818181818,41.18888347898434L170.89090909090908,42.982634184231415L177.46363636363637,44.84271452608334L184.0363636363636,46.78980805550725L190.6090909090909,48.81573764469357L197.18181818181816,50.9003206027603L203.75454545454545,53.01924140793386L210.3272727272727,55.14865630491704L216.9,57.267489311023326L223.47272727272727,59.357720550238525L230.04545454545453,61.405055348563394L236.61818181818182,63.407179684761275L243.1909090909091,65.3557719890274L249.76363636363638,67.2521013253774L256.3363636363636,69.0896195751713L262.90909090909093,70.88010318002642L269.4818181818182,72.63165313466965L276.05454545454546,74.36065331279616L282.6272727272727,76.05463324689879L289.2,77.71358183617065L295.7727272727273,79.35119006788466L302.3454545454545,80.97739177343857L308.9181818181818,82.59884536536094L315.4909090909091,84.2199812918002L322.06363636363636,85.84375811884945L328.6363636363636,87.47137263709982L335.2090909090909,89.10340769938404L341.78181818181815,90.73980744458271L348.3545454545455,92.38065099516126L354.92727272727274,94.0265340599152L361.5,95.67965405457022L368.0727272727272,97.34443113208607L374.6454545454545,99.02818871766164L381.2181818181818,100.73956411999183L387.7909090909091,102.48696159311294L394.3636363636363,104.27989975946798L400.93636363636364,106.12568946174781L407.5090909090909,108.02846185913194L414.0818181818182,109.98691051368377L420.6545454545454,111.9957079005211L427.22727272727275,114.04566437686174L433.8,116.12709049402332L440.3727272727273,118.23054516331308L446.94545454545454,120.34543704998936L453.51818181818186,122.46276025781222L460.09090909090907,124.57482815272158L466.6636363636364,126.67731414131862L473.23636363636365,128.76756218608114L479.80909090909097,130.84451188764731L486.3818181818182,132.91122201753845L492.95454545454544,134.97378611369922L499.52727272727276,137.0351318109279L506.09999999999997,139.09642989565435L512.6727272727272,141.1555665202709L519.2454545454545,143.2081791798934L525.8181818181819,145.24796287063754L532.3909090909091,147.2669889679194L538.9636363636364,149.2619722932959L545.5363636363636,151.23147496285353L552.1090909090909,153.17479947031921L558.6818181818181,155.09136959803934L565.2545454545455,156.98430932100322L571.8272727272728,158.85903032145328L578.4,160.72351102543732L584.9727272727273,162.57543385334526L591.5454545454546,164.4091199416382L598.1181818181818,166.21715153327364L604.690909090909,167.99215651196704L611.2636363636364,169.72945626164957L617.8363636363636,171.42953307381566L624.4090909090909,173.09459893078383L630.9818181818182,174.72772338492146L637.5545454545455,176.331439104691L644.1272727272727,177.90812936247278L650.7,179.46046330226L657.2727272727273,180.98896845395888L663.8454545454546,182.49062681326583L670.4181818181818,183.95975232201405L676.9909090909091,185.39296338604444L683.5636363636363,186.79064932850932L690.1363636363636,188.1536107622858L696.709090909091,189.482617197232L703.2818181818183,190.77759711611068L709.8545454545455,192.03901079099057L716.4272727272728,193.26600785732674L723,194.46096200752504L729.5727272727272,195.62272146349102L736.1454545454544,196.7512485444841L742.7181818181818,197.8473204767881L749.290909090909,198.9129093883144L755.8636363636364,199.9481921909873L762.4363636363636,200.95304972640423L769.009090909091,201.92668576664778L775.5818181818182,202.8732751347247L782.1545454545454,203.79828173742436L788.7272727272726,204.70333543315976L795.3000000000001,205.58696957168252L801.8727272727273,206.4463627799587L808.4454545454545,207.28650629903296L815.0181818181818,208.11577967635048L821.5909090909091,208.93991284269842L828.1636363636364,209.76097314774248L834.7363636363636,210.5714028192714L841.3090909090909,211.3627130814287L847.8818181818181,212.12770781683287L854.4545454545455,212.86423979858972L861.0272727272727,213.57302215492973L867.6,214.26469285962736L874.1727272727272,214.94943485067935L880.7454545454545,215.62109375838432L887.3181818181819,216.27251101043223L893.8909090909091,216.89809220139026L900.4636363636363,217.5069137996664L907.0363636363637,218.10183067239706L913.6090909090909,218.68216750095715L920.1818181818181,219.25108643216151L926.7545454545455,219.7929221859113L933.3272727272728,220.3099689525685L939.9,220.82020075573456L946.4727272727273,221.33660249384602L953.0454545454545,221.8349754719279L959.6181818181819,222.29790529658447L966.1909090909091,222.7395729842785L972.7636363636364,223.18571926492473L979.3363636363636,223.63079009853615L985.9090909090909,224.05043580772173L992.4818181818182,224.4547475853067L999.0545454545455,224.85670453777917L1005.6272727272727,225.25319309515362L1012.1999999999999,225.63316015888816L1018.7727272727274,225.9896321564291L1025.3454545454545,226.34536397870625L1031.918181818182,226.70247291574626L1038.490909090909,227.04109568029494L1045.0636363636365,227.37146183627752L1051.6363636363637,227.70489114986606L1058.209090909091,228.02554353753777L1064.7818181818182,228.33306235480342L1071.3545454545456,228.64142410998366L1077.9272727272728,228.93985998061194L1084.5,229.22804073945815L1091.0727272727272,229.51816816601837L1097.6454545454544,229.80109724684766L1104.2181818181818,230.0772927956832L1110.790909090909,230.3550020073088L1117.3636363636363,230.62143038596108L1123.9363636363635,230.88555131486294L1130.509090909091,231.14311701137567L1137.081818181818,231.3933624749109L1143.6545454545455,231.64282068757564L1150.2272727272727,231.8835603663227L1156.8,232.12481797152168L1163.3727272727274,232.3555528903807L1169.9454545454546,232.5868234863761L1176.5181818181818,232.8046380538275L1183.0909090909092,233.0350507890302L1189.6636363636364,233.2073345896672L1196.2363636363636,233.4730262587709L1202.8090909090909,233.63052240790384L1209.381818181818,233.81403456796085L1215.9545454545455,234.0582174460225L1222.5272727272727,234.2140923738559L1229.1,234.37177308798312L1235.6727272727271,234.58666464329053L1242.2454545454545,234.74576423549826L1248.8181818181818,234.88912019720183L1255.390909090909,235.08400517458026L1261.9636363636364,235.23648937794152L1268.5363636363636,235.37704769523492L1275.109090909091,235.56571793408128L1281.6818181818182,235.70781551510652L1288.2545454545455,235.81969391531086L1294.8272727272729,235.9932890965124L1301.4,236.1433784981716L1307.9727272727273,236.23202397943425L1314.5454545454545,236.37213790727193L1321.118181818182,236.533403458074L1327.6909090909091,236.63754905574038L1334.2636363636364,236.7517740804703L1340.8363636363636,236.89161454908557L1347.4090909090908,236.99393004937477L1353.9818181818182,237.12078938939277L1360.5545454545454,237.23105380569757L1367.1272727272726,237.3092625477008L1373.7,237.4376657925899L1380.2727272727273,237.56036591070026L1386.8454545454545,237.62261556111056L1393.418181818182,237.727834895386L1399.990909090909,237.8503007144533" style="fill: none;" fill="none"></path></g><g><path stroke="rgb(0, 119, 187)" stroke-width="2px" d="M131.45454545454547,35.679192781448364L138.02727272727273,37.24910312891012L144.6,38.73341843911584L151.17272727272726,40.36275828322954L157.74545454545455,42.17527617248379L164.3181818181818,44.105312433289896L170.89090909090908,46.08328606027828L177.46363636363637,48.080944411919745L184.0363636363636,50.11412832062399L190.6090909090909,52.19971430398937L197.18181818181816,54.329258698926196L203.75454545454545,56.48575452350474L210.3272727272727,58.6495737073015L216.9,60.80197821849566L223.47272727272727,62.92880558573404L230.04545454545453,65.02249452278517L236.61818181818182,67.08131203390707L243.1909090909091,69.11281788367171L249.76363636363638,71.1210855916849L256.3363636363636,73.1062596073524L262.90909090909093,75.06335073235454L269.4818181818182,77.00381466474573L276.05454545454546,78.945049028158L282.6272727272727,80.90798112466996L289.2,82.8791051441666L295.7727272727273,84.85556635250532L302.3454545454545,86.85451693675554L308.9181818181818,88.8913096975574L315.4909090909091,90.97779217298302L322.06363636363636,93.12192141092618L328.6363636363636,95.32886209601241L335.2090909090909,97.60041373279569L341.78181818181815,99.93630416405642L348.3545454545455,102.33362135133768L354.92727272727274,104.78741872262168L361.5,107.29190449884629L368.0727272727272,109.8409675336942L374.6454545454545,112.42967942585551L381.2181818181818,115.05446729785865L387.7909090909091,117.71424635841356L394.3636363636363,120.4084858951357L400.93636363636364,123.13694258209563L407.5090909090909,125.89965066796736L414.0818181818182,128.69515870551743L420.6545454545454,131.51887828463148L427.22727272727275,134.3654653452851L433.8,137.22965566067793L440.3727272727273,140.10797526693187L446.94545454545454,142.99733342088683L453.51818181818186,145.89462147570464L460.09090909090907,148.79615677844993L466.6636363636364,151.6977545586403L473.23636363636365,154.59576240582822L479.80909090909097,157.48516504409358L486.3818181818182,160.3590329911873L492.95454545454544,163.21109068552153L499.52727272727276,166.03577785587075L506.09999999999997,168.83043425617117L512.6727272727272,171.5937491258236L519.2454545454545,174.32471070291132L525.8181818181819,177.02229887009588L532.3909090909091,179.68625453568066L538.9636363636364,182.3157688585315L545.5363636363636,184.91107751175136L552.1090909090909,187.47299406078085L558.6818181818181,189.9998136707939L565.2545454545455,192.48962723903642L571.8272727272728,194.94193142469396L578.4,197.35536153206633L584.9727272727273,199.7304918830955L591.5454545454546,202.0682678857663L598.1181818181818,204.36790495152584L604.690909090909,206.6269195975978L611.2636363636364,208.84524491441962L617.8363636363636,211.02364059098196L624.4090909090909,213.16231084947364L630.9818181818182,215.26348483016838L637.5545454545455,217.32627700239865L644.1272727272727,219.34998331350357L650.7,221.3347633712427L657.2727272727273,223.28073922592023L663.8454545454546,225.18697023271096L670.4181818181818,227.05332759546383L676.9909090909091,228.87937730268925L683.5636363636363,230.6656587822216L690.1363636363636,232.4121614875184L696.709090909091,234.11825199018637L703.2818181818183,235.78382811004354L709.8545454545455,237.4094781700041L716.4272727272728,238.99470275779166L723,240.54030622327087L729.5727272727272,242.04612530042982L736.1454545454544,243.51414610606585L742.7181818181818,244.9448205570111L749.290909090909,246.33938110707578L755.8636363636364,247.6987812688254L762.4363636363636,249.02638318361656L769.009090909091,250.32541327608715L775.5818181818182,251.59757834037003L782.1545454545454,252.84353445386802L788.7272727272726,254.0651059533114L795.3000000000001,255.26300442129104L801.8727272727273,256.4395043129309L808.4454545454545,257.5951742216697L815.0181818181818,258.73055056838695L821.5909090909091,259.8458200222761L828.1636363636364,260.9409518913335L834.7363636363636,262.0152180478517L841.3090909090909,263.0676671675172L847.8818181818181,264.0981039650039L854.4545454545455,265.10559641401744L861.0272727272727,266.08930366683467L867.6,267.04891835718433L874.1727272727272,267.9844043914621L880.7454545454545,268.89647798920544L887.3181818181819,269.7863255332999L893.8909090909091,270.6555563206132L900.4636363636363,271.50525984732246L907.0363636363637,272.33524491529425L913.6090909090909,273.14591313088397L920.1818181818181,273.93684080651076L926.7545454545455,274.7074639344852L933.3272727272728,275.45843920973783L939.9,276.1908140353432L946.4727272727273,276.90524877143326L953.0454545454545,277.6021133484389L959.6181818181819,278.28200898897325L966.1909090909091,278.9455442627172L972.7636363636364,279.5939066767633L979.3363636363636,280.22826685666683L985.9090909090909,280.84926146364L992.4818181818182,281.4572574740397L999.0545454545455,282.0523117271511L1005.6272727272727,282.6345916323333L1012.1999999999999,283.20446800187045L1018.7727272727274,283.76186667081606L1025.3454545454545,284.30775701520975L1031.918181818182,284.843160006512L1038.490909090909,285.3688985127859L1045.0636363636365,285.88558641783317L1051.6363636363637,286.3935751540179L1058.209090909091,286.89338162080736L1064.7818181818182,287.38535163126164L1071.3545454545456,287.86981095863445L1077.9272727272728,288.3470602094714L1084.5,288.8176026856651L1091.0727272727272,289.2817553887219L1097.6454545454544,289.7400089269549L1104.2181818181818,290.19260321650927L1110.790909090909,290.63956204410806L1117.3636363636363,291.08082457993277L1123.9363636363635,291.51646885641725L1130.509090909091,291.94646095853034L1137.081818181818,292.370384374982L1143.6545454545455,292.78795164807195L1150.2272727272727,293.19912548651433L1156.8,293.6041632699378L1163.3727272727274,294.00299224301625L1169.9454545454546,294.395709568527L1176.5181818181818,294.7823585237662L1183.0909090909092,295.16309838089944L1189.6636363636364,295.53760413285255L1196.2363636363636,295.90593424413305L1202.8090909090909,296.26727889760554L1209.381818181818,296.62280632128846L1215.9545454545455,296.97226741355973L1222.5272727272727,297.3147335317273L1229.1,297.6525914827907L1235.6727272727271,297.98473866343045L1242.2454545454545,298.31112559175216L1248.8181818181818,298.6332677992328L1255.390909090909,298.94965820265674L1261.9636363636364,299.25961034746683L1268.5363636363636,299.5651644364102L1275.109090909091,299.86540231079476L1281.6818181818182,300.1596435247101L1288.2545454545455,300.4489480518244L1294.8272727272729,300.7341471411552L1301.4,301.0147763608554L1307.9727272727273,301.2903899501955L1314.5454545454545,301.56061718769047L1321.118181818182,301.82651237194045L1327.6909090909091,302.08818424668493L1334.2636363636364,302.34539765075795L1340.8363636363636,302.59773736569855L1347.4090909090908,302.84604511483656L1353.9818181818182,303.0913478900441L1360.5545454545454,303.3326528292566L1367.1272727272726,303.56882348189765L1373.7,303.8014197679163L1380.2727272727273,304.030816252935L1386.8454545454545,304.2563270663667L1393.418181818182,304.477369829145L1399.990909090909,304.69521919138845" style="fill: none;" fill="none"></path></g></g></g></g><g opacity="0.2"><g><g><g><path stroke="rgb(51, 187, 238)" stroke-width="2px" d="M131.45454545454547,33.43907350301748L138.02727272727273,35.43122524023062L144.6,37.47119808197027L151.17272727272726,39.60416579246527L157.74545454545455,41.66819000244146L164.3181818181818,43.623635709285736L170.89090909090908,45.54772639274603L177.46363636363637,47.55472952127457L184.0363636363636,49.66139280796051L190.6090909090909,51.82400697469711L197.18181818181816,54.00828802585602L203.75454545454545,56.18609154224396L210.3272727272727,58.335825741291046L216.9,60.441587805747986L223.47272727272727,62.49061042070389L230.04545454545453,64.47461360692984L236.61818181818182,66.40951895713812L243.1909090909091,68.27816569805151L249.76363636363638,70.09630644321447L256.3363636363636,71.84572899341589L262.90909090909093,73.56573039293295L269.4818181818182,75.25892043113714L276.05454545454546,76.95411944389349L282.6272727272727,78.59558308124548L289.2,80.20199292898184L295.7727272727273,81.80759543180471L302.3454545454545,83.41669017076498L308.9181818181818,85.03102326393133L315.4909090909091,86.65168368816381L322.06363636363636,88.2794224619866L328.6363636363636,89.91279387474066L335.2090909090909,91.55145996809011L341.78181818181815,93.19440686702734L348.3545454545455,94.84191620349884L354.92727272727274,96.4953585863114L361.5,98.15933400392538L368.0727272727272,99.8415967226029L374.6454545454545,101.55382508039474L381.2181818181818,103.30662721395498L387.7909090909091,105.10805779695517L394.3636363636363,106.96930700540548L400.93636363636364,108.89437401294714L407.5090909090909,110.88262045383459L414.0818181818182,112.9245834946633L420.6545454545454,115.00890398025513L427.22727272727275,117.12059909105307L433.8,119.24922966957098L440.3727272727273,121.38572716712952L446.94545454545454,123.51777487993246L453.51818181818186,125.63874506950384L460.09090909090907,127.74292999506002L466.6636363636364,129.83104312419894L473.23636363636365,131.90293425321582L479.80909090909097,133.95993643999103L486.3818181818182,136.01128721237185L492.95454545454544,138.0676322579384L499.52727272727276,140.1271503567696L506.09999999999997,142.18837702274325L512.6727272727272,144.2442714571953L519.2454545454545,146.28709816932684L525.8181818181819,148.3076384067536L532.3909090909091,150.29552811384204L538.9636363636364,152.25444728136065L545.5363636363636,154.18572896718982L552.1090909090909,156.08978623151782L558.6818181818181,157.96622478961947L565.2545454545455,159.82371890544894L571.8272727272728,161.67111182212832L578.4,163.5202320814133L584.9727272727273,165.35331809520724L591.5454545454546,167.15964907407763L598.1181818181818,168.9291989207268L604.690909090909,170.6546639800072L611.2636363636364,172.3354058861733L617.8363636363636,173.9796482920647L624.4090909090909,175.59219771623617L630.9818181818182,177.1774100661278L637.5545454545455,178.7370126843453L644.1272727272727,180.27316474914554L650.7,181.7889642119408L657.2727272727273,183.28172618150714L663.8454545454546,184.74311435222629L670.4181818181818,186.16344058513644L676.9909090909091,187.54277998209002L683.5636363636363,188.8871782422066L690.1363636363636,190.19805291295054L696.709090909091,191.47612684965137L703.2818181818183,192.72006699442866L709.8545454545455,193.93113130331042L716.4272727272728,195.106503456831L723,196.25339323282245L729.5727272727272,197.36536064743999L736.1454545454544,198.4440391659737L742.7181818181818,199.49142837524417L749.290909090909,200.51129275560382L755.8636363636364,201.50111639499667L762.4363636363636,202.4603360295296L769.009090909091,203.38713982701304L775.5818181818182,204.2931591868401L782.1545454545454,205.1857916414738L788.7272727272726,206.0609159767628L795.3000000000001,206.91242077946666L801.8727272727273,207.73545259237292L808.4454545454545,208.54672157764438L815.0181818181818,209.35968974232676L821.5909090909091,210.17611259222033L828.1636363636364,210.99256360530856L834.7363636363636,211.78704732656482L841.3090909090909,212.54967847466472L847.8818181818181,213.27519991993907L854.4545454545455,213.969037771225L861.0272727272727,214.6361956894398L867.6,215.3021989166737L874.1727272727272,215.9765478372574L880.7454545454545,216.62858211994174L887.3181818181819,217.24963688850406L893.8909090909091,217.83646398782733L900.4636363636363,218.42014619708064L907.0363636363637,218.99420598149302L913.6090909090909,219.55267274379733L920.1818181818181,220.10446482896808L926.7545454545455,220.60567581653598L933.3272727272728,221.08553910255435L939.9,221.58554846048358L946.4727272727273,222.1112051010132L953.0454545454545,222.5825349390507L959.6181818181819,222.99230003356936L966.1909090909091,223.40207451581958L972.7636363636364,223.85493868589404L979.3363636363636,224.29839634895328L985.9090909090909,224.67990437150004L992.4818181818182,225.06121525168422L999.0545454545455,225.4596399664879L1005.6272727272727,225.84792593121531L1012.1999999999999,226.20311075448993L1018.7727272727274,226.5243401527405L1025.3454545454545,226.878961712122L1031.918181818182,227.23813632130626L1038.490909090909,227.54902982711795L1045.0636363636365,227.8670110702515L1051.6363636363637,228.20503512024882L1058.209090909091,228.5065221190453L1064.7818181818182,228.79434058070186L1071.3545454545456,229.103966742754L1077.9272727272728,229.38751378655436L1084.5,229.66031187772754L1091.0727272727272,229.95335930585864L1097.6454545454544,230.2254908680916L1104.2181818181818,230.49158611893657L1110.790909090909,230.7715658247471L1117.3636363636363,231.02107295393947L1123.9363636363635,231.28173270821574L1130.509090909091,231.52946555614474L1137.081818181818,231.76873067021373L1143.6545454545455,232.01700800657275L1150.2272727272727,232.2446698844433L1156.8,232.48670437932017L1163.3727272727274,232.70165526866916L1169.9454545454546,232.93372938036921L1176.5181818181818,233.13135990500453L1183.0909090909092,233.3806698918343L1189.6636363636364,233.46576029062274L1196.2363636363636,233.8715637624264L1202.8090909090909,233.86676663160327L1209.381818181818,234.08930280804637L1215.9545454545455,234.42449176311496L1222.5272727272727,234.44790476560595L1229.1,234.608294159174L1235.6727272727271,234.90900197625163L1242.2454545454545,234.98441362380984L1248.8181818181818,235.10415413975718L1255.390909090909,235.37633264064792L1261.9636363636364,235.46521568298343L1268.5363636363636,235.58788517117503L1275.109090909091,235.8487232923508L1281.6818181818182,235.9209618866444L1288.2545454545455,235.9875115156174L1294.8272727272729,236.25368186831477L1301.4,236.36851260066035L1307.9727272727273,236.3649922013283L1314.5454545454545,236.58230879902843L1321.118181818182,236.775301784277L1327.6909090909091,236.79376745224002L1334.2636363636364,236.92311161756518L1340.8363636363636,237.10137525200847L1347.4090909090908,237.14740329980853L1353.9818181818182,237.3110783994198L1360.5545454545454,237.39645043015483L1367.1272727272726,237.4265756607056L1373.7,237.63027065992358L1380.2727272727273,237.74441608786586L1386.8454545454545,237.71599003672603L1393.418181818182,237.88566389679912L1399.990909090909,238.03399944305423" style="fill: none;" fill="none"></path></g><g><path stroke="rgb(0, 119, 187)" stroke-width="2px" d="M131.45454545454547,35.679192781448364L138.02727272727273,38.19104933738714L144.6,40.158361136913356L151.17272727272726,42.278861939907074L157.74545454545455,44.54169952869415L164.3181818181818,46.77524739503866L170.89090909090908,48.911819994449615L177.46363636363637,50.99354946613312L184.0363636363636,53.11267966032028L190.6090909090909,55.296566426754L197.18181818181816,57.5042604804039L203.75454545454545,59.70876270532608L210.3272727272727,61.8882372379303L216.9,64.02636820077902L223.47272727272727,66.11654663085943L230.04545454545453,68.16155129671102L236.61818181818182,70.16866707801825L243.1909090909091,72.1595608592034L249.76363636363638,74.13318121433264L256.3363636363636,76.08383917808538L262.90909090909093,77.99888008832937L269.4818181818182,79.91444671154028L276.05454545454546,81.85686224699026L282.6272727272727,83.85235601663595L289.2,85.83577716350561L295.7727272727273,87.82024973630911L302.3454545454545,89.85293769836431L308.9181818181818,91.9464957118035L315.4909090909091,94.10751396417623L322.06363636363636,96.33811408281326L328.6363636363636,98.63927239179611L335.2090909090909,101.00774073600769L341.78181818181815,103.44013953208923L348.3545454545455,105.92959696054459L354.92727272727274,108.46811467409134L361.5,111.04863309860235L368.0727272727272,113.66456204652786L374.6454545454545,116.31274724006653L381.2181818181818,118.9916490912438L387.7909090909091,121.70391494035721L394.3636363636363,124.44984519481662L400.93636363636364,127.22962760925299L407.5090909090909,130.04371279478076L414.0818181818182,132.8884207606316L420.6545454545454,135.75445765256887L427.22727272727275,138.63534593582156L433.8,141.5259411334992L440.3727272727273,144.42545467615133L446.94545454545454,147.33137065172198L453.51818181818186,150.2405535578728L460.09090909090907,153.14845973253253L466.6636363636364,156.05015122890478L473.23636363636365,158.94277417659762L479.80909090909097,161.81926900148397L486.3818181818182,164.66983491182333L492.95454545454544,167.4891772270203L499.52727272727276,170.272808611393L506.09999999999997,173.02241885662085L512.6727272727272,175.7387214303017L519.2454545454545,178.4211530685425L525.8181818181819,181.06868112087253L532.3909090909091,183.68218803405767L538.9636363636364,186.2600403428078L545.5363636363636,188.804040491581L552.1090909090909,191.31586888432506L558.6818181818181,193.79004308581355L565.2545454545455,196.22434759140017L571.8272727272728,198.62038770318034L578.4,200.9755066931248L584.9727272727273,203.2931874096394L591.5454545454546,205.57493188977244L598.1181818181818,207.8173605501652L604.690909090909,210.01544156670573L611.2636363636364,212.17273288965228L617.8363636363636,214.29123410582545L624.4090909090909,216.37031623721126L630.9818181818182,218.41524580121043L637.5545454545455,220.42046526074412L644.1272727272727,222.38554278016093L650.7,224.31193345785144L657.2727272727273,226.1997030079365L663.8454545454546,228.04631674289706L670.4181818181818,229.85286363959315L676.9909090909091,231.61845186352733L683.5636363636363,233.34508100152019L690.1363636363636,235.0319155454636L696.709090909091,236.67738774418834L703.2818181818183,238.28219228982928L709.8545454545455,239.84795325994494L716.4272727272728,241.372539639473L723,242.85871142148974L729.5727272727272,244.30485391616824L736.1454545454544,245.7161773145199L742.7181818181818,247.09083223342898L749.290909090909,248.4312219321728L755.8636363636364,249.73788151144984L762.4363636363636,251.01778605580333L769.009090909091,252.27395841479304L775.5818181818182,253.50582593679428L782.1545454545454,254.71246862411502L788.7272727272726,255.89746320247653L795.3000000000001,257.0598521232605L801.8727272727273,258.2042541503906L808.4454545454545,259.32867908477783L815.0181818181818,260.43361508846283L821.5909090909091,261.51872420310974L828.1636363636364,262.5836496949196L834.7363636363636,263.626617282629L841.3090909090909,264.6463408470154L847.8818181818181,265.6437591612339L854.4545454545455,266.61683508753777L861.0272727272727,267.56486454606056L867.6,268.4883403927088L874.1727272727272,269.3876334428787L880.7454545454545,270.2645883858204L887.3181818181819,271.1210968494415L893.8909090909091,271.9594025015831L900.4636363636363,272.7798151373863L907.0363636363637,273.58022251725197L913.6090909090909,274.36191545426846L920.1818181818181,275.12323231995106L926.7545454545455,275.8633986264467L933.3272727272728,276.58490212261677L939.9,277.28937627375126L946.4727272727273,277.9769008755684L953.0454545454545,278.6474102139473L959.6181818181819,279.30185244977474L966.1909090909091,279.94084717333317L972.7636363636364,280.5664502978325L979.3363636363636,281.17980712652206L985.9090909090909,281.78075337409973L992.4818181818182,282.3692514896393L999.0545454545455,282.9448931068182L1005.6272727272727,283.5080114901066L1012.1999999999999,284.0592825561762L1018.7727272727274,284.5979646742344L1025.3454545454545,285.12659253180027L1031.918181818182,285.6462644934654L1038.490909090909,286.15750627219677L1045.0636363636365,286.660618275404L1051.6363636363637,287.15555825829506L1058.209090909091,287.6430913209915L1064.7818181818182,288.1233066469431L1071.3545454545456,288.5964999496937L1077.9272727272728,289.06293408572674L1084.5,289.52341639995575L1091.0727272727272,289.9779844433069L1097.6454545454544,290.4273892343044L1104.2181818181818,290.87149465084076L1110.790909090909,291.31000028550625L1117.3636363636363,291.74271838366985L1123.9363636363635,292.1699352711439L1130.509090909091,292.59144911170006L1137.081818181818,293.00626949965954L1143.6545454545455,293.41430255770683L1150.2272727272727,293.8158862441778L1156.8,294.2117199450731L1163.3727272727274,294.60123570263386L1169.9454545454546,294.9847855567932L1176.5181818181818,295.362331956625L1183.0909090909092,295.7342081665993L1189.6636363636364,296.09936276078224L1196.2363636363636,296.45842941105366L1202.8090909090909,296.8092958778143L1209.381818181818,297.15609745681286L1215.9545454545455,297.49645905196667L1222.5272727272727,297.82843270897865L1229.1,298.1593784093857L1235.6727272727271,298.48295943439007L1242.2454545454545,298.8007059842348L1248.8181818181818,299.1164811104536L1255.390909090909,299.42424380779266L1261.9636363636364,299.724538564682L1268.5363636363636,300.0234955698252L1275.109090909091,300.3157591223717L1281.6818181818182,300.60100534558296L1288.2545454545455,300.8829048424959L1294.8272727272729,301.16194577515125L1301.4,301.43572019040585L1307.9727272727273,301.7038103342056L1314.5454545454545,301.9659580439329L1321.118181818182,302.22535514831543L1327.6909090909091,302.48069205880165L1334.2636363636364,302.7312177568674L1340.8363636363636,302.9762469381094L1347.4090909090908,303.2185067385435L1353.9818181818182,303.4593020528555L1360.5545454545454,303.69461023807526L1367.1272727272726,303.9230794608593L1373.7,304.15031419694424L1380.2727272727273,304.374910980463L1386.8454545454545,304.5945932865143L1393.418181818182,304.8089339733124L1399.990909090909,305.0219932347536" style="fill: none;" fill="none"></path></g></g></g></g></g></g><g transform="translate(50, 378)" clip-path="url(#clip_1)"><clipPath id="clip_1"><rect width="1446" height="22"></rect></clipPath><g><g><line x1="0" y1="0" x2="0" y2="5" style="visibility: inherit;" fill="rgb(0, 0, 0)" stroke="rgb(204, 204, 204)" stroke-width="1px"></line><line x1="131.45454545454547" y1="0" x2="131.45454545454547" y2="5" style="visibility: inherit;" fill="rgb(0, 0, 0)" stroke="rgb(204, 204, 204)" stroke-width="1px"></line><line x1="262.90909090909093" y1="0" x2="262.90909090909093" y2="5" style="visibility: inherit;" fill="rgb(0, 0, 0)" stroke="rgb(204, 204, 204)" stroke-width="1px"></line><line x1="394.3636363636363" y1="0" x2="394.3636363636363" y2="5" style="visibility: inherit;" fill="rgb(0, 0, 0)" stroke="rgb(204, 204, 204)" stroke-width="1px"></line><line x1="525.8181818181819" y1="0" x2="525.8181818181819" y2="5" style="visibility: inherit;" fill="rgb(0, 0, 0)" stroke="rgb(204, 204, 204)" stroke-width="1px"></line><line x1="657.2727272727273" y1="0" x2="657.2727272727273" y2="5" style="visibility: inherit;" fill="rgb(0, 0, 0)" stroke="rgb(204, 204, 204)" stroke-width="1px"></line><line x1="788.7272727272726" y1="0" x2="788.7272727272726" y2="5" style="visibility: inherit;" fill="rgb(0, 0, 0)" stroke="rgb(204, 204, 204)" stroke-width="1px"></line><line x1="920.1818181818181" y1="0" x2="920.1818181818181" y2="5" style="visibility: inherit;" fill="rgb(0, 0, 0)" stroke="rgb(204, 204, 204)" stroke-width="1px"></line><line x1="1051.6363636363637" y1="0" x2="1051.6363636363637" y2="5" style="visibility: inherit;" fill="rgb(0, 0, 0)" stroke="rgb(204, 204, 204)" stroke-width="1px"></line><line x1="1183.0909090909092" y1="0" x2="1183.0909090909092" y2="5" style="visibility: inherit;" fill="rgb(0, 0, 0)" stroke="rgb(204, 204, 204)" stroke-width="1px"></line><line x1="1314.5454545454545" y1="0" x2="1314.5454545454545" y2="5" style="visibility: inherit;" fill="rgb(0, 0, 0)" stroke="rgb(204, 204, 204)" stroke-width="1px"></line><line x1="1446" y1="0" x2="1446" y2="5" style="visibility: inherit;" fill="rgb(0, 0, 0)" stroke="rgb(204, 204, 204)" stroke-width="1px"></line></g><g transform="translate(0, 8)"><text x="0" y="0" dx="0em" dy="0.95em" style="text-anchor: middle; visibility: hidden; font-family: &quot;Helvetica Neue&quot;, sans-serif; font-size: 12px; font-weight: 200;" fill="rgb(50, 49, 63)" stroke="none" stroke-width="1px">-20</text><text x="131.45454545454547" y="0" dx="0em" dy="0.95em" style="text-anchor: middle; visibility: inherit; font-family: &quot;Helvetica Neue&quot;, sans-serif; font-size: 12px; font-weight: 200;" fill="rgb(50, 49, 63)" stroke="none" stroke-width="1px">0</text><text x="262.90909090909093" y="0" dx="0em" dy="0.95em" style="text-anchor: middle; visibility: inherit; font-family: &quot;Helvetica Neue&quot;, sans-serif; font-size: 12px; font-weight: 200;" fill="rgb(50, 49, 63)" stroke="none" stroke-width="1px">20</text><text x="394.3636363636363" y="0" dx="0em" dy="0.95em" style="text-anchor: middle; visibility: inherit; font-family: &quot;Helvetica Neue&quot;, sans-serif; font-size: 12px; font-weight: 200;" fill="rgb(50, 49, 63)" stroke="none" stroke-width="1px">40</text><text x="525.8181818181819" y="0" dx="0em" dy="0.95em" style="text-anchor: middle; visibility: inherit; font-family: &quot;Helvetica Neue&quot;, sans-serif; font-size: 12px; font-weight: 200;" fill="rgb(50, 49, 63)" stroke="none" stroke-width="1px">60</text><text x="657.2727272727273" y="0" dx="0em" dy="0.95em" style="text-anchor: middle; visibility: inherit; font-family: &quot;Helvetica Neue&quot;, sans-serif; font-size: 12px; font-weight: 200;" fill="rgb(50, 49, 63)" stroke="none" stroke-width="1px">80</text><text x="788.7272727272726" y="0" dx="0em" dy="0.95em" style="text-anchor: middle; visibility: inherit; font-family: &quot;Helvetica Neue&quot;, sans-serif; font-size: 12px; font-weight: 200;" fill="rgb(50, 49, 63)" stroke="none" stroke-width="1px">100</text><text x="920.1818181818181" y="0" dx="0em" dy="0.95em" style="text-anchor: middle; visibility: inherit; font-family: &quot;Helvetica Neue&quot;, sans-serif; font-size: 12px; font-weight: 200;" fill="rgb(50, 49, 63)" stroke="none" stroke-width="1px">120</text><text x="1051.6363636363637" y="0" dx="0em" dy="0.95em" style="text-anchor: middle; visibility: inherit; font-family: &quot;Helvetica Neue&quot;, sans-serif; font-size: 12px; font-weight: 200;" fill="rgb(50, 49, 63)" stroke="none" stroke-width="1px">140</text><text x="1183.0909090909092" y="0" dx="0em" dy="0.95em" style="text-anchor: middle; visibility: inherit; font-family: &quot;Helvetica Neue&quot;, sans-serif; font-size: 12px; font-weight: 200;" fill="rgb(50, 49, 63)" stroke="none" stroke-width="1px">160</text><text x="1314.5454545454545" y="0" dx="0em" dy="0.95em" style="text-anchor: middle; visibility: inherit; font-family: &quot;Helvetica Neue&quot;, sans-serif; font-size: 12px; font-weight: 200;" fill="rgb(50, 49, 63)" stroke="none" stroke-width="1px">180</text><text x="1446" y="0" dx="0em" dy="0.95em" style="text-anchor: middle; visibility: hidden; font-family: &quot;Helvetica Neue&quot;, sans-serif; font-size: 12px; font-weight: 200;" fill="rgb(50, 49, 63)" stroke="none" stroke-width="1px">200</text></g><line x1="0" y1="0" x2="1446" y2="0" fill="rgb(0, 0, 0)" stroke="rgb(204, 204, 204)" stroke-width="1px"></line></g></g></g></g></svg>